<?xml version="1.0" encoding="UTF-8"?>
<svg width="167.08mm" height="241.54mm" version="1.1" viewBox="0 0 631.47869 912.89548" xml:space="preserve" xmlns="http://www.w3.org/2000/svg" xmlns:osb="http://www.openswatchbook.org/uri/2009/osb"><defs><marker id="c" overflow="visible" orient="auto"><path transform="scale(.8)" d="m5.77 0l-8.65 5v-10l8.65 5z" fill="#008f00" fill-rule="evenodd" stroke="#008f00" stroke-width="1pt"/></marker><marker id="d" overflow="visible" orient="auto"><path transform="scale(.8)" d="m5.77 0l-8.65 5v-10l8.65 5z" fill="#008f00" fill-rule="evenodd" stroke="#008f00" stroke-width="1pt"/></marker><marker id="e" overflow="visible" orient="auto"><path transform="scale(.8)" d="m5.77 0l-8.65 5v-10l8.65 5z" fill="#008f00" fill-rule="evenodd" stroke="#008f00" stroke-width="1pt"/></marker><marker id="f" overflow="visible" orient="auto"><path transform="scale(.8)" d="m5.77 0l-8.65 5v-10l8.65 5z" fill="#008f00" fill-rule="evenodd" stroke="#008f00" stroke-width="1pt"/></marker><marker id="g" overflow="visible" orient="auto"><path transform="scale(.8)" d="m5.77 0l-8.65 5v-10l8.65 5z" fill="#8f0000" fill-rule="evenodd" stroke="#8f0000" stroke-width="1pt"/></marker><marker id="h" overflow="visible" orient="auto"><path transform="scale(.8)" d="m5.77 0l-8.65 5v-10l8.65 5z" fill="#8f0000" fill-rule="evenodd" stroke="#8f0000" stroke-width="1pt"/></marker><marker id="i" overflow="visible" orient="auto"><path transform="scale(.8)" d="m5.77 0l-8.65 5v-10l8.65 5z" fill="#8f0000" fill-rule="evenodd" stroke="#8f0000" stroke-width="1pt"/></marker><marker id="j" overflow="visible" orient="auto"><path transform="scale(.8)" d="m5.77 0l-8.65 5v-10l8.65 5z" fill="#0000d1" fill-rule="evenodd" stroke="#0000d1" stroke-width="1pt"/></marker><marker id="k" overflow="visible" orient="auto"><path transform="scale(.8)" d="m5.77 0l-8.65 5v-10l8.65 5z" fill="#d10000" fill-rule="evenodd" stroke="#d10000" stroke-width="1pt"/></marker><marker id="l" overflow="visible" orient="auto"><path transform="scale(.8)" d="m5.77 0l-8.65 5v-10l8.65 5z" fill="#8f0000" fill-rule="evenodd" stroke="#8f0000" stroke-width="1pt"/></marker><marker id="m" overflow="visible" orient="auto"><path transform="scale(.8)" d="m5.77 0l-8.65 5v-10l8.65 5z" fill="#8f0000" fill-rule="evenodd" stroke="#8f0000" stroke-width="1pt"/></marker><marker id="n" overflow="visible" orient="auto"><path transform="scale(.8)" d="m5.77 0l-8.65 5v-10l8.65 5z" fill="#008f00" fill-rule="evenodd" stroke="#008f00" stroke-width="1pt"/></marker><marker id="o" overflow="visible" orient="auto"><path transform="scale(.8)" d="m5.77 0l-8.65 5v-10l8.65 5z" fill="#008f00" fill-rule="evenodd" stroke="#008f00" stroke-width="1pt"/></marker><marker id="p" overflow="visible" orient="auto"><path transform="scale(.8)" d="m5.77 0l-8.65 5v-10l8.65 5z" fill="#008f00" fill-rule="evenodd" stroke="#008f00" stroke-width="1pt"/></marker><marker id="q" overflow="visible" orient="auto"><path transform="scale(.8)" d="m5.77 0l-8.65 5v-10l8.65 5z" fill="#008f00" fill-rule="evenodd" stroke="#008f00" stroke-width="1pt"/></marker><marker id="r" overflow="visible" orient="auto"><path transform="scale(.8)" d="m5.77 0l-8.65 5v-10l8.65 5z" fill="#8f0000" fill-rule="evenodd" stroke="#8f0000" stroke-width="1pt"/></marker><marker id="s" overflow="visible" orient="auto"><path transform="scale(.8)" d="m5.77 0l-8.65 5v-10l8.65 5z" fill="#8f0000" fill-rule="evenodd" stroke="#8f0000" stroke-width="1pt"/></marker><marker id="t" overflow="visible" orient="auto"><path transform="scale(.8)" d="m5.77 0l-8.65 5v-10l8.65 5z" fill="#008f00" fill-rule="evenodd" stroke="#008f00" stroke-width="1pt"/></marker><marker id="u" overflow="visible" orient="auto"><path transform="scale(.8)" d="m5.77 0l-8.65 5v-10l8.65 5z" fill="#008f00" fill-rule="evenodd" stroke="#008f00" stroke-width="1pt"/></marker><marker id="v" overflow="visible" orient="auto"><path transform="scale(.8)" d="m5.77 0l-8.65 5v-10l8.65 5z" fill="#008f00" fill-rule="evenodd" stroke="#008f00" stroke-width="1pt"/></marker><marker id="w" overflow="visible" orient="auto"><path transform="scale(.8)" d="m5.77 0l-8.65 5v-10l8.65 5z" fill="#d10000" fill-rule="evenodd" stroke="#d10000" stroke-width="1pt"/></marker><marker id="x" overflow="visible" orient="auto"><path transform="scale(.8)" d="m5.77 0l-8.65 5v-10l8.65 5z" fill="#8f0000" fill-rule="evenodd" stroke="#8f0000" stroke-width="1pt"/></marker><marker id="y" overflow="visible" orient="auto"><path transform="scale(.8)" d="m5.77 0l-8.65 5v-10l8.65 5z" fill="#0000d1" fill-rule="evenodd" stroke="#0000d1" stroke-width="1pt"/></marker><marker id="z" overflow="visible" orient="auto"><path transform="scale(.8)" d="m5.77 0l-8.65 5v-10l8.65 5z" fill="#d10000" fill-rule="evenodd" stroke="#d10000" stroke-width="1pt"/></marker><marker id="aa" overflow="visible" orient="auto"><path transform="scale(.8)" d="m5.77 0l-8.65 5v-10l8.65 5z" fill="#d10000" fill-rule="evenodd" stroke="#d10000" stroke-width="1pt"/></marker><marker id="a" overflow="visible" orient="auto"><path transform="scale(.8)" d="m5.77 0l-8.65 5v-10l8.65 5z" fill="#d10000" fill-rule="evenodd" stroke="#d10000" stroke-width="1pt"/></marker><marker id="b" overflow="visible" orient="auto"><path transform="scale(.8)" d="m5.77 0l-8.65 5v-10l8.65 5z" fill="#8f0000" fill-rule="evenodd" stroke="#8f0000" stroke-width="1pt"/></marker></defs><g transform="matrix(1.3333 0 0 -1.3333 -19.161 912.89)"><path d="m281.16 169.15c0-5.965-12.894-10.801-28.801-10.801-15.906 0-28.8 4.836-28.8 10.801s12.894 10.801 28.8 10.801c15.907 0 28.801-4.836 28.801-10.801" fill="#ffa1a1" fill-rule="evenodd"/><path d="m252.36 158.35v-17.288" fill="none" marker-end="url(#n)" stroke="#008f00" stroke-linejoin="round" stroke-miterlimit="10" stroke-width="1.44"/><path d="m281.16 169.15c0-5.964-12.894-10.8-28.801-10.8-15.906 0-28.8 4.836-28.8 10.8 0 5.965 12.894 10.801 28.8 10.801 15.907 0 28.801-4.836 28.801-10.801z" fill="none" stroke="#000" stroke-miterlimit="10" stroke-width=".72"/><path d="m281.16 338.35c0-5.96-12.894-10.796-28.801-10.796-15.906 0-28.8 4.836-28.8 10.796 0 5.965 12.894 10.801 28.8 10.801 15.907 0 28.801-4.836 28.801-10.801" fill="#ffa1a1" fill-rule="evenodd"/><path d="m281.16 338.35c0-5.961-12.894-10.797-28.801-10.797-15.906 0-28.8 4.836-28.8 10.797 0 5.965 12.894 10.8 28.8 10.8 15.907 0 28.801-4.835 28.801-10.8z" fill="none" stroke="#000" stroke-miterlimit="10" stroke-width=".72"/><g fill-rule="evenodd"><path d="m223.56 212.35v-43.2h57.601v43.2l-10.801-3.598" fill="#ffa1a1"/><path d="m223.56 381.55v-43.203h57.601v43.203l-10.801-3.602" fill="#ffa1a1"/><path d="m291.96 104.64c0-14.051-16.594-25.442-37.059-25.442-20.464 0-37.054 11.391-37.054 25.442 0 14.05 16.59 25.441 37.054 25.441 20.465 0 37.059-11.391 37.059-25.441" fill="#bf6100"/><path d="m291.96 527.14c0-14.766-16.594-26.735-37.059-26.735-20.464 0-37.054 11.969-37.054 26.735 0 14.765 16.59 26.738 37.054 26.738 20.465 0 37.059-11.973 37.059-26.738" fill="#bf6100"/></g><g fill="none" stroke-linejoin="round" stroke-miterlimit="10"><path d="m252.36 590.35v-25.19" marker-end="url(#z)" stroke="#d10000" stroke-width="1.44"/><g stroke-width="1.44"><path d="m410.84 171.78v-34.385" marker-end="url(#h)" stroke="#8f0000" stroke-dasharray="2.8799999, 2.8799999"/><path d="m144.36 529.15h63.118" marker-end="url(#b)" stroke="#8f0000" stroke-dasharray="2.8799999, 2.8799999"/><path d="m255.96 503.95v-26.97" marker-end="url(#w)" stroke="#d10000"/></g><path d="m248.76 503.95v-26.97" marker-end="url(#x)" stroke="#8f0000" stroke-dasharray="2.88000671, 2.88000671" stroke-width="1.44"/></g><path d="m291.96 440.5c0-14.051-16.594-25.438-37.059-25.438-20.464 0-37.054 11.387-37.054 25.438s16.59 25.441 37.054 25.441c20.465 0 37.059-11.39 37.059-25.441" fill="#bf6100" fill-rule="evenodd"/><path d="m165.96 529.15v-428.4h42.241" fill="none" marker-end="url(#i)" stroke="#8f0000" stroke-dasharray="2.8799999, 2.87999990000000006" stroke-linejoin="round" stroke-miterlimit="10" stroke-width="1.44"/><path d="m363.9 550.75c-2.781 0-5.039-2.258-5.039-5.039v-33.121c0-2.786 2.258-5.039 5.039-5.039h65.52c2.785 0 5.043 2.253 5.043 5.039v33.121c0 2.781-2.258 5.039-5.043 5.039" fill="#87cfff" fill-rule="evenodd"/><g fill="none" stroke-linejoin="round" stroke-miterlimit="10" stroke-width="1.44"><path d="m144.36 615.55h62.821" marker-end="url(#aa)" stroke="#d10000"/><path d="m79.49 664.1v19.851h172.87v-35.254" marker-end="url(#a)" stroke="#d10000"/><path d="m165.96 273.55h41.071" marker-end="url(#s)" stroke="#8f0000" stroke-dasharray="2.8799999, 2.8799999"/><path d="m372.77 104.69-75.821 0.14831" marker-end="url(#l)" stroke="#8f0000" stroke-dasharray="2.8799999, 2.8799999"/></g><path d="m389.16 50.35h86.399l-28.801-43.199h-86.399l28.801 43.199" fill="#82e282" fill-rule="evenodd"/><path d="m389.16 50.351h86.399l-28.801-43.2h-86.399z" fill="none" stroke="#000" stroke-linejoin="round" stroke-miterlimit="10" stroke-width=".72"/><path d="m43.559 50.35h86.402l-28.801-43.199h-86.402l28.801 43.199" fill="#82e282" fill-rule="evenodd"/><path d="m43.559 50.351h86.402l-28.801-43.2h-86.402z" fill="none" stroke="#000" stroke-linejoin="round" stroke-miterlimit="10" stroke-width=".72"/><path d="m48.598 129.55c-2.782 0-5.039-2.258-5.039-5.043v-33.118c0-2.7852 2.257-5.043 5.039-5.043h65.523c2.781 0 5.039 2.2578 5.039 5.043v33.118c0 2.785-2.258 5.043-5.039 5.043" fill="#87cfff" fill-rule="evenodd"/><path d="m48.598 129.55c-2.782 0-5.039-2.258-5.039-5.043v-33.117c0-2.7848 2.257-5.043 5.039-5.043h65.523c2.781 0 5.039 2.2582 5.039 5.043v33.117c0 2.785-2.258 5.043-5.039 5.043z" fill="none" stroke="#000" stroke-linejoin="round" stroke-miterlimit="10" stroke-width=".72"/><path d="m291.96 270.24c0-14.051-16.594-25.441-37.059-25.441-20.464 0-37.054 11.39-37.054 25.441s16.59 25.438 37.054 25.438c20.465 0 37.059-11.387 37.059-25.438" fill="#bf6100" fill-rule="evenodd"/><g fill="none" stroke-linejoin="round" stroke-miterlimit="10"><path d="m344.99 262.75h-11.325l1.5-147.6-38.254-0.14831" marker-end="url(#m)" stroke="#8f0000" stroke-dasharray="2.88000652, 2.88000652" stroke-width="1.44"/><path d="m119.16 107.95h89.042" marker-end="url(#j)" stroke="#0000d1" stroke-dasharray="2.8799999, 2.87999990000000006" stroke-width="1.44"/><path d="m358.73 529.15h-60.597" marker-end="url(#y)" stroke="#0000d1" stroke-dasharray="2.8799999, 2.8799999" stroke-width="1.44"/><path d="m345.1 411.58h-21.952v-138.16h-25.371" marker-end="url(#r)" stroke="#8f0000" stroke-dasharray="2.88000683,2.88000683" stroke-width="1.44"/></g><path d="m122.76 187.44c0-14.05-16.59-25.441-37.055-25.441-20.465 0-37.055 11.391-37.055 25.441 0 14.051 16.59 25.442 37.055 25.442 20.465 0 37.055-11.391 37.055-25.442" fill="#bf6100" fill-rule="evenodd"/><g fill="none" stroke-linejoin="round" stroke-miterlimit="10"><path d="m223.25 183.55h-95.797" marker-end="url(#o)" stroke="#008f00" stroke-width="1.44"/><path d="m252.36 583.15h-72v-468h27.843" marker-end="url(#k)" stroke="#d10000" stroke-width="1.44"/><path d="m223.56 169.15v43.2" stroke="#000" stroke-width=".72"/><path d="m281.16 169.15v43.2" stroke="#000" stroke-width=".72"/></g><path d="m281.16 212.35c0-3.972-12.894-7.199-28.801-7.199-15.906 0-28.8 3.227-28.8 7.199 0 3.977 12.894 7.204 28.8 7.204 15.907 0 28.801-3.227 28.801-7.204" fill="#ff8080" fill-rule="evenodd"/><path d="m281.16 212.35c0-3.973-12.894-7.2-28.801-7.2-15.906 0-28.8 3.227-28.8 7.2 0 3.976 12.894 7.203 28.8 7.203 15.907 0 28.801-3.227 28.801-7.203z" fill="none" stroke="#000" stroke-linejoin="round" stroke-miterlimit="10" stroke-width=".72"/><path d="m281.16 338.35v43.203" fill="none" stroke="#000" stroke-linejoin="round" stroke-miterlimit="10" stroke-width=".72"/><path d="m281.16 381.55c0-3.977-12.894-7.204-28.801-7.204-15.906 0-28.8 3.227-28.8 7.204 0 3.972 12.894 7.199 28.8 7.199 15.907 0 28.801-3.227 28.801-7.199" fill="#ff8080" fill-rule="evenodd"/><path d="m252.36 418.3v-21.551" fill="none" marker-end="url(#d)" stroke="#008f00" stroke-linejoin="round" stroke-miterlimit="10" stroke-width="1.44"/><path d="m281.16 381.55c0-3.977-12.894-7.203-28.801-7.203-15.906 0-28.8 3.226-28.8 7.203 0 3.972 12.894 7.199 28.8 7.199 15.907 0 28.801-3.227 28.801-7.199z" fill="none" stroke="#000" stroke-linejoin="round" stroke-miterlimit="10" stroke-width=".72"/><path d="m291.96 25.44c0-14.05-16.594-25.441-37.059-25.441-20.464 0-37.054 11.391-37.054 25.441 0 14.051 16.59 25.442 37.054 25.442 20.465 0 37.059-11.391 37.059-25.442" fill="#bf6100" fill-rule="evenodd"/><g fill="none" stroke="#008f00" stroke-linejoin="round" stroke-miterlimit="10" stroke-width="1.44"><path d="m289.41 28.609 76.907 0.1437" marker-end="url(#f)"/><path d="m252.36 82.753v-20.364" marker-end="url(#c)"/><path d="m115.56 28.753h91.473" marker-end="url(#e)" stroke-dasharray="2.8799999, 2.8799999"/></g><path d="m119.16 357.69c0-14.047-16.59-25.437-37.058-25.437-20.465 0-37.055 11.39-37.055 25.437 0 14.051 16.59 25.442 37.055 25.442 20.468 0 37.058-11.391 37.058-25.442" fill="#bf6100" fill-rule="evenodd"/><g fill="none" stroke-linejoin="round" stroke-miterlimit="10"><path d="m223.56 352.75h-100.26" marker-end="url(#u)" stroke="#008f00" stroke-width="1.44"/><path d="m223.56 338.35v43.203" stroke="#000" stroke-width=".72"/><g stroke="#008f00"><path d="m116.64 363.55h98.78" marker-end="url(#v)" stroke-width="1.44"/><g stroke-width="1.44"><path d="m252.36 248.35v-20.657" marker-end="url(#q)"/><path d="m252.36 327.55v-20.839" marker-end="url(#t)"/><path d="m119.16 194.35h96.259" marker-end="url(#p)"/></g></g></g><path d="m291.96 612.24c0-14.051-16.594-25.441-37.059-25.441-20.464 0-37.054 11.39-37.054 25.441s16.59 25.438 37.054 25.438c20.465 0 37.059-11.387 37.059-25.438" fill="#bf6100" fill-rule="evenodd"/><path d="m289.41 530.45c0-14.766-16.59-26.734-37.055-26.734-20.464 0-37.054 11.968-37.054 26.734s16.59 26.734 37.054 26.734c20.465 0 37.055-11.968 37.055-26.734" fill="#ffd600" fill-rule="evenodd"/><path d="m289.41 530.45c0-14.765-16.59-26.734-37.055-26.734-20.464 0-37.054 11.969-37.054 26.734 0 14.766 16.59 26.735 37.054 26.735 20.465 0 37.055-11.969 37.055-26.735z" fill="none" stroke="#000" stroke-miterlimit="10" stroke-width=".72"/><path d="m289.41 443.66c0-14.051-16.59-25.438-37.055-25.438-20.464 0-37.054 11.387-37.054 25.438s16.59 25.441 37.054 25.441c20.465 0 37.055-11.39 37.055-25.441" fill="#ffd600" fill-rule="evenodd"/><path d="m289.41 443.66c0-14.051-16.59-25.437-37.055-25.437-20.464 0-37.054 11.386-37.054 25.437s16.59 25.442 37.054 25.442c20.465 0 37.055-11.391 37.055-25.442z" fill="none" stroke="#000" stroke-miterlimit="10" stroke-width=".72"/><path d="m289.41 28.608c0-14.051-16.59-25.441-37.055-25.441-20.464 0-37.054 11.39-37.054 25.441 0 14.051 16.59 25.442 37.054 25.442 20.465 0 37.055-11.391 37.055-25.442" fill="#ffd600" fill-rule="evenodd"/><path d="m289.41 28.609c0-14.051-16.59-25.442-37.055-25.442-20.464 0-37.054 11.391-37.054 25.442 0 14.05 16.59 25.441 37.054 25.441 20.465 0 37.055-11.391 37.055-25.441z" fill="none" stroke="#000" stroke-miterlimit="10" stroke-width=".72"/><path d="m120.22 190.61c0-14.051-16.59-25.441-37.055-25.441-20.465 0-37.058 11.39-37.058 25.441s16.593 25.442 37.058 25.442c20.465 0 37.055-11.391 37.055-25.442" fill="#ffd600" fill-rule="evenodd"/><path d="m120.22 190.61c0-14.051-16.59-25.442-37.055-25.442-20.465 0-37.058 11.391-37.058 25.442 0 14.05 16.593 25.441 37.058 25.441 20.465 0 37.055-11.391 37.055-25.441z" fill="none" stroke="#000" stroke-miterlimit="10" stroke-width=".72"/><path d="m289.41 107.81c0-14.05-16.59-25.441-37.055-25.441-20.464 0-37.054 11.391-37.054 25.441 0 14.051 16.59 25.442 37.054 25.442 20.465 0 37.055-11.391 37.055-25.442" fill="#ffd600" fill-rule="evenodd"/><path d="m289.41 107.81c0-14.051-16.59-25.442-37.055-25.442-20.464 0-37.054 11.391-37.054 25.442 0 14.051 16.59 25.441 37.054 25.441 20.465 0 37.055-11.39 37.055-25.441z" fill="none" stroke="#000" stroke-miterlimit="10" stroke-width=".72"/><path d="m289.41 273.41c0-14.051-16.59-25.441-37.055-25.441-20.464 0-37.054 11.39-37.054 25.441s16.59 25.438 37.054 25.438c20.465 0 37.055-11.387 37.055-25.438" fill="#ffd600" fill-rule="evenodd"/><path d="m289.41 273.41c0-14.05-16.59-25.441-37.055-25.441-20.464 0-37.054 11.391-37.054 25.441 0 14.051 16.59 25.438 37.054 25.438 20.465 0 37.055-11.387 37.055-25.438z" fill="none" stroke="#000" stroke-miterlimit="10" stroke-width=".72"/><path d="m116.62 360.86c0-14.047-16.594-25.437-37.058-25.437-20.465 0-37.055 11.39-37.055 25.437 0 14.051 16.59 25.442 37.055 25.442 20.464 0 37.058-11.391 37.058-25.442" fill="#ffd600" fill-rule="evenodd"/><path d="m116.62 360.86c0-14.046-16.594-25.437-37.058-25.437-20.465 0-37.055 11.391-37.055 25.437 0 14.051 16.59 25.442 37.055 25.442 20.464 0 37.058-11.391 37.058-25.442z" fill="none" stroke="#000" stroke-miterlimit="10" stroke-width=".72"/><path d="m289.41 615.41c0-14.051-16.59-25.441-37.055-25.441-20.464 0-37.054 11.39-37.054 25.441s16.59 25.438 37.054 25.438c20.465 0 37.055-11.387 37.055-25.438" fill="#ffd600" fill-rule="evenodd"/><path d="m289.41 615.41c0-14.05-16.59-25.441-37.055-25.441-20.464 0-37.054 11.391-37.054 25.441 0 14.051 16.59 25.438 37.054 25.438 20.465 0 37.055-11.387 37.055-25.438z" fill="none" stroke="#000" stroke-miterlimit="10" stroke-width=".72"/><path d="m360.71 459.74c-1.431 0-2.5911-1.16-2.5911-2.5901v-59.612c0-1.4309 1.1601-2.5946 2.5911-2.5946h98.496c1.431 0 2.5911 1.1636 2.5911 2.5946v59.612c0 1.43-1.1601 2.5901-2.5911 2.5901" fill="#00d1d1" fill-rule="evenodd"/><path d="m360.71 459.74c-1.431 0-2.5911-1.16-2.5911-2.591v-59.612c0-1.43 1.1601-2.5936 2.5911-2.5936h98.496c1.431 0 2.5911 1.1636 2.5911 2.5936v59.612c0 1.4309-1.1601 2.591-2.5911 2.591z" fill="none" stroke="#000" stroke-miterlimit="10" stroke-width="1.296"/><text transform="scale(1 -.99998)" x="382.35391" y="-432.09409" fill="#000000" font-family="'Bitstream Vera Sans'" font-size="12.96px" stroke-width=".89997"><tspan x="382.35391" y="-432.09409" font-family="sans-serif" font-size="12px" stroke-width=".89997">Flag map</tspan></text>
<path d="m358.77 417.63c-0.35459 0-0.64709-0.29249-0.64709-0.65067v-11.661c0-0.35908 0.2925-0.65067 0.64709-0.65067h102.38c0.3582 0 0.64709 0.29159 0.64709 0.65067v11.661c0 0.35818-0.28889 0.65067-0.64709 0.65067" fill="#80e8e8" fill-rule="evenodd"/><path d="m358.77 417.63c-0.35459 0-0.64709-0.29159-0.64709-0.65067v-11.661c0-0.35818 0.2925-0.65067 0.64709-0.65067h102.38c0.3582 0 0.64709 0.29249 0.64709 0.65067v11.661c0 0.35908-0.28889 0.65067-0.64709 0.65067z" fill="none" stroke="#000" stroke-miterlimit="10" stroke-width=".64798"/><path d="m347.76 417.63c-1.431 0-2.5911-1.16-2.5911-2.5946v-7.7765c0-1.43 1.1601-2.591 2.5911-2.591h124.41c1.431 0 2.5947 1.1609 2.5947 2.591v7.7765c0 1.4309-1.1637 2.5946-2.5947 2.5946z" fill="none" stroke="#000" stroke-miterlimit="10" stroke-width=".64798"/><text transform="scale(1 -.99998)" x="385.56586" y="-425.12012" fill="#000000" font-family="'Bitstream Vera Sans'" font-size="8px" stroke-width=".89997"><tspan x="385.56586" y="-418.04199"/><tspan x="385.56586" y="-408.04199" font-family="sans-serif">Frame buffer</tspan></text>
<path d="m360.71 310.9c-1.431 0-2.5911-1.16-2.5911-2.5901v-59.612c0-1.4309 1.1601-2.5946 2.5911-2.5946h98.496c1.431 0 2.5911 1.1636 2.5911 2.5946v59.612c0 1.43-1.1601 2.5901-2.5911 2.5901" fill="#00d1d1" fill-rule="evenodd"/><path d="m360.71 310.9c-1.431 0-2.5911-1.16-2.5911-2.591v-59.612c0-1.43 1.1601-2.5937 2.5911-2.5937h98.496c1.431 0 2.5911 1.1636 2.5911 2.5937v59.612c0 1.4309-1.1601 2.591-2.5911 2.591z" fill="none" stroke="#000" stroke-miterlimit="10" stroke-width="1.296"/><text transform="scale(1 -.99998)" x="409.23224" y="-294.0141" fill="#000000" font-family="sans-serif" font-size="12px" stroke-width=".89997" text-anchor="middle"><tspan x="409.23224" y="-294.0141" text-align="center">Measurement</tspan><tspan x="409.23224" y="-277.81467" text-align="center">Weight map</tspan></text>
<path d="m358.77 268.78c-0.3546 0-0.64709-0.29248-0.64709-0.65066v-11.661c0-0.35908 0.29249-0.65066 0.64709-0.65066h102.38c0.35819 0 0.64709 0.29158 0.64709 0.65066v11.661c0 0.35818-0.2889 0.65066-0.64709 0.65066" fill="#80e8e8" fill-rule="evenodd"/><path d="m358.77 268.78c-0.3546 0-0.64709-0.29158-0.64709-0.65066v-11.661c0-0.35818 0.29249-0.65066 0.64709-0.65066h102.38c0.35819 0 0.64709 0.29248 0.64709 0.65066v11.661c0 0.35908-0.2889 0.65066-0.64709 0.65066z" fill="none" stroke="#000" stroke-miterlimit="10" stroke-width=".64798"/><path d="m347.76 268.78c-1.431 0-2.5911-1.16-2.5911-2.5946v-7.7765c0-1.43 1.1601-2.591 2.5911-2.591h124.41c1.431 0 2.5947 1.1609 2.5947 2.591v7.7765c0 1.4309-1.1637 2.5946-2.5947 2.5946z" fill="none" stroke="#000" stroke-miterlimit="10" stroke-width=".64798"/><text transform="scale(1 -.99998)" x="385.56586" y="-276.27286" fill="#000000" font-family="'Bitstream Vera Sans'" font-size="7.7757px" stroke-width=".89997"><tspan x="385.56586" y="-269.39316"/><tspan x="385.56586" y="-259.47507" font-family="sans-serif" font-size="8px">Frame buffer</tspan></text>
<path d="m360.71 385.32c-1.431 0-2.5911-1.16-2.5911-2.59v-59.612c0-1.4309 1.1601-2.5946 2.5911-2.5946h98.496c1.431 0 2.5911 1.1636 2.5911 2.5946v59.612c0 1.43-1.1601 2.59-2.5911 2.59" fill="#00d1d1" fill-rule="evenodd"/><path d="m360.71 385.32c-1.431 0-2.5911-1.16-2.5911-2.591v-59.612c0-1.43 1.1601-2.5936 2.5911-2.5936h98.496c1.431 0 2.5911 1.1636 2.5911 2.5936v59.612c0 1.4309-1.1601 2.591-2.5911 2.591z" fill="none" stroke="#000" stroke-miterlimit="10" stroke-width="1.296"/><text transform="scale(1 -.99998)" x="411.44049" y="-366.25589" fill="#000000" font-family="sans-serif" font-size="12px" stroke-width=".89997" text-align="center" text-anchor="middle"><tspan x="411.44049" y="-366.25589">Differential</tspan><tspan x="411.44049" y="-351.25589">geometry map</tspan></text>
<path d="m358.77 343.21c-0.3546 0-0.64709-0.29249-0.64709-0.65067v-11.661c0-0.35908 0.29249-0.65066 0.64709-0.65066h102.38c0.35819 0 0.64709 0.29158 0.64709 0.65066v11.661c0 0.35818-0.2889 0.65067-0.64709 0.65067" fill="#80e8e8" fill-rule="evenodd"/><path d="m358.77 343.21c-0.3546 0-0.64709-0.29159-0.64709-0.65067v-11.661c0-0.35818 0.29249-0.65066 0.64709-0.65066h102.38c0.35819 0 0.64709 0.29248 0.64709 0.65066v11.661c0 0.35908-0.2889 0.65067-0.64709 0.65067z" fill="none" stroke="#000" stroke-miterlimit="10" stroke-width=".64798"/><path d="m347.76 343.21c-1.431 0-2.5911-1.16-2.5911-2.5946v-7.7765c0-1.43 1.1601-2.591 2.5911-2.591h124.41c1.431 0 2.5947 1.1609 2.5947 2.591v7.7765c0 1.4309-1.1637 2.5946-2.5947 2.5946z" fill="none" stroke="#000" stroke-miterlimit="10" stroke-width=".64798"/><text transform="scale(1 -.99998)" x="385.56586" y="-350.6965" fill="#000000" font-family="'Bitstream Vera Sans'" font-size="7.7757px" stroke-width=".89997"><tspan x="385.56586" y="-343.8168"/><tspan x="385.56586" y="-333.89871" font-family="sans-serif" font-size="8px">Frame buffer</tspan></text>
<path d="m360.71 236.48c-1.431 0-2.5911-1.16-2.5911-2.59v-59.612c0-1.4309 1.1601-2.5946 2.5911-2.5946h98.496c1.431 0 2.5911 1.1636 2.5911 2.5946v59.612c0 1.43-1.1601 2.59-2.5911 2.59" fill="#00d1d1" fill-rule="evenodd"/><path d="m360.71 236.48c-1.431 0-2.5911-1.16-2.5911-2.591v-59.612c0-1.43 1.1601-2.5937 2.5911-2.5937h98.496c1.431 0 2.5911 1.1636 2.5911 2.5937v59.612c0 1.4309-1.1601 2.591-2.5911 2.591z" fill="none" stroke="#000" stroke-miterlimit="10" stroke-width="1.296"/><text transform="scale(1 -.99998)" x="409.23224" y="-219.59048" fill="#000000" font-family="sans-serif" font-size="12px" stroke-width=".89997" text-anchor="middle"><tspan x="409.23224" y="-219.59048" text-align="center">Measurement</tspan><tspan x="409.23224" y="-203.39104" text-align="center">image</tspan></text>
<path d="m358.77 194.36c-0.3546 0-0.64709-0.29248-0.64709-0.65066v-11.661c0-0.35908 0.29249-0.65066 0.64709-0.65066h102.38c0.35819 0 0.64709 0.29158 0.64709 0.65066v11.661c0 0.35818-0.2889 0.65066-0.64709 0.65066" fill="#80e8e8" fill-rule="evenodd"/><path d="m358.77 194.36c-0.3546 0-0.64709-0.29158-0.64709-0.65066v-11.661c0-0.35818 0.29249-0.65066 0.64709-0.65066h102.38c0.35819 0 0.64709 0.29248 0.64709 0.65066v11.661c0 0.35908-0.2889 0.65066-0.64709 0.65066z" fill="none" stroke="#000" stroke-miterlimit="10" stroke-width=".64798"/><path d="m347.76 194.36c-1.431 0-2.5911-1.16-2.5911-2.5946v-7.7765c0-1.43 1.1601-2.591 2.5911-2.591h124.41c1.431 0 2.5947 1.1609 2.5947 2.591v7.7765c0 1.4309-1.1637 2.5946-2.5947 2.5946z" fill="none" stroke="#000" stroke-miterlimit="10" stroke-width=".64798"/><text transform="scale(1 -.99998)" x="385.56586" y="-201.84924" fill="#000000" font-family="'Bitstream Vera Sans'" font-size="7.7757px" stroke-width=".89997"><tspan x="385.56586" y="-194.96954"/><tspan x="385.56586" y="-185.05145" font-family="sans-serif" font-size="8px">Frame buffer</tspan></text>
<path d="m30.244 664c-1.431 0-2.5911-1.16-2.5911-2.59v-59.612c0-1.4309 1.1601-2.5946 2.5911-2.5946h98.496c1.431 0 2.5911 1.1636 2.5911 2.5946v59.612c0 1.43-1.1601 2.59-2.5911 2.59" fill="#00d1d1" fill-rule="evenodd"/><path d="m30.244 664c-1.431 0-2.5911-1.16-2.5911-2.591v-59.612c0-1.43 1.1601-2.5937 2.5911-2.5937h98.496c1.431 0 2.5911 1.1636 2.5911 2.5937v59.612c0 1.4309-1.1601 2.591-2.5911 2.591z" fill="none" stroke="#000" stroke-miterlimit="10" stroke-width="1.296"/><text transform="scale(1 -.99998)" x="79.22068" y="-647.22437" fill="#000000" font-family="sans-serif" font-size="12px" stroke-width=".89997" text-anchor="middle"><tspan x="79.22068" y="-647.22437" text-align="center">(Detection)</tspan><tspan x="79.22068" y="-631.0249" text-align="center">Image</tspan></text>
<path d="m28.3 621.89c-0.3546 0-0.64709-0.29248-0.64709-0.65066v-11.661c0-0.35908 0.2925-0.65066 0.64709-0.65066h102.38c0.35819 0 0.64709 0.29158 0.64709 0.65066v11.661c0 0.35818-0.2889 0.65066-0.64709 0.65066" fill="#80e8e8" fill-rule="evenodd"/><path d="m28.3 621.89c-0.3546 0-0.64709-0.29158-0.64709-0.65066v-11.661c0-0.35818 0.2925-0.65066 0.64709-0.65066h102.38c0.35819 0 0.64709 0.29248 0.64709 0.65066v11.661c0 0.35908-0.2889 0.65066-0.64709 0.65066z" fill="none" stroke="#000" stroke-miterlimit="10" stroke-width=".64798"/><path d="m17.286 621.89c-1.431 0-2.5911-1.16-2.5911-2.5946v-7.7765c0-1.43 1.1601-2.591 2.5911-2.591h124.41c1.431 0 2.5947 1.1609 2.5947 2.591v7.7765c0 1.4309-1.1637 2.5946-2.5947 2.5946z" fill="none" stroke="#000" stroke-miterlimit="10" stroke-width=".64798"/><text transform="scale(1 -.99998)" x="55.102432" y="-629.38196" fill="#000000" font-family="'Bitstream Vera Sans'" font-size="7.7757px" stroke-width=".89997"><tspan x="55.102432" y="-622.50226"/><tspan x="55.102432" y="-612.58417" font-family="sans-serif" font-size="8px">Frame buffer</tspan></text>
<path d="m474.65 262.38 12.462-0.14831v-74.216" fill="none" stroke="#8f0000" stroke-dasharray="2.8799999, 2.8799999" stroke-linejoin="round" stroke-miterlimit="10" stroke-width="1.44"/><path d="m345.16 336.94h-11.325l-0.17797-74.191" fill="none" stroke="#8f0000" stroke-dasharray="2.8799999, 2.8799999" stroke-linejoin="round" stroke-miterlimit="10" stroke-width="1.44"/><path d="m30.244 577.74c-1.431 0-2.5911-1.16-2.5911-2.59v-59.612c0-1.4309 1.1601-2.5946 2.5911-2.5946h98.496c1.431 0 2.5911 1.1636 2.5911 2.5946v59.612c0 1.43-1.1601 2.59-2.5911 2.59" fill="#00d1d1" fill-rule="evenodd"/><path d="m30.244 577.74c-1.431 0-2.5911-1.16-2.5911-2.591v-59.612c0-1.43 1.1601-2.5937 2.5911-2.5937h98.496c1.431 0 2.5911 1.1636 2.5911 2.5937v59.612c0 1.4309-1.1601 2.591-2.5911 2.591z" fill="none" stroke="#000" stroke-miterlimit="10" stroke-width="1.296"/><text transform="scale(1 -.99998)" x="78.768829" y="-560.85828" fill="#000000" font-family="sans-serif" font-size="12px" stroke-width=".89997" text-anchor="middle"><tspan x="78.768829" y="-560.85828" text-align="center">(Detection)</tspan><tspan x="78.768829" y="-544.65881" text-align="center">Weight map</tspan></text>
<path d="m28.3 535.62c-0.3546 0-0.64709-0.29248-0.64709-0.65066v-11.661c0-0.35908 0.2925-0.65066 0.64709-0.65066h102.38c0.35819 0 0.64709 0.29158 0.64709 0.65066v11.661c0 0.35818-0.2889 0.65066-0.64709 0.65066" fill="#80e8e8" fill-rule="evenodd"/><path d="m28.3 535.62c-0.3546 0-0.64709-0.29158-0.64709-0.65066v-11.661c0-0.35818 0.2925-0.65066 0.64709-0.65066h102.38c0.35819 0 0.64709 0.29248 0.64709 0.65066v11.661c0 0.35908-0.2889 0.65066-0.64709 0.65066z" fill="none" stroke="#000" stroke-miterlimit="10" stroke-width=".64798"/><path d="m17.286 535.62c-1.431 0-2.5911-1.16-2.5911-2.5946v-7.7765c0-1.43 1.1601-2.591 2.5911-2.591h124.41c1.431 0 2.5947 1.1609 2.5947 2.591v7.7765c0 1.4309-1.1637 2.5946-2.5947 2.5946z" fill="none" stroke="#000" stroke-miterlimit="10" stroke-width=".64798"/><text transform="scale(1 -.99998)" x="55.102432" y="-543.117" fill="#000000" font-family="'Bitstream Vera Sans'" font-size="7.7757px" stroke-width=".89997"><tspan x="55.102432" y="-536.2373"/><tspan x="55.102432" y="-526.31921" font-family="sans-serif" font-size="8px">Frame buffer</tspan></text>
<path d="m363.9 550.75c-2.781 0-5.039-2.258-5.039-5.039v-33.121c0-2.785 2.258-5.039 5.039-5.039h65.52c2.785 0 5.043 2.254 5.043 5.039v33.121c0 2.781-2.258 5.039-5.043 5.039z" fill="none" stroke="#000" stroke-linejoin="round" stroke-miterlimit="10" stroke-width=".72"/><text transform="scale(1,-1)" x="235.52103" y="-625.8811" fill="#000000" font-family="Times" font-size="30px" font-style="italic" letter-spacing="0px" stroke-width=".75px" word-spacing="0px" style="line-height:125%" xml:space="preserve"><tspan x="235.52103" y="-601.64105" stroke-width=".75px"/></text>
<text transform="scale(1 -.99998)" x="252.17549" y="-619.61707" fill="#000000" font-family="sans-serif" font-size="10px" letter-spacing="-.375px" stroke-width=".89997" text-align="center" text-anchor="middle"><tspan x="251.98799" y="-619.61707" text-align="center" style="line-height:1">Background</tspan><tspan x="251.98799" y="-604.617" text-align="center" style="line-height:1">subtraction</tspan></text>
<g transform="translate(-8.1572 -3.7078)"><path d="m457.56 104.64c0-14.051-16.59-25.442-37.055-25.442s-37.055 11.391-37.055 25.442c0 14.05 16.59 25.441 37.055 25.441s37.055-11.391 37.055-25.441" fill="#bf6100" fill-rule="evenodd"/><path d="m455.02 107.81c0-14.05-16.59-25.441-37.055-25.441s-37.059 11.391-37.059 25.441c0 14.051 16.594 25.442 37.059 25.442s37.055-11.391 37.055-25.442" fill="#ffd600" fill-rule="evenodd"/><path d="m455.02 107.81c0-14.051-16.59-25.442-37.055-25.442s-37.059 11.391-37.059 25.442c0 14.051 16.594 25.441 37.059 25.441s37.055-11.39 37.055-25.441z" fill="none" stroke="#000" stroke-miterlimit="10" stroke-width=".72"/><text transform="scale(1 -.99998)" x="417.60416" y="-112.65308" fill="#000000" font-family="sans-serif" font-size="10px" letter-spacing="-.375px" stroke-width=".89997" text-align="center" text-anchor="middle"><tspan x="417.41666" y="-112.65308" text-align="center" style="line-height:1">Background</tspan><tspan x="417.41666" y="-97.653046" text-align="center" style="line-height:1">subtraction</tspan></text>
</g><path d="m474.65 188.17 12.462-0.14831 0.14831-83.331-31.981 0.14831" fill="none" marker-end="url(#g)" stroke="#8f0000" stroke-dasharray="2.8799999, 2.8799999" stroke-linejoin="round" stroke-miterlimit="10" stroke-width="1.44"/><g fill="#000000"><text transform="scale(1 -.99998)" x="395.93402" y="-526.43799" font-family="'Bitstream Vera Sans'" font-size="12px" stroke-width=".89997" text-align="center" text-anchor="middle"><tspan x="395.93402" y="-526.43799" font-family="sans-serif" font-size="12px" stroke-width=".89997" text-align="center" text-anchor="middle" style="line-height:1">Filter</tspan></text>
<text transform="scale(1 -.99998)" x="252.09027" y="-450.2204" font-family="sans-serif" font-size="10px" letter-spacing="-.375px" stroke-width=".89997" text-align="center" text-anchor="middle"><tspan x="251.90277" y="-450.2204" dx="0" text-align="center" style="line-height:9.60002232px">Image</tspan><tspan x="251.90277" y="-435.22037" text-align="center" style="line-height:9.60002232px">segmentation</tspan></text>
<text transform="scale(1,-1)" x="684.01953" y="-523.8418" font-family="Times" font-size="30px" font-style="italic" letter-spacing="0px" stroke-width=".75px" word-spacing="0px" style="line-height:125%" xml:space="preserve"><tspan x="684.01953" y="-499.60175" stroke-width=".75px"/></text><g stroke-width=".89997" text-anchor="middle">
<text transform="scale(1 -.99998)" x="252.68353" y="-105.1529" font-family="'Bitstream Vera Sans'" font-size="12px" text-align="center"><tspan x="252.42104" y="-105.1529" font-family="sans-serif" font-size="10px" letter-spacing="-.525px" stroke-width=".89997" text-align="center" text-anchor="middle" style="line-height:1">Measurements</tspan></text>
<text transform="scale(1 -.99998)" x="81.284081" y="-104.09394" font-family="'Bitstream Vera Sans'" font-size="12px" text-align="center"><tspan x="81.284081" y="-104.09394" font-family="sans-serif" font-size="12px" stroke-width=".89997" text-align="center" text-anchor="middle" style="line-height:1">PSF model</tspan></text>
<text transform="scale(1 -.99998)" x="252.98013" y="-535.33691" font-family="sans-serif" font-size="10px" letter-spacing="-.375px" text-align="center"><tspan x="252.79263" y="-535.33691" text-align="center" style="line-height:1">Image</tspan><tspan x="252.79263" y="-520.33685" text-align="center" style="line-height:1">filtering</tspan></text>
<text transform="scale(1 -.99998)" x="251.79366" y="-358.24756" font-family="sans-serif" font-size="12px" letter-spacing="-.375px" text-align="center"><tspan x="251.60616" y="-358.24756" text-align="center" style="line-height:1">Pixel</tspan><tspan x="251.60616" y="-343.24753" text-align="center" style="line-height:1">stack</tspan></text>
<text transform="scale(1 -.99998)" x="79.754128" y="-357.65433" font-family="'Bitstream Vera Sans'" font-size="12px" text-align="center"><tspan x="79.566628" y="-357.65433" font-family="sans-serif" font-size="10px" letter-spacing="-.375px" stroke-width=".89997" text-align="center" text-anchor="middle" style="line-height:1">De-blending</tspan></text>
<text transform="scale(1 -.99998)" x="83.610184" y="-192.71001" font-family="sans-serif" font-size="10px" letter-spacing="-.375px" text-align="center"><tspan x="83.422684" y="-192.71001" text-align="center" style="line-height:1">"Cleaning" of</tspan><tspan x="83.422684" y="-177.70998" text-align="center" style="line-height:1">detections</tspan></text>
<text transform="scale(1 -.99998)" x="252.38689" y="-278.15689" font-family="sans-serif" font-size="10px" letter-spacing="-.375px" text-align="center"><tspan x="252.19939" y="-278.15689" text-align="center" style="line-height:1">Isophotal</tspan><tspan x="252.19939" y="-263.15686" text-align="center" style="line-height:1">analysis</tspan></text>
<text transform="scale(1 -.99998)" x="251.79367" y="-34.325329" font-family="sans-serif" font-size="10px" letter-spacing="-.6px" text-align="center"><tspan x="251.49367" y="-34.325329" text-align="center" style="line-height:1">Cross-</tspan><tspan x="251.49367" y="-19.325296" text-align="center" style="line-height:1">matching</tspan></text>
<text transform="scale(1 -.99998)" x="72.939201" y="-26.376337" font-family="'Bitstream Vera Sans'" font-size="12px" text-align="center"><tspan x="72.564201" y="-26.376337" font-family="sans-serif" font-size="10px" letter-spacing="-.75px" stroke-width=".89997" text-align="center" text-anchor="middle" style="line-height:0">Input catalog</tspan></text>
<text transform="scale(1 -.99998)" x="417.89346" y="-25.166367" font-family="'Bitstream Vera Sans'" font-size="12px" text-align="center"><tspan x="417.44345" y="-25.166367" font-family="sans-serif" font-size="10px" letter-spacing="-.9px" stroke-width=".89997" text-align="center" text-anchor="middle" style="line-height:1">Output catalog</tspan></text>
<text transform="scale(1 -.99998)" x="251.82513" y="-188.42168" font-family="sans-serif" font-size="12px" letter-spacing="-.375px" text-align="center"><tspan x="251.63763" y="-188.42168" text-align="center" style="line-height:1">Object</tspan><tspan x="251.63763" y="-173.42165" text-align="center" style="line-height:1">stack</tspan></text>
</g></g></g></svg>
