<?xml version="1.0" encoding="UTF-8"?>
<!-- Created with Inkscape (http://www.inkscape.org/) -->
<svg width="1485.1" height="684.41" version="1.1" viewBox="0 0 1485.0592 684.40887" xml:space="preserve" xmlns="http://www.w3.org/2000/svg" xmlns:cc="http://creativecommons.org/ns#" xmlns:dc="http://purl.org/dc/elements/1.1/" xmlns:rdf="http://www.w3.org/1999/02/22-rdf-syntax-ns#"><metadata><rdf:RDF><cc:Work rdf:about=""><dc:format>image/svg+xml</dc:format><dc:type rdf:resource="http://purl.org/dc/dcmitype/StillImage"/><dc:title/></cc:Work></rdf:RDF></metadata><g transform="matrix(1.3333 0 0 -1.3333 -42.756 733.64)"><g transform="matrix(.1 0 0 .1 0 1.2578)"><g fill="none" stroke="#000" stroke-linejoin="round" stroke-miterlimit="10" stroke-width="6.6667"><path d="m888 876h4550.4v4550.4h-4550.4v-4550.4h4550.4m-4550.4 0h4550.4"/><path d="m888 876v122.4"/><path d="m720 700.8h103.2m45.602 45.597 7.199-4.796-7.199-7.204-4.801 7.204v4.796l4.801 12 7.199 7.204 16.801 4.796h24l16.801-4.796 4.796-7.204 7.204-12v-12l-7.204-9.597-16.796-12-28.801-12-12-4.801-12-12-4.801-16.801v-19.199m52.801 122.4 12-4.796 4.801-7.204 4.796-12v-12l-4.796-9.597-16.801-12-24-12m-28.801-40.801l4.801 7.199h12l28.801-12h19.199l9.597 4.801 7.204 7.199m-64.801 0l28.801-19.199h24l4.796 7.199 7.204 12v9.602m69.598 93.597-19.2-4.796-9.602-19.204-7.199-28.796v-16.801l7.199-28.801 9.602-16.801 19.2-7.199h9.6l19.2 7.199 9.6 16.801 7.2 28.801v16.801l-7.2 28.796-9.6 19.204-19.2 4.796h-9.6l-12-4.796-7.2-7.204-4.801-12-4.801-28.796v-16.801l4.801-28.801 4.801-12 7.2-4.801 12-7.199m9.6 0 12 7.199 7.2 4.801 4.8 12 4.8 28.801v16.801l-4.8 28.796-4.8 12-7.2 7.204-12 4.796"/><path d="m1116 876v60m225.6-60v60m228-60v60m228-60v60m228-60v122.4"/><path d="m1857.6 700.8h103.2m57.6 45.597 12 7.204 16.8 16.796v-122.4m-4.8 117.6v-117.6m-24 0h52.8m81.6 122.4-16.8-4.796-12-19.204-7.2-28.796v-16.801l7.2-28.801 12-16.801 16.8-7.199h12l16.8 7.199 12 16.801 4.8 28.801v16.801l-4.8 28.796-12 19.204-16.8 4.796h-12l-12-4.796-4.8-7.204-7.2-12-4.8-28.796v-16.801l4.8-28.801 7.2-12 4.8-4.801 12-7.199m12 0 9.6 7.199 7.2 4.801 4.8 12 7.2 28.801v16.801l-7.2 28.796-4.8 12-7.2 7.204-9.6 4.796"/><path d="m2253.6 876v60m225.6-60v60m228-60v60m228-60v60m228-60v122.4"/><path d="m3156 770.4-16.8-4.796-12-19.204-4.8-28.796v-16.801l4.8-28.801 12-16.801 16.8-7.199h12l16.8 7.199 12 16.801 7.2 28.801v16.801l-7.2 28.796-12 19.204-16.8 4.796h-12l-9.6-4.796-7.2-7.204-4.8-12-7.2-28.796v-16.801l7.2-28.801 4.8-12 7.2-4.801 9.6-7.199m12 0 12 7.199 4.8 4.801 7.2 12 4.8 28.801v16.801l-4.8 28.796-7.2 12-4.8 7.204-12 4.796"/><path d="m3391.2 876v60m228-60v60m225.6-60v60m228-60v60m228-60v122.4"/><path d="m4219.2 746.4 12 7.204 16.8 16.796v-122.4m-4.8 117.6v-117.6m-24 0h52.8m81.6 122.4-19.2-4.796-9.6-19.204-7.2-28.796v-16.801l7.2-28.801 9.6-16.801 19.2-7.199h9.6l19.2 7.199 9.6 16.801 7.2 28.801v16.801l-7.2 28.796-9.6 19.204-19.2 4.796h-9.6l-12-4.796-7.2-7.204-4.8-12-4.8-28.796v-16.801l4.8-28.801 4.8-12 7.2-4.801 12-7.199m9.6 0 12 7.199 7.2 4.801 4.8 12 4.8 28.801v16.801l-4.8 28.796-4.8 12-7.2 7.204-12 4.796"/><path d="m4528.8 876v60m228-60v60m225.6-60v60m228-60v60m228-60v122.4"/><path d="m5347.2 746.4 4.8-4.796-4.8-7.204-7.2 7.204v4.796l7.2 12 4.8 7.204 16.8 4.796h24l16.8-4.796 4.8-7.204 7.2-12v-12l-7.2-9.597-16.8-12-28.8-12-12-4.801-9.6-12-7.2-16.801v-19.199m52.8 122.4 12-4.796 4.8-7.204 4.8-12v-12l-4.8-9.597-16.8-12-24-12m-28.8-40.801l7.2 7.199h9.6l28.8-12h19.2l9.6 4.801 7.2 7.199m-64.8 0 28.8-19.199h24l4.8 7.199 7.2 12v9.602m69.6 93.597-19.2-4.796-9.6-19.204-7.2-28.796v-16.801l7.2-28.801 9.6-16.801 19.2-7.199h12l16.8 7.199 12 16.801 4.8 28.801v16.801l-4.8 28.796-12 19.204-16.8 4.796h-12l-12-4.796-7.2-7.204-4.8-12-4.8-28.796v-16.801l4.8-28.801 4.8-12 7.2-4.801 12-7.199m12 0 9.6 7.199 7.2 4.801 4.8 12 7.2 28.801v16.801l-7.2 28.796-4.8 12-7.2 7.204-9.6 4.796"/><path d="m888 5426.4h4550.4"/><path d="m888 5426.4v-122.4m228 122.4v-62.4m225.6 62.4v-62.4m228 62.4v-62.4m228 62.4v-62.4m228 62.4v-122.4m228 122.4v-62.4m225.6 62.4v-62.4m228 62.4v-62.4m228 62.4v-62.4m228 62.4v-122.4m228 122.4v-62.4m228 62.4v-62.4m225.6 62.4v-62.4m228 62.4v-62.4m228 62.4v-122.4"/><path d="m4528.8 5426.4v-62.4m228 62.4v-62.4m225.6 62.4v-62.4m228 62.4v-62.4m228 62.4v-122.4m-4550.4-4428v4550.4"/><path d="m888 876h122.4"/><path d="m717.6 936-16.801-4.801-12-19.199-4.801-28.801v-16.801l4.801-28.796 12-16.801 16.801-7.199h12l16.796 7.199 12 16.801 7.204 28.796v16.801l-7.204 28.801-12 19.199-16.796 4.801h-12l-9.602-4.801-7.199-7.199-4.801-12-7.199-28.801v-16.801l7.199-28.796 4.801-12 7.199-4.801 9.602-7.199m12 0 12 7.199 4.796 4.801 7.204 12 4.796 28.796v16.801l-4.796 28.801-7.204 12-4.796 7.199-12 4.801"/><path d="m888 1159.2h60m-60 285.6h60m-60 283.2h60m-60 285.6h122.4"/><path d="m573.6 2049.6 7.199-4.8-7.199-4.8-4.801 4.8v4.8l4.801 12 7.199 7.2 16.801 4.8h24l16.796-4.8 4.801-7.2 7.199-12v-9.6l-7.199-12-16.801-12-28.796-12-12-4.8-12-12-4.801-16.8v-16.8m52.801 120 9.597-4.8 7.199-7.2 4.801-12v-9.6l-4.801-12-16.796-12-24-12m-28.801-40.8 4.801 7.2h12l28.796-12h16.801l12 4.8 7.199 7.2m-64.796 0 28.796-16.8h24l4.801 4.8 7.199 12v12m67.204 91.2-16.801-4.8-12-19.2l-4.801-28.8v-16.8l4.801-28.8 12-16.8 16.801-4.8h12l16.796 4.8 12 16.8 7.204 28.8v16.8l-7.204 28.8-12 19.2-16.796 4.8h-12l-9.602-4.8-7.199-7.2-4.801-12-7.199-28.8v-16.8l7.199-28.8 4.801-12 7.199-4.8 9.602-4.8m12 0 12 4.8 4.796 4.8 7.204 12 4.796 28.8v16.8l-4.796 28.8-7.204 12-4.796 7.2-12 4.8"/><path d="m888 2296.8h60m-60 285.6h60m-60 283.2h60m-60 285.6h122.4"/><path d="m621.6 3199.2v-108m4.796 120v-120m0 120-64.796-86.4h93.597m-52.801-33.6h40.801m74.403 120-16.801-4.8-12-16.8-4.801-28.8v-19.2l4.801-28.8 12-16.8 16.801-4.8h12l16.796 4.8 12 16.8 7.204 28.8v19.2l-7.204 28.8-12 16.8-16.796 4.8h-12l-9.602-4.8-7.199-7.2-4.801-9.6-7.199-28.8v-19.2l7.199-28.8 4.801-12 7.199-4.8 9.602-4.8m12 0 12 4.8 4.796 4.8 7.204 12 4.796 28.8v19.2l-4.796 28.8-7.204 9.6-4.796 7.2-12 4.8"/><path d="m888 3434.4h60m-60 285.6h60m-60 283.2h60m-60 285.6h122.4"/><path d="m638.4 4332-7.199-4.8 7.199-7.2 4.801 7.2v4.8l-4.801 12-12 4.8h-16.796l-19.204-4.8-9.597-12-7.199-12-4.801-21.6v-36l4.801-16.8 12-12 16.796-4.8h12l16.801 4.8 12 12 7.199 16.8v4.8l-7.199 19.2-12 12-16.801 4.8h-4.796l-19.204-4.8-9.597-12-7.199-19.2m36 81.6-12-4.8-12-12-4.801-12-7.199-21.6v-36l7.199-16.8 9.597-12 12-4.8m12 0 12 4.8 12 12 4.801 16.8v4.8l-4.801 19.2-12 12-12 4.8m103.2 45.6-16.801-4.8-12-16.8-4.801-28.8v-19.2l4.801-28.8 12-16.8 16.801-4.8h12l16.796 4.8 12 16.8 7.204 28.8v19.2l-7.204 28.8-12 16.8-16.796 4.8h-12l-9.602-4.8-7.199-7.2-4.801-9.6-7.199-28.8v-19.2l7.199-28.8 4.801-12 7.199-4.8 9.602-4.8m12 0 12 4.8 4.796 4.8 7.204 12 4.796 28.8v19.2l-4.796 28.8-7.204 9.6-4.796 7.2-12 4.8"/><path d="m888 4572h60m-60 285.6h60m-60 285.6h60m-60 283.2h122.4"/><path d="m597.6 5486.4-16.801-4.8-7.199-12v-16.8l7.199-12 16.801-4.8h24l16.796 4.8 4.801 12v16.8l-4.801 12-16.796 4.8h-24l-12-4.8-4.801-12v-16.8l4.801-12 12-4.8m24 0 9.597 4.8 7.199 12v16.8l-7.199 12-9.597 4.8m-24-50.4-16.801-7.2-7.199-4.8-4.801-12v-24l4.801-9.6 7.199-7.2 16.801-4.8h24l16.796 4.8 4.801 7.2 7.199 9.6v24l-7.199 12-4.801 4.8-16.796 7.2m-24 0-12-7.2-4.801-4.8-7.199-12v-24l7.199-9.6 4.801-7.2 12-4.8m24 0 9.597 4.8 7.199 7.2 4.801 9.6v24l-4.801 12-7.199 4.8-9.597 7.2m96 50.4-16.801-4.8-12-16.8l-4.801-28.8v-19.2l4.801-28.8 12-16.8"/><path d="m700.8 5371.2 16.801-4.8h12l16.796 4.8 12 16.8 7.204 28.8v19.2l-7.204 28.8-12 16.8-16.796 4.8h-12l-9.602-4.8-7.199-7.2-4.801-9.6-7.199-28.8v-19.2l7.199-28.8 4.801-9.6 7.199-7.2 9.602-4.8m12 0 12 4.8 4.796 7.2 7.204 9.6 4.796 28.8v19.2l-4.796 28.8-7.204 9.6-4.796 7.2-12 4.8"/><path d="m5438.4 876v4550.4"/><path d="m5438.4 876h-122.4m122.4 283.2h-62.4m62.4 285.6h-62.4m62.4 283.2h-62.4m62.4 285.6h-122.4m122.4 283.2h-62.4m62.4 285.6h-62.4m62.4 283.2h-62.4m62.4 285.6h-122.4m122.4 283.2h-62.4m62.4 285.6h-62.4m62.4 283.2h-62.4m62.4 285.6h-122.4m122.4 283.2h-62.4m62.4 285.6h-62.4m62.4 285.6h-62.4m62.4 283.2h-122.4"/><path d="m2776.8 520.8-48-122.4m48 122.4 45.6-122.4m-45.6 105.6 38.4-105.6m-79.2 7.204h79.2m-86.4-7.204h93.6"/><path d="m2846.4 480 48-81.602m-43.2 81.602 48-81.602m16.8 81.602-86.4-81.602m4.8 81.602h36m21.6 0h36m-110.4-81.602h36m21.6 0h36"/><path d="m3064.8 544.8v-184.8m4.8 184.8v-184.8m-4.8 184.8h40.8m-40.8-184.8h40.8m45.6 120v-81.602m4.8 81.602v-81.602m0 64.801 12 12 16.8 4.801h12l19.2-4.801 4.8-12v-64.801m-24 81.602 12-4.801 7.2-12v-64.801m4.8 64.801 12 12 16.8 4.801h12l16.8-4.801 4.8-12v-64.801m-21.6 81.602 12-4.801 4.8-12v-64.801m-144 81.602h21.6m-21.6-81.602h40.8m21.6 0h40.8m24 0h40.8m38.4 69.602v-4.801h-4.8v4.801l4.8 7.199 12 4.801h24l12-4.801 4.8-7.199 7.2-9.602v-40.796l4.8-12 4.8-7.204m-16.8 69.602v-50.398l7.2-12 9.6-7.204h7.2m-24 60-4.8-7.199-36-4.801-16.8-7.199-4.8-12v-9.597l4.8-12 16.8-7.204h19.2l9.6 7.204 12 12m-40.8 28.796-12-7.199-4.8-12v-9.597l4.8-12 12-7.204m151.2 69.602l4.8 12v-21.602l-4.8 9.602-7.2 7.199-9.6 4.801h-24l-12-4.801-4.8-7.199v-9.602l4.8-7.199 12-4.801 28.8-12 12-7.199 4.8-4.801m-62.4 40.801 4.8-4.801 12-7.199 28.8-12 12-4.801 4.8-7.199v-16.801l-4.8-4.796-12-7.204h-24l-9.6 7.204-7.2 4.796-4.8 12v-24l4.8 12m127.2 134.4v-184.8m7.2 184.8v-184.8m-40.8 184.8h40.8m-40.8-184.8h40.8"/><path d="m324 3110.4 122.4-24m-122.4 31.2l110.4 45.6m-98.398-48 110.4 45.6m-122.4 24 122.4-24m-122.4-67.2v24m0 50.4v36m122.4-134.4v33.6"/></g><path d="m888 876h62.398v55.199h21.602v-55.199h21.602v55.199h21.598v-55.199h21.6v55.199h19.2v-55.199h21.6v55.199h21.6v-55.199h62.4v55.199h21.6v-55.199h64.8v55.199h21.6v-55.199h105.6v112.8h19.2v-57.602h64.8v-55.199h62.4v55.199h21.6v-55.199h64.8v112.8h21.6v-112.8h19.2v55.199h21.6v-55.199h127.2v112.8h43.2v-57.602h21.6v-55.199h19.2v55.199h64.8v-55.199h62.4v55.199h21.6v172.8h21.6v-228h62.4v55.199h21.6v115.2h21.6v-115.2h43.2v-55.199h40.8v55.199h86.4v57.602h19.2v-57.602h21.6v-55.199h21.6v55.199h43.2v115.2h19.2v-57.599h43.2v-57.602h21.6v172.8h21.6v-172.8h21.6v57.602h19.2v57.599h21.6v112.8h21.6v-170.4h43.2v-57.602h19.2v228h21.6v-112.8h21.6v57.6h21.6v55.2h43.2v170.4h19.2v-55.2h21.6v225.6h21.6v-225.6h21.6v-57.6h21.6v112.8h19.2v-112.8h21.6v511.2h21.6v-170.4h21.6v57.6h21.6v-115.2h21.6v-170.4h19.2v398.4h43.2v285.6h21.6v-340.8h21.6v55.2h19.2v170.4h21.6v-225.6h21.6v225.6h21.6v-55.2h21.6v-57.6h21.6v-170.4h19.2v112.8h21.6v-340.8h21.6v57.6h21.6v-57.6h21.6v-57.6h19.2v57.6h21.6v-57.6h21.6v-55.2h43.2v-115.2h19.2v57.6h21.6v112.8h21.6v-283.2h21.6v112.8h21.6v57.6h21.6v-112.8h40.8v-115.2h21.6v-57.602h21.6v172.8h21.6v55.2h19.2v-170.4h64.8v-57.602h21.6v115.2h21.6v-115.2h19.2v-55.199h21.6v112.8h21.6v-112.8h21.6v228h21.6v-115.2h19.2v-57.602h64.8v57.602h21.6v-112.8h21.6v112.8h19.2v-112.8h21.6v170.4h43.2v-57.599h21.6v-57.602h40.8v-55.199h105.6v112.8h21.6v-112.8h21.6v55.199h43.2v115.2h21.6v-170.4h40.8v55.199h43.2v-55.199h40.8v55.199h43.2v57.602h21.6v-112.8h43.2v55.199h19.2v-55.199h170.4v55.199h21.6v-55.199h21.6v55.199h19.2v-55.199h43.2v55.199h43.2v-55.199h105.6v55.199h62.4v-55.199h64.8v55.199h40.8v-55.199h170.4-4550.4" fill-rule="evenodd"/></g><g transform="translate(607.08 1.2578)"><g transform="matrix(.1 0 0 .1 -15.233 0)"><g fill="none" stroke="#000" stroke-linejoin="round" stroke-miterlimit="10" stroke-width="6.6667"><path d="m888 876h4550.4v4550.4h-4550.4v-4550.4h4550.4m-4550.4 0h4550.4"/><path d="m888 876v122.4"/><path d="m720 700.8h103.2m45.602 45.597 7.199-4.796-7.199-7.204-4.801 7.204v4.796l4.801 12 7.199 7.204 16.801 4.796h24l16.801-4.796 4.796-7.204 7.204-12v-12l-7.204-9.597-16.796-12-28.801-12-12-4.801-12-12-4.801-16.801v-19.199m52.801 122.4 12-4.796 4.801-7.204 4.796-12v-12l-4.796-9.597-16.801-12-24-12m-28.801-40.801l4.801 7.199h12l28.801-12h19.199l9.597 4.801 7.204 7.199m-64.801 0l28.801-19.199h24l4.796 7.199 7.204 12v9.602m69.598 93.597-19.2-4.796-9.602-19.204-7.199-28.796v-16.801l7.199-28.801 9.602-16.801 19.2-7.199h9.6l19.2 7.199 9.6 16.801 7.2 28.801v16.801l-7.2 28.796-9.6 19.204-19.2 4.796h-9.6l-12-4.796-7.2-7.204-4.801-12-4.801-28.796v-16.801l4.801-28.801 4.801-12 7.2-4.801 12-7.199m9.6 0 12 7.199 7.2 4.801 4.8 12 4.8 28.801v16.801l-4.8 28.796-4.8 12-7.2 7.204-12 4.796"/><path d="m1116 876v60m225.6-60v60m228-60v60m228-60v60m228-60v122.4"/><path d="m1857.6 700.8h103.2m57.6 45.597 12 7.204 16.8 16.796v-122.4m-4.8 117.6v-117.6m-24 0h52.8m81.6 122.4-16.8-4.796-12-19.204-7.2-28.796v-16.801l7.2-28.801 12-16.801 16.8-7.199h12l16.8 7.199 12 16.801 4.8 28.801v16.801l-4.8 28.796-12 19.204-16.8 4.796h-12l-12-4.796-4.8-7.204-7.2-12-4.8-28.796v-16.801l4.8-28.801 7.2-12 4.8-4.801 12-7.199m12 0 9.6 7.199 7.2 4.801 4.8 12 7.2 28.801v16.801l-7.2 28.796-4.8 12-7.2 7.204-9.6 4.796"/><path d="m2253.6 876v60m225.6-60v60m228-60v60m228-60v60m228-60v122.4"/><path d="m3156 770.4-16.8-4.796-12-19.204-4.8-28.796v-16.801l4.8-28.801 12-16.801 16.8-7.199h12l16.8 7.199 12 16.801 7.2 28.801v16.801l-7.2 28.796-12 19.204-16.8 4.796h-12l-9.6-4.796-7.2-7.204-4.8-12-7.2-28.796v-16.801l7.2-28.801 4.8-12 7.2-4.801 9.6-7.199m12 0 12 7.199 4.8 4.801 7.2 12 4.8 28.801v16.801l-4.8 28.796-7.2 12-4.8 7.204-12 4.796"/><path d="m3391.2 876v60m228-60v60m225.6-60v60m228-60v60m228-60v122.4"/><path d="m4219.2 746.4 12 7.204 16.8 16.796v-122.4m-4.8 117.6v-117.6m-24 0h52.8m81.6 122.4-19.2-4.796-9.6-19.204-7.2-28.796v-16.801l7.2-28.801 9.6-16.801 19.2-7.199h9.6l19.2 7.199 9.6 16.801 7.2 28.801v16.801l-7.2 28.796-9.6 19.204-19.2 4.796h-9.6l-12-4.796-7.2-7.204-4.8-12-4.8-28.796v-16.801l4.8-28.801 4.8-12 7.2-4.801 12-7.199m9.6 0 12 7.199 7.2 4.801 4.8 12 4.8 28.801v16.801l-4.8 28.796-4.8 12-7.2 7.204-12 4.796"/><path d="m4528.8 876v60m228-60v60m225.6-60v60m228-60v60m228-60v122.4"/><path d="m5347.2 746.4 4.8-4.796-4.8-7.204-7.2 7.204v4.796l7.2 12 4.8 7.204 16.8 4.796h24l16.8-4.796 4.8-7.204 7.2-12v-12l-7.2-9.597-16.8-12-28.8-12-12-4.801-9.6-12-7.2-16.801v-19.199m52.8 122.4 12-4.796 4.8-7.204 4.8-12v-12l-4.8-9.597-16.8-12-24-12m-28.8-40.801l7.2 7.199h9.6l28.8-12h19.2l9.6 4.801 7.2 7.199m-64.8 0 28.8-19.199h24l4.8 7.199 7.2 12v9.602m69.6 93.597-19.2-4.796-9.6-19.204-7.2-28.796v-16.801l7.2-28.801 9.6-16.801 19.2-7.199h12l16.8 7.199 12 16.801 4.8 28.801v16.801l-4.8 28.796-12 19.204-16.8 4.796h-12l-12-4.796-7.2-7.204-4.8-12-4.8-28.796v-16.801l4.8-28.801 4.8-12 7.2-4.801 12-7.199m12 0 9.6 7.199 7.2 4.801 4.8 12 7.2 28.801v16.801l-7.2 28.796-4.8 12-7.2 7.204-9.6 4.796"/><path d="m888 5426.4h4550.4"/><path d="m888 5426.4v-122.4m228 122.4v-62.4m225.6 62.4v-62.4m228 62.4v-62.4m228 62.4v-62.4m228 62.4v-122.4m228 122.4v-62.4m225.6 62.4v-62.4m228 62.4v-62.4m228 62.4v-62.4m228 62.4v-122.4m228 122.4v-62.4m228 62.4v-62.4m225.6 62.4v-62.4m228 62.4v-62.4m228 62.4v-122.4"/><path d="m4528.8 5426.4v-62.4m228 62.4v-62.4m225.6 62.4v-62.4m228 62.4v-62.4m228 62.4v-122.4m-4550.4-4428v4550.4"/><path d="m888 876h122.4"/><path d="m717.6 936-16.801-4.801-12-19.199-4.801-28.801v-16.801l4.801-28.796 12-16.801 16.801-7.199h12l16.796 7.199 12 16.801 7.204 28.796v16.801l-7.204 28.801-12 19.199-16.796 4.801h-12l-9.602-4.801-7.199-7.199-4.801-12-7.199-28.801v-16.801l7.199-28.796 4.801-12 7.199-4.801 9.602-7.199m12 0 12 7.199 4.796 4.801 7.204 12 4.796 28.796v16.801l-4.796 28.801-7.204 12-4.796 7.199-12 4.801"/><path d="m888 1159.2h60m-60 285.6h60m-60 283.2h60m-60 285.6h122.4"/><path d="m573.6 2049.6 7.199-4.8-7.199-4.8-4.801 4.8v4.8l4.801 12 7.199 7.2 16.801 4.8h24l16.796-4.8 4.801-7.2 7.199-12v-9.6l-7.199-12-16.801-12-28.796-12-12-4.8-12-12-4.801-16.8v-16.8m52.801 120 9.597-4.8 7.199-7.2 4.801-12v-9.6l-4.801-12-16.796-12-24-12m-28.801-40.8 4.801 7.2h12l28.796-12h16.801l12 4.8 7.199 7.2m-64.796 0 28.796-16.8h24l4.801 4.8 7.199 12v12m67.204 91.2-16.801-4.8-12-19.2l-4.801-28.8v-16.8l4.801-28.8 12-16.8 16.801-4.8h12l16.796 4.8 12 16.8 7.204 28.8v16.8l-7.204 28.8-12 19.2-16.796 4.8h-12l-9.602-4.8-7.199-7.2-4.801-12-7.199-28.8v-16.8l7.199-28.8 4.801-12 7.199-4.8 9.602-4.8m12 0 12 4.8 4.796 4.8 7.204 12 4.796 28.8v16.8l-4.796 28.8-7.204 12-4.796 7.2-12 4.8"/><path d="m888 2296.8h60m-60 285.6h60m-60 283.2h60m-60 285.6h122.4"/><path d="m621.6 3199.2v-108m4.796 120v-120m0 120-64.796-86.4h93.597m-52.801-33.6h40.801m74.403 120-16.801-4.8-12-16.8-4.801-28.8v-19.2l4.801-28.8 12-16.8 16.801-4.8h12l16.796 4.8 12 16.8 7.204 28.8v19.2l-7.204 28.8-12 16.8-16.796 4.8h-12l-9.602-4.8-7.199-7.2-4.801-9.6-7.199-28.8v-19.2l7.199-28.8 4.801-12 7.199-4.8 9.602-4.8m12 0 12 4.8 4.796 4.8 7.204 12 4.796 28.8v19.2l-4.796 28.8-7.204 9.6-4.796 7.2-12 4.8"/><path d="m888 3434.4h60m-60 285.6h60m-60 283.2h60m-60 285.6h122.4"/><path d="m638.4 4332-7.199-4.8 7.199-7.2 4.801 7.2v4.8l-4.801 12-12 4.8h-16.796l-19.204-4.8-9.597-12-7.199-12-4.801-21.6v-36l4.801-16.8 12-12 16.796-4.8h12l16.801 4.8 12 12 7.199 16.8v4.8l-7.199 19.2-12 12-16.801 4.8h-4.796l-19.204-4.8-9.597-12-7.199-19.2m36 81.6-12-4.8-12-12-4.801-12-7.199-21.6v-36l7.199-16.8 9.597-12 12-4.8m12 0 12 4.8 12 12 4.801 16.8v4.8l-4.801 19.2-12 12-12 4.8m103.2 45.6-16.801-4.8-12-16.8-4.801-28.8v-19.2l4.801-28.8 12-16.8 16.801-4.8h12l16.796 4.8 12 16.8 7.204 28.8v19.2l-7.204 28.8-12 16.8-16.796 4.8h-12l-9.602-4.8-7.199-7.2-4.801-9.6-7.199-28.8v-19.2l7.199-28.8 4.801-12 7.199-4.8 9.602-4.8m12 0 12 4.8 4.796 4.8 7.204 12 4.796 28.8v19.2l-4.796 28.8-7.204 9.6-4.796 7.2-12 4.8"/><path d="m888 4572h60m-60 285.6h60m-60 285.6h60m-60 283.2h122.4"/><path d="m597.6 5486.4-16.801-4.8-7.199-12v-16.8l7.199-12 16.801-4.8h24l16.796 4.8 4.801 12v16.8l-4.801 12-16.796 4.8h-24l-12-4.8-4.801-12v-16.8l4.801-12 12-4.8m24 0 9.597 4.8 7.199 12v16.8l-7.199 12-9.597 4.8m-24-50.4-16.801-7.2-7.199-4.8-4.801-12v-24l4.801-9.6 7.199-7.2 16.801-4.8h24l16.796 4.8 4.801 7.2 7.199 9.6v24l-7.199 12-4.801 4.8-16.796 7.2m-24 0-12-7.2-4.801-4.8-7.199-12v-24l7.199-9.6 4.801-7.2 12-4.8m24 0 9.597 4.8 7.199 7.2 4.801 9.6v24l-4.801 12-7.199 4.8-9.597 7.2m96 50.4-16.801-4.8-12-16.8l-4.801-28.8v-19.2l4.801-28.8 12-16.8"/><path d="m700.8 5371.2 16.801-4.8h12l16.796 4.8 12 16.8 7.204 28.8v19.2l-7.204 28.8-12 16.8-16.796 4.8h-12l-9.602-4.8-7.199-7.2-4.801-9.6-7.199-28.8v-19.2l7.199-28.8 4.801-9.6 7.199-7.2 9.602-4.8m12 0 12 4.8 4.796 7.2 7.204 9.6 4.796 28.8v19.2l-4.796 28.8-7.204 9.6-4.796 7.2-12 4.8"/><path d="m5438.4 876v4550.4"/><path d="m5438.4 876h-122.4m122.4 283.2h-62.4m62.4 285.6h-62.4m62.4 283.2h-62.4m62.4 285.6h-122.4m122.4 283.2h-62.4m62.4 285.6h-62.4m62.4 283.2h-62.4m62.4 285.6h-122.4m122.4 283.2h-62.4m62.4 285.6h-62.4m62.4 283.2h-62.4m62.4 285.6h-122.4m122.4 283.2h-62.4m62.4 285.6h-62.4m62.4 285.6h-62.4m62.4 283.2h-122.4"/><path d="m2776.8 520.8-48-122.4m48 122.4 45.6-122.4m-45.6 105.6 38.4-105.6m-79.2 7.204h79.2m-86.4-7.204h93.6"/><path d="m2846.4 480 48-81.602m-43.2 81.602 48-81.602m16.8 81.602-86.4-81.602m4.8 81.602h36m21.6 0h36m-110.4-81.602h36m21.6 0h36"/><path d="m3064.8 544.8v-184.8m4.8 184.8v-184.8m-4.8 184.8h40.8m-40.8-184.8h40.8m45.6 120v-81.602m4.8 81.602v-81.602m0 64.801 12 12 16.8 4.801h12l19.2-4.801 4.8-12v-64.801m-24 81.602 12-4.801 7.2-12v-64.801m4.8 64.801 12 12 16.8 4.801h12l16.8-4.801 4.8-12v-64.801m-21.6 81.602 12-4.801 4.8-12v-64.801m-144 81.602h21.6m-21.6-81.602h40.8m21.6 0h40.8m24 0h40.8m38.4 69.602v-4.801h-4.8v4.801l4.8 7.199 12 4.801h24l12-4.801 4.8-7.199 7.2-9.602v-40.796l4.8-12 4.8-7.204m-16.8 69.602v-50.398l7.2-12 9.6-7.204h7.2m-24 60-4.8-7.199-36-4.801-16.8-7.199-4.8-12v-9.597l4.8-12 16.8-7.204h19.2l9.6 7.204 12 12m-40.8 28.796-12-7.199-4.8-12v-9.597l4.8-12 12-7.204m151.2 69.602l4.8 12v-21.602l-4.8 9.602-7.2 7.199-9.6 4.801h-24l-12-4.801-4.8-7.199v-9.602l4.8-7.199 12-4.801 28.8-12 12-7.199 4.8-4.801m-62.4 40.801 4.8-4.801 12-7.199 28.8-12 12-4.801 4.8-7.199v-16.801l-4.8-4.796-12-7.204h-24l-9.6 7.204-7.2 4.796-4.8 12v-24l4.8 12m127.2 134.4v-184.8m7.2 184.8v-184.8m-40.8 184.8h40.8m-40.8-184.8h40.8"/><path d="m324 3110.4 122.4-24m-122.4 31.2l110.4 45.6m-98.398-48 110.4 45.6m-122.4 24 122.4-24m-122.4-67.2v24m0 50.4v36m122.4-134.4v33.6"/></g><path d="m888 876h1207.2v55.199h19.2v-55.199h105.6v55.199h21.6v-55.199h21.6v55.199h21.6v-55.199h189.6v55.199h21.6v-55.199h43.2v55.199h21.6v-55.199h40.8v55.199h21.6v-55.199h62.4v55.199h43.2v115.2h21.6v-115.2h21.6v-55.199h84v170.4h21.6v-115.2h21.6v57.602h19.2v-57.602h21.6v228h21.6v-283.2h21.6v624h21.6v-340.8h21.6v1024.8h19.2v-57.6h21.6v568.8h21.6v1195.2h21.6v170.4h21.6v-796.8h19.2v1365.6h21.6v-283.2h21.6v-513.6h21.6v-909.6h43.2v-228h19.2v-626.4h21.6v-794.4h21.6v55.2h21.6v-340.8h21.6v115.2h19.2v-172.8h43.2v-55.199h21.6v55.199h40.8v172.8h21.6v-115.2h43.2v57.599h21.6v-170.4h21.6v55.199h40.8v-55.199h43.2v55.199h21.6v-55.199h105.6v55.199h21.6v-55.199h168v55.199h21.6v-55.199h1418.4-4550.4" fill-rule="evenodd"/></g></g></g></svg>
