<?xml version="1.0" encoding="UTF-8"?>
<svg width="437.98" height="331.21" version="1.1" viewBox="0 0 437.98227 331.20975" xml:space="preserve" xmlns="http://www.w3.org/2000/svg"><g transform="matrix(1.3333 0 0 -1.3333 -96.162 396.93)"><g transform="scale(.1)"><path d="m1040 1850h2920.5m-2655-1124.5v2249" fill="none" stroke="#000" stroke-dasharray="5, 10" stroke-miterlimit="10" stroke-width="1.25"/><path d="m1040 827.5h31.5m2889 0h-31.5" fill="none" stroke="#000" stroke-miterlimit="10" stroke-width="5"/><g transform="scale(10)"><text transform="matrix(1 0 0 -1 86.603 79.75)" fill="#000000" font-family="'DejaVu Sans'" font-size="9px"><tspan x="0 2.997 7.4970002" y="0" font-size="8px">-10</tspan></text>
</g><path d="m1040 1339h31.5m2889 0h-31.5" fill="none" stroke="#000" stroke-miterlimit="10" stroke-width="5"/><g transform="scale(10)"><text transform="matrix(1 0 0 -1 91.103 130.9)" fill="#000000" font-family="'DejaVu Sans'" font-size="9px"><tspan x="0 2.997" y="0" font-size="8px">-5</tspan></text>
</g><path d="m1040 1850h31.5m2889 0h-31.5" fill="none" stroke="#000" stroke-miterlimit="10" stroke-width="5"/><g transform="scale(10)"><text transform="matrix(1,0,0,-1,94.1,182)" fill="#000000" font-family="'DejaVu Sans'" font-size="9px"><tspan x="0" y="0" font-family="'DejaVu Sans'" font-size="8px">0</tspan></text>
</g><path d="m1040 2361h31.5m2889 0h-31.5" fill="none" stroke="#000" stroke-miterlimit="10" stroke-width="5"/><g transform="scale(10)"><text transform="matrix(1,0,0,-1,94.1,233.1)" fill="#000000" font-family="'DejaVu Sans'" font-size="9px"><tspan x="0" y="0" font-family="'DejaVu Sans'" font-size="8px">5</tspan></text>
</g><path d="m1040 2872.5h31.5m2889 0h-31.5" fill="none" stroke="#000" stroke-miterlimit="10" stroke-width="5"/><g transform="scale(10)"><text transform="matrix(1,0,0,-1,89.6,284.25)" fill="#000000" font-family="'DejaVu Sans'" font-size="9px"><tspan x="0 4.5" y="0" font-size="8px">10</tspan></text>
</g><path d="m1305.5 725.5v31.5m0 2217.5v-31.5" fill="none" stroke="#000" stroke-miterlimit="10" stroke-width="5"/><g transform="matrix(10 0 0 10 0 17.798)"><text transform="matrix(1,0,0,-1,128.3,60.55)" fill="#000000" font-family="'DejaVu Sans'" font-size="9px"><tspan x="0" y="0" font-family="'DejaVu Sans'" font-size="8px">0</tspan></text>
</g><path d="m1748 725.5v31.5m0 2217.5v-31.5" fill="none" stroke="#000" stroke-miterlimit="10" stroke-width="5"/><g transform="matrix(10 0 0 10 0 17.798)"><text transform="matrix(1,0,0,-1,172.55,60.55)" fill="#000000" font-family="'DejaVu Sans'" font-size="9px"><tspan x="0" y="0" font-family="'DejaVu Sans'" font-size="8px">5</tspan></text>
</g><path d="m2190.5 725.5v31.5m0 2217.5v-31.5" fill="none" stroke="#000" stroke-miterlimit="10" stroke-width="5"/><g transform="matrix(10 0 0 10 0 17.798)"><text transform="matrix(1,0,0,-1,214.55,60.55)" fill="#000000" font-family="'DejaVu Sans'" font-size="9px"><tspan x="0 4.5" y="0" font-size="8px">10</tspan></text>
</g><path d="m2633 725.5v31.5m0 2217.5v-31.5" fill="none" stroke="#000" stroke-miterlimit="10" stroke-width="5"/><g transform="matrix(10 0 0 10 0 17.798)"><text transform="matrix(1,0,0,-1,258.8,60.55)" fill="#000000" font-family="'DejaVu Sans'" font-size="9px"><tspan x="0 4.5" y="0" font-size="8px">15</tspan></text>
</g><path d="m3075.5 725.5v31.5m0 2217.5v-31.5" fill="none" stroke="#000" stroke-miterlimit="10" stroke-width="5"/><g transform="matrix(10 0 0 10 0 17.798)"><text transform="matrix(1,0,0,-1,303.05,60.55)" fill="#000000" font-family="'DejaVu Sans'" font-size="9px"><tspan x="0 4.5" y="0" font-size="8px">20</tspan></text>
</g><path d="m3518 725.5v31.5m0 2217.5v-31.5" fill="none" stroke="#000" stroke-miterlimit="10" stroke-width="5"/><g transform="matrix(10 0 0 10 0 17.798)"><text transform="matrix(1,0,0,-1,347.3,60.55)" fill="#000000" font-family="'DejaVu Sans'" font-size="9px"><tspan x="0 4.5" y="0" font-size="8px">25</tspan></text>
</g><path d="m3960.5 725.5v31.5m0 2217.5v-31.5" fill="none" stroke="#000" stroke-miterlimit="10" stroke-width="5"/><g transform="matrix(10 0 0 10 0 17.798)"><text transform="matrix(1,0,0,-1,391.55,60.55)" fill="#000000" font-family="'DejaVu Sans'" font-size="9px"><tspan x="0 4.5" y="0" font-size="8px">30</tspan></text>
</g><path d="m1040 725.5h2920.5v2249h-2920.5v-2249" fill="none" stroke="#000" stroke-miterlimit="10" stroke-width="5"/><g transform="scale(10)"><text transform="matrix(0 1 1 0 78.2 145.26)" fill="#000000" font-family="'DejaVu Sans'" font-size="9px"><tspan x="0" y="0" font-size="8px">Clipped Mode (ADU)</tspan></text>
</g><path d="m1040 725.5h2920.5v2249h-2920.5v-2249" fill="none" stroke="#000" stroke-miterlimit="10" stroke-width="5"/><g transform="matrix(10 0 0 10 0 -5.9325)"><text transform="matrix(1 0 0 -1 210.51 51.55)" fill="#000000" font-family="'DejaVu Sans'" font-size="9px"><tspan x="0" y="0" font-size="8px">Clipped Mean (ADU)</tspan></text>
</g><g fill="none" stroke="#000" stroke-miterlimit="10" stroke-width="2.5"><path d="m1310 1818.8v31.5"/><path d="m1294.2 1834.5h31.5"/><path d="m1349 1811.8v31.5"/><path d="m1333.2 1827.5h31.5"/><path d="m1325.5 1878.8v31.5"/><path d="m1309.8 1894.5h31.5"/><path d="m1382.5 1861.8v31.5"/><path d="m1366.8 1877.5h31.5"/><path d="m1344 1829.8v31.5"/><path d="m1328.2 1845.5h31.5"/><path d="m1342 1884.8v31.5"/><path d="m1326.2 1900.5h31.5"/><path d="m1320 1857.2v31.5"/><path d="m1304.2 1873h31.5"/><path d="m2485 1853.8v31.5"/><path d="m2469.2 1869.5h31.5"/><path d="m1245.5 1736.8v31.5"/><path d="m1229.8 1752.5h31.5"/><path d="m1337.5 1865.2v31.5"/><path d="m1321.8 1881h31.5"/><path d="m1371 1871.2v31.5"/><path d="m1355.2 1887h31.5"/><path d="m1338 1860.2v31.5"/><path d="m1322.2 1876h31.5"/><path d="m1376.5 1889.2v31.5"/><path d="m1360.8 1905h31.5"/><path d="m1315 1805.2v31.5"/><path d="m1299.2 1821h31.5"/><path d="m1354 1912.2v31.5"/><path d="m1338.2 1928h31.5"/><path d="m1341 1874.2v31.5"/><path d="m1325.2 1890h31.5"/><path d="m1423.5 1891.8v31.5"/><path d="m1407.8 1907.5h31.5"/><path d="m1363.5 1898.8v31.5"/><path d="m1347.8 1914.5h31.5"/><path d="m1366 1864.2v31.5"/><path d="m1350.2 1880h31.5"/><path d="m1321 1799.2v31.5"/><path d="m1305.2 1815h31.5"/><path d="m1517 1862.2v31.5"/><path d="m1501.2 1878h31.5"/><path d="m1322 1860.8v31.5"/><path d="m1306.2 1876.5h31.5"/><path d="m1292.5 1840.2v31.5"/><path d="m1276.8 1856h31.5"/><path d="m1468 1842.2v31.5"/><path d="m1452.2 1858h31.5"/><path d="m1492.5 1844.8v31.5"/><path d="m1476.8 1860.5h31.5"/><path d="m3851.5 1873.2v31.5"/><path d="m3835.8 1889h31.5"/><path d="m1349 1857.8v31.5"/><path d="m1333.2 1873.5h31.5"/><path d="m1389.5 1854.8v31.5"/><path d="m1373.8 1870.5h31.5"/><path d="m1356.5 1817.8v31.5"/><path d="m1340.8 1833.5h31.5"/><path d="m1329.5 1853.8v31.5"/><path d="m1313.8 1869.5h31.5"/><path d="m1292.5 1817.2v31.5"/><path d="m1276.8 1833h31.5"/><path d="m1662.5 1889.2v31.5"/><path d="m1646.8 1905h31.5"/><path d="m1331.5 1899.2v31.5"/><path d="m1315.8 1915h31.5"/><path d="m1327 1834.2v31.5"/><path d="m1311.2 1850h31.5"/><path d="m1376 1906.8v31.5"/><path d="m1360.2 1922.5h31.5"/><path d="m1743.5 1893.8v31.5"/><path d="m1727.8 1909.5h31.5"/><path d="m1373.5 1800.8v31.5"/><path d="m1357.8 1816.5h31.5"/><path d="m1315.5 1876.2v31.5"/><path d="m1299.8 1892h31.5"/><path d="m1360.5 1836.2v31.5"/><path d="m1344.8 1852h31.5"/><path d="m1407.5 1859.8v31.5"/><path d="m1391.8 1875.5h31.5"/><path d="m1423.5 1862.8v31.5"/><path d="m1407.8 1878.5h31.5"/><path d="m1612.5 1871.2v31.5"/><path d="m1596.8 1887h31.5"/><path d="m1344.5 1812.8v31.5"/><path d="m1328.8 1828.5h31.5"/><path d="m1342 1769.2v31.5"/><path d="m1326.2 1785h31.5"/><path d="m1391 1817.8v31.5"/><path d="m1375.2 1833.5h31.5"/><path d="m1367.5 1848.2v31.5"/><path d="m1351.8 1864h31.5"/><path d="m1437.5 1883.8v31.5"/><path d="m1421.8 1899.5h31.5"/><path d="m1266.5 1771.2v31.5"/><path d="m1250.8 1787h31.5"/><path d="m1285 1823.2v31.5"/><path d="m1269.2 1839h31.5"/><path d="m1577 1902.2v31.5"/><path d="m1561.2 1918h31.5"/><path d="m1355.5 1851.8v31.5"/><path d="m1339.8 1867.5h31.5"/><path d="m1328 1842.2v31.5"/><path d="m1312.2 1858h31.5"/><path d="m1601.5 1876.2v31.5"/><path d="m1585.8 1892h31.5"/><path d="m1440.5 1844.2v31.5"/><path d="m1424.8 1860h31.5"/><path d="m1398.5 1902.2v31.5"/><path d="m1382.8 1918h31.5"/><path d="m1332 1863.8v31.5"/><path d="m1316.2 1879.5h31.5"/><path d="m1419.5 1853.8v31.5"/><path d="m1403.8 1869.5h31.5"/><path d="m1326 1783.2v31.5"/><path d="m1310.2 1799h31.5"/><path d="m2006.5 1827.8v31.5"/><path d="m1990.8 1843.5h31.5"/><path d="m1377.5 1866.8v31.5"/><path d="m1361.8 1882.5h31.5"/><path d="m1821 1815.2v31.5"/><path d="m1805.2 1831h31.5"/><path d="m1292.5 1825.8v31.5"/><path d="m1276.8 1841.5h31.5"/><path d="m1317 1864.2v31.5"/><path d="m1301.2 1880h31.5"/><path d="m2253.5 1838.2v31.5"/><path d="m2237.8 1854h31.5"/><path d="m2211.5 1813.2v31.5"/><path d="m2195.8 1829h31.5"/><path d="m1390.5 1870.2v31.5"/><path d="m1374.8 1886h31.5"/><path d="m1340 1825.8v31.5"/><path d="m1324.2 1841.5h31.5"/><path d="m1601 1772.2v31.5"/><path d="m1585.2 1788h31.5"/><path d="m1334 1800.2v31.5"/><path d="m1318.2 1816h31.5"/><path d="m1379 1896.2v31.5"/><path d="m1363.2 1912h31.5"/><path d="m1325 1837.8v31.5"/><path d="m1309.2 1853.5h31.5"/><path d="m1405.5 1851.8v31.5"/><path d="m1389.8 1867.5h31.5"/><path d="m1345.5 1884.2v31.5"/><path d="m1329.8 1900h31.5"/><path d="m1314 1854.2v31.5"/><path d="m1298.2 1870h31.5"/><path d="m1378.5 1842.8v31.5"/><path d="m1362.8 1858.5h31.5"/><path d="m1345.5 1838.8v31.5"/><path d="m1329.8 1854.5h31.5"/><path d="m1390 1913.2v31.5"/><path d="m1374.2 1929h31.5"/><path d="m2040 1907.8v31.5"/><path d="m2024.2 1923.5h31.5"/><path d="m1292.5 1813.2v31.5"/><path d="m1276.8 1829h31.5"/><path d="m3898 1771.2v31.5"/><path d="m3882.2 1787h31.5"/><path d="m1347.5 1894.2v31.5"/><path d="m1331.8 1910h31.5"/><path d="m1330.5 1803.2v31.5"/><path d="m1314.8 1819h31.5"/><path d="m1464 1919.8v31.5"/><path d="m1448.2 1935.5h31.5"/><path d="m1334 1802.2v31.5"/><path d="m1318.2 1818h31.5"/><path d="m1394 1842.2v31.5"/><path d="m1378.2 1858h31.5"/><path d="m1362 1856.2v31.5"/><path d="m1346.2 1872h31.5"/><path d="m1325 1829.8v31.5"/><path d="m1309.2 1845.5h31.5"/><path d="m1313.5 1795.2v31.5"/><path d="m1297.8 1811h31.5"/><path d="m1552 1893.8v31.5"/><path d="m1536.2 1909.5h31.5"/><path d="m1386.5 1864.8v31.5"/><path d="m1370.8 1880.5h31.5"/><path d="m1356.5 1831.2v31.5"/><path d="m1340.8 1847h31.5"/><path d="m1511.5 1800.2v31.5"/><path d="m1495.8 1816h31.5"/><path d="m1587.5 1771.8v31.5"/><path d="m1571.8 1787.5h31.5"/><path d="m1487.5 1859.2v31.5"/><path d="m1471.8 1875h31.5"/><path d="m1344.5 1814.8v31.5"/><path d="m1328.8 1830.5h31.5"/><path d="m1617 1753.8v31.5"/><path d="m1601.2 1769.5h31.5"/><path d="m1318 1856.8v31.5"/><path d="m1302.2 1872.5h31.5"/><path d="m1426 1900.2v31.5"/><path d="m1410.2 1916h31.5"/><path d="m1412 1938.2v31.5"/><path d="m1396.2 1954h31.5"/><path d="m1371 1889.8v31.5"/><path d="m1355.2 1905.5h31.5"/><path d="m1306.5 1827.8v31.5"/><path d="m1290.8 1843.5h31.5"/><path d="m1345 1818.8v31.5"/><path d="m1329.2 1834.5h31.5"/><path d="m1439 1900.8v31.5"/><path d="m1423.2 1916.5h31.5"/><path d="m1359.5 1886.8v31.5"/><path d="m1343.8 1902.5h31.5"/><path d="m1656 1910.2v31.5"/><path d="m1640.2 1926h31.5"/><path d="m1350.5 1860.8v31.5"/><path d="m1334.8 1876.5h31.5"/><path d="m1460 1871.8v31.5"/><path d="m1444.2 1887.5h31.5"/><path d="m2319 1784.8v31.5"/><path d="m2303.2 1800.5h31.5"/><path d="m1516 1851.8v31.5"/><path d="m1500.2 1867.5h31.5"/><path d="m1336 1807.2v31.5"/><path d="m1320.2 1823h31.5"/><path d="m1433 1855.8v31.5"/><path d="m1417.2 1871.5h31.5"/><path d="m1355 1786.2v31.5"/><path d="m1339.2 1802h31.5"/><path d="m1291.5 1827.2v31.5"/><path d="m1275.8 1843h31.5"/><path d="m1356 1843.8v31.5"/><path d="m1340.2 1859.5h31.5"/><path d="m1425 1898.8v31.5"/><path d="m1409.2 1914.5h31.5"/><path d="m1338 1833.8v31.5"/><path d="m1322.2 1849.5h31.5"/><path d="m1347.5 1806.2v31.5"/><path d="m1331.8 1822h31.5"/><path d="m1357.5 1865.2v31.5"/><path d="m1341.8 1881h31.5"/><path d="m1372.5 1872.2v31.5"/><path d="m1356.8 1888h31.5"/><path d="m1317 1824.8v31.5"/><path d="m1301.2 1840.5h31.5"/><path d="m1349.5 1853.8v31.5"/><path d="m1333.8 1869.5h31.5"/><path d="m1397 1877.2v31.5"/><path d="m1381.2 1893h31.5"/><path d="m1613.5 1852.8v31.5"/><path d="m1597.8 1868.5h31.5"/><path d="m1553.5 1878.8v31.5"/><path d="m1537.8 1894.5h31.5"/><path d="m1598 1879.2v31.5"/><path d="m1582.2 1895h31.5"/><path d="m3428.5 1842.8v31.5"/><path d="m3412.8 1858.5h31.5"/><path d="m1355 1839.2v31.5"/><path d="m1339.2 1855h31.5"/><path d="m1329.5 1816.8v31.5"/><path d="m1313.8 1832.5h31.5"/><path d="m1305.5 1810.8v31.5"/><path d="m1289.8 1826.5h31.5"/><path d="m1561.5 1841.2v31.5"/><path d="m1545.8 1857h31.5"/><path d="m1447 1908.2v31.5"/><path d="m1431.2 1924h31.5"/><path d="m1368.5 1859.8v31.5"/><path d="m1352.8 1875.5h31.5"/><path d="m1437 1815.8v31.5"/><path d="m1421.2 1831.5h31.5"/><path d="m1305.5 1831.8v31.5"/><path d="m1289.8 1847.5h31.5"/><path d="m1362.5 1825.2v31.5"/><path d="m1346.8 1841h31.5"/><path d="m1373 1859.2v31.5"/><path d="m1357.2 1875h31.5"/><path d="m1347.5 1899.8v31.5"/><path d="m1331.8 1915.5h31.5"/><path d="m1327.5 1805.2v31.5"/><path d="m1311.8 1821h31.5"/><path d="m1542 1788.8v31.5"/><path d="m1526.2 1804.5h31.5"/><path d="m1291.5 1802.8v31.5"/><path d="m1275.8 1818.5h31.5"/><path d="m1365 1861.8v31.5"/><path d="m1349.2 1877.5h31.5"/><path d="m1355 1863.2v31.5"/><path d="m1339.2 1879h31.5"/><path d="m1466 1861.8v31.5"/><path d="m1450.2 1877.5h31.5"/><path d="m1512 1883.8v31.5"/><path d="m1496.2 1899.5h31.5"/><path d="m1440.5 1818.2v31.5"/><path d="m1424.8 1834h31.5"/><path d="m1669 1809.8v31.5"/><path d="m1653.2 1825.5h31.5"/><path d="m1420 1867.8v31.5"/><path d="m1404.2 1883.5h31.5"/><path d="m1326 1818.8v31.5"/><path d="m1310.2 1834.5h31.5"/><path d="m1419 1812.2v31.5"/><path d="m1403.2 1828h31.5"/><path d="m1478 1827.2v31.5"/><path d="m1462.2 1843h31.5"/><path d="m2e3 1919.8v31.5"/><path d="m1984.2 1935.5h31.5"/><path d="m1425.5 1828.8v31.5"/><path d="m1409.8 1844.5h31.5"/><path d="m1285 1790.8v31.5"/><path d="m1269.2 1806.5h31.5"/><path d="m1435 1846.2v31.5"/><path d="m1419.2 1862h31.5"/><path d="m1449 1861.8v31.5"/><path d="m1433.2 1877.5h31.5"/><path d="m1340 1861.8v31.5"/><path d="m1324.2 1877.5h31.5"/><path d="m1341 1823.8v31.5"/><path d="m1325.2 1839.5h31.5"/><path d="m1327 1823.2v31.5"/><path d="m1311.2 1839h31.5"/><path d="m2049.5 1848.2v31.5"/><path d="m2033.8 1864h31.5"/><path d="m1375.5 1845.8v31.5"/><path d="m1359.8 1861.5h31.5"/><path d="m1312.5 1794.8v31.5"/><path d="m1296.8 1810.5h31.5"/><path d="m1378.5 1847.2v31.5"/><path d="m1362.8 1863h31.5"/><path d="m1380 1819.8v31.5"/><path d="m1364.2 1835.5h31.5"/><path d="m1302.5 1869.8v31.5"/><path d="m1286.8 1885.5h31.5"/><path d="m1295.5 1809.2v31.5"/><path d="m1279.8 1825h31.5"/><path d="m1370.5 1821.8v31.5"/><path d="m1354.8 1837.5h31.5"/><path d="m1318 1806.2v31.5"/><path d="m1302.2 1822h31.5"/><path d="m1348 1805.2v31.5"/><path d="m1332.2 1821h31.5"/><path d="m1408.5 1841.2v31.5"/><path d="m1392.8 1857h31.5"/><path d="m1350.5 1850.8v31.5"/><path d="m1334.8 1866.5h31.5"/><path d="m1449 1844.8v31.5"/><path d="m1433.2 1860.5h31.5"/><path d="m1386.5 1880.2v31.5"/><path d="m1370.8 1896h31.5"/><path d="m1385.5 1905.8v31.5"/><path d="m1369.8 1921.5h31.5"/><path d="m1369.5 1913.8v31.5"/><path d="m1353.8 1929.5h31.5"/><path d="m1326.5 1858.2v31.5"/><path d="m1310.8 1874h31.5"/><path d="m1405.5 1833.2v31.5"/><path d="m1389.8 1849h31.5"/><path d="m1316 1831.8v31.5"/><path d="m1300.2 1847.5h31.5"/><path d="m1269 1813.8v31.5"/><path d="m1253.2 1829.5h31.5"/><path d="m1326.5 1814.8v31.5"/><path d="m1310.8 1830.5h31.5"/><path d="m1275 1809.8v31.5"/><path d="m1259.2 1825.5h31.5"/><path d="m1501.5 1858.8v31.5"/><path d="m1485.8 1874.5h31.5"/><path d="m1639.5 1848.8v31.5"/><path d="m1623.8 1864.5h31.5"/><path d="m1285.5 1774.8v31.5"/><path d="m1269.8 1790.5h31.5"/><path d="m1335 1848.8v31.5"/><path d="m1319.2 1864.5h31.5"/><path d="m1422.5 1829.8v31.5"/><path d="m1406.8 1845.5h31.5"/><path d="m1400.5 1816.2v31.5"/><path d="m1384.8 1832h31.5"/><path d="m2396 1861.2v31.5"/><path d="m2380.2 1877h31.5"/><path d="m1309.5 1760.2v31.5"/><path d="m1293.8 1776h31.5"/><path d="m1286 1793.8v31.5"/><path d="m1270.2 1809.5h31.5"/><path d="m1300.5 1797.2v31.5"/><path d="m1284.8 1813h31.5"/><path d="m1941.5 1838.2v31.5"/><path d="m1925.8 1854h31.5"/><path d="m1426.5 1844.8v31.5"/><path d="m1410.8 1860.5h31.5"/><path d="m1503 1841.8v31.5"/><path d="m1487.2 1857.5h31.5"/><path d="m1673 1837.8v31.5"/><path d="m1657.2 1853.5h31.5"/><path d="m1402.5 1921.8v31.5"/><path d="m1386.8 1937.5h31.5"/><path d="m1594.5 1868.2v31.5"/><path d="m1578.8 1884h31.5"/><path d="m1398 1828.2v31.5"/><path d="m1382.2 1844h31.5"/><path d="m1322 1785.2v31.5"/><path d="m1306.2 1801h31.5"/><path d="m1364 1821.2v31.5"/><path d="m1348.2 1837h31.5"/><path d="m1321 1833.8v31.5"/><path d="m1305.2 1849.5h31.5"/><path d="m1833 1858.2v31.5"/><path d="m1817.2 1874h31.5"/><path d="m1579.5 1863.2v31.5"/><path d="m1563.8 1879h31.5"/><path d="m1711 1839.8v31.5"/><path d="m1695.2 1855.5h31.5"/><path d="m1378.5 1897.8v31.5"/><path d="m1362.8 1913.5h31.5"/><path d="m1439 1886.2v31.5"/><path d="m1423.2 1902h31.5"/><path d="m1370.5 1889.2v31.5"/><path d="m1354.8 1905h31.5"/><path d="m1419.5 1841.2v31.5"/><path d="m1403.8 1857h31.5"/><path d="m1476 1906.8v31.5"/><path d="m1460.2 1922.5h31.5"/><path d="m1354.5 1862.2v31.5"/><path d="m1338.8 1878h31.5"/><path d="m1326.5 1814.2v31.5"/><path d="m1310.8 1830h31.5"/><path d="m1377 1799.8v31.5"/><path d="m1361.2 1815.5h31.5"/><path d="m2159 1892.2v31.5"/><path d="m2143.2 1908h31.5"/><path d="m1386.5 1888.2v31.5"/><path d="m1370.8 1904h31.5"/><path d="m1331.5 1862.8v31.5"/><path d="m1315.8 1878.5h31.5"/><path d="m1306 1819.8v31.5"/><path d="m1290.2 1835.5h31.5"/><path d="m1439 1820.8v31.5"/><path d="m1423.2 1836.5h31.5"/><path d="m1491 1865.2v31.5"/><path d="m1475.2 1881h31.5"/><path d="m1308.5 1800.8v31.5"/><path d="m1292.8 1816.5h31.5"/><path d="m1487 1831.2v31.5"/><path d="m1471.2 1847h31.5"/><path d="m1322 1833.8v31.5"/><path d="m1306.2 1849.5h31.5"/><path d="m1422.5 1878.8v31.5"/><path d="m1406.8 1894.5h31.5"/><path d="m1423 1889.2v31.5"/><path d="m1407.2 1905h31.5"/><path d="m1957.5 1929.8v31.5"/><path d="m1941.8 1945.5h31.5"/><path d="m1304 1798.2v31.5"/><path d="m1288.2 1814h31.5"/><path d="m1426 1858.8v31.5"/><path d="m1410.2 1874.5h31.5"/><path d="m1363.5 1836.2v31.5"/><path d="m1347.8 1852h31.5"/><path d="m1288.5 1804.8v31.5"/><path d="m1272.8 1820.5h31.5"/><path d="m1415 1771.2v31.5"/><path d="m1399.2 1787h31.5"/><path d="m1324 1838.2v31.5"/><path d="m1308.2 1854h31.5"/><path d="m1367.5 1906.2v31.5"/><path d="m1351.8 1922h31.5"/><path d="m1356.5 1879.2v31.5"/><path d="m1340.8 1895h31.5"/><path d="m1316 1841.8v31.5"/><path d="m1300.2 1857.5h31.5"/><path d="m1425 1898.8v31.5"/><path d="m1409.2 1914.5h31.5"/><path d="m1469.5 1839.2v31.5"/><path d="m1453.8 1855h31.5"/><path d="m1364 1828.2v31.5"/><path d="m1348.2 1844h31.5"/><path d="m1360 1899.2v31.5"/><path d="m1344.2 1915h31.5"/><path d="m1337 1817.2v31.5"/><path d="m1321.2 1833h31.5"/><path d="m1551.5 1826.8v31.5"/><path d="m1535.8 1842.5h31.5"/><path d="m2788 1851.2v31.5"/><path d="m2772.2 1867h31.5"/><path d="m1354.5 1878.2v31.5"/><path d="m1338.8 1894h31.5"/><path d="m1561 1894.8v31.5"/><path d="m1545.2 1910.5h31.5"/><path d="m1601.5 1918.8v31.5"/><path d="m1585.8 1934.5h31.5"/><path d="m2047.5 1798.8v31.5"/><path d="m2031.8 1814.5h31.5"/><path d="m1365 1836.2v31.5"/><path d="m1349.2 1852h31.5"/><path d="m1381 1795.2v31.5"/><path d="m1365.2 1811h31.5"/><path d="m1285 1809.2v31.5"/><path d="m1269.2 1825h31.5"/><path d="m2762.5 1875.2v31.5"/><path d="m2746.8 1891h31.5"/><path d="m1520 1889.2v31.5"/><path d="m1504.2 1905h31.5"/><path d="m1409 1864.8v31.5"/><path d="m1393.2 1880.5h31.5"/><path d="m2531.5 1838.8v31.5"/><path d="m2515.8 1854.5h31.5"/><path d="m1578.5 1910.8v31.5"/><path d="m1562.8 1926.5h31.5"/><path d="m1336.5 1888.2v31.5"/><path d="m1320.8 1904h31.5"/><path d="m1319.5 1836.2v31.5"/><path d="m1303.8 1852h31.5"/><path d="m1409 1870.8v31.5"/><path d="m1393.2 1886.5h31.5"/><path d="m1429.5 1823.8v31.5"/><path d="m1413.8 1839.5h31.5"/><path d="m1361 1799.2v31.5"/><path d="m1345.2 1815h31.5"/><path d="m1336 1747.2v31.5"/><path d="m1320.2 1763h31.5"/><path d="m1388.5 1774.2v31.5"/><path d="m1372.8 1790h31.5"/><path d="m1329.5 1821.8v31.5"/><path d="m1313.8 1837.5h31.5"/><path d="m1343 1841.2v31.5"/><path d="m1327.2 1857h31.5"/><path d="m1356.5 1896.8v31.5"/><path d="m1340.8 1912.5h31.5"/><path d="m1518.5 1818.2v31.5"/><path d="m1502.8 1834h31.5"/><path d="m1366 1886.8v31.5"/><path d="m1350.2 1902.5h31.5"/><path d="m1526.5 1800.8v31.5"/><path d="m1510.8 1816.5h31.5"/><path d="m1330.5 1839.8v31.5"/><path d="m1314.8 1855.5h31.5"/><path d="m1350 1855.2v31.5"/><path d="m1334.2 1871h31.5"/><path d="m1390 1866.8v31.5"/><path d="m1374.2 1882.5h31.5"/><path d="m1353 1837.2v31.5"/><path d="m1337.2 1853h31.5"/><path d="m1392.5 1861.2v31.5"/><path d="m1376.8 1877h31.5"/><path d="m1330.5 1812.8v31.5"/><path d="m1314.8 1828.5h31.5"/><path d="m1497.5 1898.2v31.5"/><path d="m1481.8 1914h31.5"/><path d="m1548 1778.2v31.5"/><path d="m1532.2 1794h31.5"/><path d="m1451.5 1886.2v31.5"/><path d="m1435.8 1902h31.5"/><path d="m1384 1835.2v31.5"/><path d="m1368.2 1851h31.5"/><path d="m1405 1812.2v31.5"/><path d="m1389.2 1828h31.5"/><path d="m1386 1839.2v31.5"/><path d="m1370.2 1855h31.5"/><path d="m1395.5 1860.2v31.5"/><path d="m1379.8 1876h31.5"/><path d="m1335 1852.2v31.5"/><path d="m1319.2 1868h31.5"/><path d="m1365.5 1812.2v31.5"/><path d="m1349.8 1828h31.5"/><path d="m2280.5 1871.2v31.5"/><path d="m2264.8 1887h31.5"/><path d="m1346.5 1887.8v31.5"/><path d="m1330.8 1903.5h31.5"/><path d="m1343 1847.2v31.5"/><path d="m1327.2 1863h31.5"/><path d="m2092 1841.8v31.5"/><path d="m2076.2 1857.5h31.5"/><path d="m1425 1861.8v31.5"/><path d="m1409.2 1877.5h31.5"/><path d="m1306 1810.2v31.5"/><path d="m1290.2 1826h31.5"/><path d="m1626.5 1881.2v31.5"/><path d="m1610.8 1897h31.5"/><path d="m1354.5 1857.8v31.5"/><path d="m1338.8 1873.5h31.5"/><path d="m1296 1858.2v31.5"/><path d="m1280.2 1874h31.5"/><path d="m1414.5 1843.2v31.5"/><path d="m1398.8 1859h31.5"/><path d="m1433.5 1810.8v31.5"/><path d="m1417.8 1826.5h31.5"/><path d="m1415.5 1861.2v31.5"/><path d="m1399.8 1877h31.5"/><path d="m1361 1892.8v31.5"/><path d="m1345.2 1908.5h31.5"/><path d="m1664.5 1778.2v31.5"/><path d="m1648.8 1794h31.5"/><path d="m1349.5 1871.2v31.5"/><path d="m1333.8 1887h31.5"/><path d="m1639.5 1857.8v31.5"/><path d="m1623.8 1873.5h31.5"/><path d="m1454 1860.2v31.5"/><path d="m1438.2 1876h31.5"/><path d="m1390.5 1784.2v31.5"/><path d="m1374.8 1800h31.5"/><path d="m1627.5 1815.2v31.5"/><path d="m1611.8 1831h31.5"/><path d="m1314 1802.2v31.5"/><path d="m1298.2 1818h31.5"/><path d="m1335.5 1838.2v31.5"/><path d="m1319.8 1854h31.5"/><path d="m1437.5 1888.8v31.5"/><path d="m1421.8 1904.5h31.5"/><path d="m3515 1854.2v31.5"/><path d="m3499.2 1870h31.5"/><path d="m1924 1847.2v31.5"/><path d="m1908.2 1863h31.5"/><path d="m1318 1767.8v31.5"/><path d="m1302.2 1783.5h31.5"/><path d="m1351 1847.8v31.5"/><path d="m1335.2 1863.5h31.5"/><path d="m1342 1787.8v31.5"/><path d="m1326.2 1803.5h31.5"/><path d="m1392.5 1852.8v31.5"/><path d="m1376.8 1868.5h31.5"/><path d="m2010 1862.2v31.5"/><path d="m1994.2 1878h31.5"/><path d="m1383 1877.2v31.5"/><path d="m1367.2 1893h31.5"/><path d="m1340 1830.8v31.5"/><path d="m1324.2 1846.5h31.5"/><path d="m1416.5 1837.8v31.5"/><path d="m1400.8 1853.5h31.5"/><path d="m1630.5 1902.8v31.5"/><path d="m1614.8 1918.5h31.5"/><path d="m2356.5 1798.2v31.5"/><path d="m2340.8 1814h31.5"/><path d="m1350.5 1927.2v31.5"/><path d="m1334.8 1943h31.5"/><path d="m1375.5 1845.2v31.5"/><path d="m1359.8 1861h31.5"/><path d="m1361 1848.2v31.5"/><path d="m1345.2 1864h31.5"/><path d="m1343.5 1872.8v31.5"/><path d="m1327.8 1888.5h31.5"/><path d="m1353.5 1855.8v31.5"/><path d="m1337.8 1871.5h31.5"/><path d="m1388 1802.2v31.5"/><path d="m1372.2 1818h31.5"/><path d="m1464.5 1890.2v31.5"/><path d="m1448.8 1906h31.5"/><path d="m1328.5 1840.2v31.5"/><path d="m1312.8 1856h31.5"/><path d="m1425.5 1843.8v31.5"/><path d="m1409.8 1859.5h31.5"/><path d="m1331.5 1866.8v31.5"/><path d="m1315.8 1882.5h31.5"/><path d="m1345 1860.8v31.5"/><path d="m1329.2 1876.5h31.5"/><path d="m1564.5 1830.2v31.5"/><path d="m1548.8 1846h31.5"/><path d="m1347.5 1855.8v31.5"/><path d="m1331.8 1871.5h31.5"/><path d="m2497.5 1826.8v31.5"/><path d="m2481.8 1842.5h31.5"/><path d="m2385.5 1843.8v31.5"/><path d="m2369.8 1859.5h31.5"/><path d="m1266 1764.8v31.5"/><path d="m1250.2 1780.5h31.5"/><path d="m1398.5 1879.2v31.5"/><path d="m1382.8 1895h31.5"/><path d="m1458 1850.8v31.5"/><path d="m1442.2 1866.5h31.5"/><path d="m1455 1863.8v31.5"/><path d="m1439.2 1879.5h31.5"/><path d="m1311 1854.2v31.5"/><path d="m1295.2 1870h31.5"/><path d="m1510.5 1861.8v31.5"/><path d="m1494.8 1877.5h31.5"/><path d="m1474 1870.8v31.5"/><path d="m1458.2 1886.5h31.5"/><path d="m1337 1877.8v31.5"/><path d="m1321.2 1893.5h31.5"/><path d="m1589.5 1934.2v31.5"/><path d="m1573.8 1950h31.5"/><path d="m1446 1887.2v31.5"/><path d="m1430.2 1903h31.5"/><path d="m1350 1877.2v31.5"/><path d="m1334.2 1893h31.5"/><path d="m1376 1807.8v31.5"/><path d="m1360.2 1823.5h31.5"/><path d="m1305.5 1789.8v31.5"/><path d="m1289.8 1805.5h31.5"/><path d="m1316.5 1876.8v31.5"/><path d="m1300.8 1892.5h31.5"/><path d="m1308 1802.2v31.5"/><path d="m1292.2 1818h31.5"/><path d="m1322.5 1845.8v31.5"/><path d="m1306.8 1861.5h31.5"/><path d="m1387.5 1879.2v31.5"/><path d="m1371.8 1895h31.5"/><path d="m1538.5 1857.8v31.5"/><path d="m1522.8 1873.5h31.5"/><path d="m1345.5 1884.2v31.5"/><path d="m1329.8 1900h31.5"/><path d="m1392.5 1914.8v31.5"/><path d="m1376.8 1930.5h31.5"/><path d="m1363.5 1857.2v31.5"/><path d="m1347.8 1873h31.5"/><path d="m1394 1868.2v31.5"/><path d="m1378.2 1884h31.5"/><path d="m1343.5 1821.2v31.5"/><path d="m1327.8 1837h31.5"/><path d="m1357 1880.8v31.5"/><path d="m1341.2 1896.5h31.5"/><path d="m2927 1889.8v31.5"/><path d="m2911.2 1905.5h31.5"/><path d="m1307.5 1838.8v31.5"/><path d="m1291.8 1854.5h31.5"/><path d="m1487.5 1866.2v31.5"/><path d="m1471.8 1882h31.5"/><path d="m2600 1813.8v31.5"/><path d="m2584.2 1829.5h31.5"/><path d="m1394.5 1826.8v31.5"/><path d="m1378.8 1842.5h31.5"/><path d="m1367.5 1859.8v31.5"/><path d="m1351.8 1875.5h31.5"/><path d="m1437.5 1828.2v31.5"/><path d="m1421.8 1844h31.5"/><path d="m1314 1873.8v31.5"/><path d="m1298.2 1889.5h31.5"/><path d="m1429.5 1841.2v31.5"/><path d="m1413.8 1857h31.5"/><path d="m1340 1865.2v31.5"/><path d="m1324.2 1881h31.5"/><path d="m1291.5 1774.8v31.5"/><path d="m1275.8 1790.5h31.5"/><path d="m1361.5 1856.2v31.5"/><path d="m1345.8 1872h31.5"/><path d="m1302.5 1781.2v31.5"/><path d="m1286.8 1797h31.5"/><path d="m1499.5 1921.8v31.5"/><path d="m1483.8 1937.5h31.5"/><path d="m1355.5 1849.8v31.5"/><path d="m1339.8 1865.5h31.5"/><path d="m1452.5 1857.2v31.5"/><path d="m1436.8 1873h31.5"/><path d="m1348.5 1880.2v31.5"/><path d="m1332.8 1896h31.5"/><path d="m1361 1882.8v31.5"/><path d="m1345.2 1898.5h31.5"/><path d="m1431 1852.8v31.5"/><path d="m1415.2 1868.5h31.5"/><path d="m1522.5 1895.2v31.5"/><path d="m1506.8 1911h31.5"/><path d="m1276.5 1735.8v31.5"/><path d="m1260.8 1751.5h31.5"/><path d="m1361 1844.8v31.5"/><path d="m1345.2 1860.5h31.5"/><path d="m1381 1898.2v31.5"/><path d="m1365.2 1914h31.5"/><path d="m1375 1888.8v31.5"/><path d="m1359.2 1904.5h31.5"/><path d="m1369.5 1804.8v31.5"/><path d="m1353.8 1820.5h31.5"/><path d="m1290 1803.8v31.5"/><path d="m1274.2 1819.5h31.5"/><path d="m1375.5 1854.8v31.5"/><path d="m1359.8 1870.5h31.5"/><path d="m1465 1885.2v31.5"/><path d="m1449.2 1901h31.5"/><path d="m1426.5 1907.2v31.5"/><path d="m1410.8 1923h31.5"/><path d="m1381 1854.8v31.5"/><path d="m1365.2 1870.5h31.5"/><path d="m1375 1902.2v31.5"/><path d="m1359.2 1918h31.5"/><path d="m1356.5 1875.8v31.5"/><path d="m1340.8 1891.5h31.5"/><path d="m1260.5 1773.8v31.5"/><path d="m1244.8 1789.5h31.5"/><path d="m1341 1811.8v31.5"/><path d="m1325.2 1827.5h31.5"/><path d="m1683.5 1821.2v31.5"/><path d="m1667.8 1837h31.5"/><path d="m1322.5 1758.2v31.5"/><path d="m1306.8 1774h31.5"/><path d="m1535.5 1945.2v31.5"/><path d="m1519.8 1961h31.5"/><path d="m1370.5 1808.8v31.5"/><path d="m1354.8 1824.5h31.5"/><path d="m1725 1892.8v31.5"/><path d="m1709.2 1908.5h31.5"/><path d="m1381.5 1870.8v31.5"/><path d="m1365.8 1886.5h31.5"/><path d="m1427.5 1896.8v31.5"/><path d="m1411.8 1912.5h31.5"/><path d="m1316 1801.2v31.5"/><path d="m1300.2 1817h31.5"/><path d="m1680 1889.2v31.5"/><path d="m1664.2 1905h31.5"/><path d="m1360 1841.8v31.5"/><path d="m1344.2 1857.5h31.5"/><path d="m1374 1893.2v31.5"/><path d="m1358.2 1909h31.5"/><path d="m2170 1905.2v31.5"/><path d="m2154.2 1921h31.5"/><path d="m1701 1940.8v31.5"/><path d="m1685.2 1956.5h31.5"/><path d="m1343 1835.2v31.5"/><path d="m1327.2 1851h31.5"/><path d="m1358.5 1827.2v31.5"/><path d="m1342.8 1843h31.5"/><path d="m1383.5 1868.2v31.5"/><path d="m1367.8 1884h31.5"/><path d="m1423 1831.2v31.5"/><path d="m1407.2 1847h31.5"/><path d="m1420.5 1880.8v31.5"/><path d="m1404.8 1896.5h31.5"/><path d="m1358 1823.8v31.5"/><path d="m1342.2 1839.5h31.5"/><path d="m1397.5 1813.2v31.5"/><path d="m1381.8 1829h31.5"/><path d="m1316 1786.2v31.5"/><path d="m1300.2 1802h31.5"/><path d="m1278 1762.8v31.5"/><path d="m1262.2 1778.5h31.5"/><path d="m1327 1878.8v31.5"/><path d="m1311.2 1894.5h31.5"/><path d="m1335 1864.8v31.5"/><path d="m1319.2 1880.5h31.5"/><path d="m1534.5 1836.8v31.5"/><path d="m1518.8 1852.5h31.5"/><path d="m1549 1819.2v31.5"/><path d="m1533.2 1835h31.5"/><path d="m1344.5 1798.2v31.5"/><path d="m1328.8 1814h31.5"/><path d="m1395.5 1930.8v31.5"/><path d="m1379.8 1946.5h31.5"/><path d="m1287.5 1801.2v31.5"/><path d="m1271.8 1817h31.5"/><path d="m1357 1843.8v31.5"/><path d="m1341.2 1859.5h31.5"/><path d="m1520 1869.8v31.5"/><path d="m1504.2 1885.5h31.5"/><path d="m1408.5 1840.2v31.5"/><path d="m1392.8 1856h31.5"/><path d="m1955.5 1847.2v31.5"/><path d="m1939.8 1863h31.5"/><path d="m1406.5 1847.8v31.5"/><path d="m1390.8 1863.5h31.5"/><path d="m1334 1856.8v31.5"/><path d="m1318.2 1872.5h31.5"/><path d="m1449 1884.8v31.5"/><path d="m1433.2 1900.5h31.5"/><path d="m1801.5 1910.2v31.5"/><path d="m1785.8 1926h31.5"/><path d="m1334.5 1839.2v31.5"/><path d="m1318.8 1855h31.5"/><path d="m1341.5 1805.8v31.5"/><path d="m1325.8 1821.5h31.5"/><path d="m1361 1847.2v31.5"/><path d="m1345.2 1863h31.5"/><path d="m1381 1910.2v31.5"/><path d="m1365.2 1926h31.5"/><path d="m1515.5 1879.2v31.5"/><path d="m1499.8 1895h31.5"/><path d="m1435.5 1906.8v31.5"/><path d="m1419.8 1922.5h31.5"/><path d="m1582 1851.2v31.5"/><path d="m1566.2 1867h31.5"/><path d="m1259 1741.8v31.5"/><path d="m1243.2 1757.5h31.5"/><path d="m1355.5 1860.2v31.5"/><path d="m1339.8 1876h31.5"/><path d="m1344.5 1792.8v31.5"/><path d="m1328.8 1808.5h31.5"/><path d="m1410 1862.2v31.5"/><path d="m1394.2 1878h31.5"/><path d="m1415 1869.8v31.5"/><path d="m1399.2 1885.5h31.5"/><path d="m1293.5 1782.8v31.5"/><path d="m1277.8 1798.5h31.5"/><path d="m1386.5 1957.8v31.5"/><path d="m1370.8 1973.5h31.5"/><path d="m1394 1796.2v31.5"/><path d="m1378.2 1812h31.5"/><path d="m1783.5 1865.2v31.5"/><path d="m1767.8 1881h31.5"/><path d="m1441.5 1866.2v31.5"/><path d="m1425.8 1882h31.5"/><path d="m1305.5 1818.8v31.5"/><path d="m1289.8 1834.5h31.5"/><path d="m1599 1886.8v31.5"/><path d="m1583.2 1902.5h31.5"/><path d="m1342.5 1884.8v31.5"/><path d="m1326.8 1900.5h31.5"/><path d="m2033 1815.2v31.5"/><path d="m2017.2 1831h31.5"/><path d="m1339 1849.2v31.5"/><path d="m1323.2 1865h31.5"/><path d="m1419.5 1912.2v31.5"/><path d="m1403.8 1928h31.5"/><path d="m2702 1861.8v31.5"/><path d="m2686.2 1877.5h31.5"/><path d="m1321 1825.8v31.5"/><path d="m1305.2 1841.5h31.5"/><path d="m1340.5 1861.8v31.5"/><path d="m1324.8 1877.5h31.5"/><path d="m1259 1752.8v31.5"/><path d="m1243.2 1768.5h31.5"/><path d="m1359.5 1870.8v31.5"/><path d="m1343.8 1886.5h31.5"/><path d="m1367.5 1843.2v31.5"/><path d="m1351.8 1859h31.5"/><path d="m1403 1930.2v31.5"/><path d="m1387.2 1946h31.5"/><path d="m1319 1845.8v31.5"/><path d="m1303.2 1861.5h31.5"/><path d="m1387.5 1963.8v31.5"/><path d="m1371.8 1979.5h31.5"/><path d="m1706.5 1817.2v31.5"/><path d="m1690.8 1833h31.5"/><path d="m2842 1901.8v31.5"/><path d="m2826.2 1917.5h31.5"/><path d="m1307 1796.2v31.5"/><path d="m1291.2 1812h31.5"/><path d="m1330.5 1794.8v31.5"/><path d="m1314.8 1810.5h31.5"/><path d="m1278 1777.8v31.5"/><path d="m1262.2 1793.5h31.5"/><path d="m1953 1852.2v31.5"/><path d="m1937.2 1868h31.5"/><path d="m1328 1846.8v31.5"/><path d="m1312.2 1862.5h31.5"/><path d="m1639.5 1858.8v31.5"/><path d="m1623.8 1874.5h31.5"/><path d="m1767 1897.8v31.5"/><path d="m1751.2 1913.5h31.5"/><path d="m1352 1863.8v31.5"/><path d="m1336.2 1879.5h31.5"/><path d="m3416.5 1798.2v31.5"/><path d="m3400.8 1814h31.5"/><path d="m1311 1830.8v31.5"/><path d="m1295.2 1846.5h31.5"/><path d="m1957 1877.2v31.5"/><path d="m1941.2 1893h31.5"/><path d="m1337 1850.2v31.5"/><path d="m1321.2 1866h31.5"/><path d="m1326 1829.2v31.5"/><path d="m1310.2 1845h31.5"/><path d="m1431.5 1882.8v31.5"/><path d="m1415.8 1898.5h31.5"/><path d="m1329 1824.2v31.5"/><path d="m1313.2 1840h31.5"/><path d="m1330 1812.8v31.5"/><path d="m1314.2 1828.5h31.5"/><path d="m1411 1864.2v31.5"/><path d="m1395.2 1880h31.5"/><path d="m1507.5 1862.8v31.5"/><path d="m1491.8 1878.5h31.5"/><path d="m1305.5 1856.2v31.5"/><path d="m1289.8 1872h31.5"/><path d="m1345.5 1854.2v31.5"/><path d="m1329.8 1870h31.5"/><path d="m1330.5 1863.2v31.5"/><path d="m1314.8 1879h31.5"/><path d="m1303.5 1778.2v31.5"/><path d="m1287.8 1794h31.5"/><path d="m1354.5 1836.8v31.5"/><path d="m1338.8 1852.5h31.5"/><path d="m1597 1832.8v31.5"/><path d="m1581.2 1848.5h31.5"/><path d="m1341 1850.2v31.5"/><path d="m1325.2 1866h31.5"/><path d="m1351.5 1890.8v31.5"/><path d="m1335.8 1906.5h31.5"/><path d="m1338.5 1823.2v31.5"/><path d="m1322.8 1839h31.5"/><path d="m1269 1805.8v31.5"/><path d="m1253.2 1821.5h31.5"/><path d="m1344 1899.2v31.5"/><path d="m1328.2 1915h31.5"/><path d="m1876.5 1882.8v31.5"/><path d="m1860.8 1898.5h31.5"/><path d="m1365 1868.8v31.5"/><path d="m1349.2 1884.5h31.5"/><path d="m1457.5 1811.2v31.5"/><path d="m1441.8 1827h31.5"/><path d="m1411 1893.8v31.5"/><path d="m1395.2 1909.5h31.5"/><path d="m1352.5 1813.8v31.5"/><path d="m1336.8 1829.5h31.5"/><path d="m1304 1840.2v31.5"/><path d="m1288.2 1856h31.5"/><path d="m1329.5 1884.8v31.5"/><path d="m1313.8 1900.5h31.5"/><path d="m1605.5 1901.2v31.5"/><path d="m1589.8 1917h31.5"/><path d="m1350 1854.2v31.5"/><path d="m1334.2 1870h31.5"/><path d="m1324 1833.8v31.5"/><path d="m1308.2 1849.5h31.5"/><path d="m1391.5 1872.8v31.5"/><path d="m1375.8 1888.5h31.5"/><path d="m1680 1936.2v31.5"/><path d="m1664.2 1952h31.5"/><path d="m1369 1804.2v31.5"/><path d="m1353.2 1820h31.5"/><path d="m1674 1798.8v31.5"/><path d="m1658.2 1814.5h31.5"/><path d="m1311 1817.8v31.5"/><path d="m1295.2 1833.5h31.5"/><path d="m1321 1849.8v31.5"/><path d="m1305.2 1865.5h31.5"/><path d="m1371.5 1903.2v31.5"/><path d="m1355.8 1919h31.5"/><path d="m1371.5 1849.2v31.5"/><path d="m1355.8 1865h31.5"/><path d="m1740.5 1903.2v31.5"/><path d="m1724.8 1919h31.5"/><path d="m1298 1840.8v31.5"/><path d="m1282.2 1856.5h31.5"/><path d="m1338 1824.8v31.5"/><path d="m1322.2 1840.5h31.5"/><path d="m1359 1854.2v31.5"/><path d="m1343.2 1870h31.5"/><path d="m1279.5 1793.2v31.5"/><path d="m1263.8 1809h31.5"/><path d="m1410 1835.8v31.5"/><path d="m1394.2 1851.5h31.5"/><path d="m1339.5 1886.2v31.5"/><path d="m1323.8 1902h31.5"/><path d="m1465 1835.8v31.5"/><path d="m1449.2 1851.5h31.5"/><path d="m1341 1835.2v31.5"/><path d="m1325.2 1851h31.5"/><path d="m1628 1957.2v31.5"/><path d="m1612.2 1973h31.5"/><path d="m1388 1875.8v31.5"/><path d="m1372.2 1891.5h31.5"/><path d="m1378.5 1829.8v31.5"/><path d="m1362.8 1845.5h31.5"/><path d="m1763 1835.8v31.5"/><path d="m1747.2 1851.5h31.5"/><path d="m1487 1868.2v31.5"/><path d="m1471.2 1884h31.5"/><path d="m1414.5 1923.8v31.5"/><path d="m1398.8 1939.5h31.5"/><path d="m1421 1872.2v31.5"/><path d="m1405.2 1888h31.5"/><path d="m1333.5 1862.2v31.5"/><path d="m1317.8 1878h31.5"/><path d="m1751.5 1852.8v31.5"/><path d="m1735.8 1868.5h31.5"/><path d="m1308.5 1820.2v31.5"/><path d="m1292.8 1836h31.5"/><path d="m1626.5 1972.2v31.5"/><path d="m1610.8 1988h31.5"/><path d="m1919 1869.8v31.5"/><path d="m1903.2 1885.5h31.5"/><path d="m1826.5 1791.8v31.5"/><path d="m1810.8 1807.5h31.5"/><path d="m1701 1880.8v31.5"/><path d="m1685.2 1896.5h31.5"/><path d="m1326 1816.2v31.5"/><path d="m1310.2 1832h31.5"/><path d="m1443.5 1840.2v31.5"/><path d="m1427.8 1856h31.5"/><path d="m1527.5 1855.8v31.5"/><path d="m1511.8 1871.5h31.5"/><path d="m1325 1806.8v31.5"/><path d="m1309.2 1822.5h31.5"/><path d="m1477 1875.2v31.5"/><path d="m1461.2 1891h31.5"/><path d="m1512.5 1914.2v31.5"/><path d="m1496.8 1930h31.5"/><path d="m1328.5 1775.2v31.5"/><path d="m1312.8 1791h31.5"/><path d="m1365 1872.8v31.5"/><path d="m1349.2 1888.5h31.5"/><path d="m1338.5 1895.2v31.5"/><path d="m1322.8 1911h31.5"/><path d="m1502 1905.8v31.5"/><path d="m1486.2 1921.5h31.5"/><path d="m1384.5 1833.2v31.5"/><path d="m1368.8 1849h31.5"/><path d="m1369.5 1885.8v31.5"/><path d="m1353.8 1901.5h31.5"/><path d="m1303.5 1816.2v31.5"/><path d="m1287.8 1832h31.5"/><path d="m1413.5 1888.2v31.5"/><path d="m1397.8 1904h31.5"/><path d="m3438.5 1889.2v31.5"/><path d="m3422.8 1905h31.5"/><path d="m1894 1814.2v31.5"/><path d="m1878.2 1830h31.5"/><path d="m1288 1731.8v31.5"/><path d="m1272.2 1747.5h31.5"/><path d="m1334.5 1909.2v31.5"/><path d="m1318.8 1925h31.5"/><path d="m1373 1884.2v31.5"/><path d="m1357.2 1900h31.5"/><path d="m1425.5 1767.2v31.5"/><path d="m1409.8 1783h31.5"/><path d="m1357 1893.2v31.5"/><path d="m1341.2 1909h31.5"/><path d="m1543.5 1915.8v31.5"/><path d="m1527.8 1931.5h31.5"/><path d="m1405 1860.8v31.5"/><path d="m1389.2 1876.5h31.5"/><path d="m1314.5 1814.8v31.5"/><path d="m1298.8 1830.5h31.5"/><path d="m1356.5 1863.8v31.5"/><path d="m1340.8 1879.5h31.5"/><path d="m1379.5 1892.8v31.5"/><path d="m1363.8 1908.5h31.5"/><path d="m1486 1854.2v31.5"/><path d="m1470.2 1870h31.5"/><path d="m1334 1836.8v31.5"/><path d="m1318.2 1852.5h31.5"/><path d="m1572 1813.2v31.5"/><path d="m1556.2 1829h31.5"/><path d="m1297 1799.8v31.5"/><path d="m1281.2 1815.5h31.5"/><path d="m1835 1876.8v31.5"/><path d="m1819.2 1892.5h31.5"/><path d="m1374 1808.2v31.5"/><path d="m1358.2 1824h31.5"/><path d="m1730 1863.2v31.5"/><path d="m1714.2 1879h31.5"/><path d="m1325.5 1865.2v31.5"/><path d="m1309.8 1881h31.5"/><path d="m2493.5 1797.8v31.5"/><path d="m2477.8 1813.5h31.5"/><path d="m1391 1818.2v31.5"/><path d="m1375.2 1834h31.5"/><path d="m1389 1776.2v31.5"/><path d="m1373.2 1792h31.5"/><path d="m1541.5 1808.2v31.5"/><path d="m1525.8 1824h31.5"/><path d="m1353 1859.2v31.5"/><path d="m1337.2 1875h31.5"/><path d="m1369.5 1866.8v31.5"/><path d="m1353.8 1882.5h31.5"/><path d="m1585.5 1867.2v31.5"/><path d="m1569.8 1883h31.5"/><path d="m1437.5 1853.2v31.5"/><path d="m1421.8 1869h31.5"/><path d="m1466.5 1886.2v31.5"/><path d="m1450.8 1902h31.5"/><path d="m1324.5 1812.8v31.5"/><path d="m1308.8 1828.5h31.5"/><path d="m1683.5 1837.8v31.5"/><path d="m1667.8 1853.5h31.5"/><path d="m1381 1918.2v31.5"/><path d="m1365.2 1934h31.5"/><path d="m1345 1875.8v31.5"/><path d="m1329.2 1891.5h31.5"/><path d="m1405 1887.2v31.5"/><path d="m1389.2 1903h31.5"/><path d="m2471 1809.8v31.5"/><path d="m2455.2 1825.5h31.5"/><path d="m1314 1749.2v31.5"/><path d="m1298.2 1765h31.5"/><path d="m3155 1840.2v31.5"/><path d="m3139.2 1856h31.5"/><path d="m1319 1851.2v31.5"/><path d="m1303.2 1867h31.5"/><path d="m1313 1817.2v31.5"/><path d="m1297.2 1833h31.5"/><path d="m1338 1844.8v31.5"/><path d="m1322.2 1860.5h31.5"/><path d="m1412.5 1841.8v31.5"/><path d="m1396.8 1857.5h31.5"/><path d="m1432.5 1856.8v31.5"/><path d="m1416.8 1872.5h31.5"/><path d="m1342 1809.8v31.5"/><path d="m1326.2 1825.5h31.5"/><path d="m1466 1876.2v31.5"/><path d="m1450.2 1892h31.5"/><path d="m1356 1867.8v31.5"/><path d="m1340.2 1883.5h31.5"/><path d="m1493 1863.8v31.5"/><path d="m1477.2 1879.5h31.5"/><path d="m1350 1905.2v31.5"/><path d="m1334.2 1921h31.5"/><path d="m1302 1775.2v31.5"/><path d="m1286.2 1791h31.5"/><path d="m1299.5 1810.8v31.5"/><path d="m1283.8 1826.5h31.5"/><path d="m1269.5 1769.8v31.5"/><path d="m1253.8 1785.5h31.5"/><path d="m1382.5 1807.8v31.5"/><path d="m1366.8 1823.5h31.5"/><path d="m1287.5 1817.2v31.5"/><path d="m1271.8 1833h31.5"/><path d="m1338 1831.8v31.5"/><path d="m1322.2 1847.5h31.5"/><path d="m1454 1887.8v31.5"/><path d="m1438.2 1903.5h31.5"/><path d="m1412 1837.2v31.5"/><path d="m1396.2 1853h31.5"/><path d="m1352.5 1911.2v31.5"/><path d="m1336.8 1927h31.5"/><path d="m1341 1845.8v31.5"/><path d="m1325.2 1861.5h31.5"/><path d="m3646 1777.8v31.5"/><path d="m3630.2 1793.5h31.5"/><path d="m1441.5 1851.8v31.5"/><path d="m1425.8 1867.5h31.5"/><path d="m1594 1830.8v31.5"/><path d="m1578.2 1846.5h31.5"/><path d="m1443.5 1887.2v31.5"/><path d="m1427.8 1903h31.5"/><path d="m1363 1773.8v31.5"/><path d="m1347.2 1789.5h31.5"/><path d="m1428 1902.8v31.5"/><path d="m1412.2 1918.5h31.5"/><path d="m1327.5 1845.2v31.5"/><path d="m1311.8 1861h31.5"/><path d="m1338.5 1811.2v31.5"/><path d="m1322.8 1827h31.5"/><path d="m1576.5 1800.2v31.5"/><path d="m1560.8 1816h31.5"/><path d="m1592 1886.8v31.5"/><path d="m1576.2 1902.5h31.5"/><path d="m1482.5 1934.8v31.5"/><path d="m1466.8 1950.5h31.5"/><path d="m1539 1834.8v31.5"/><path d="m1523.2 1850.5h31.5"/><path d="m1291 1807.2v31.5"/><path d="m1275.2 1823h31.5"/><path d="m1338.5 1890.2v31.5"/><path d="m1322.8 1906h31.5"/><path d="m1409 1857.2v31.5"/><path d="m1393.2 1873h31.5"/><path d="m1379 1870.2v31.5"/><path d="m1363.2 1886h31.5"/><path d="m1337 1856.8v31.5"/><path d="m1321.2 1872.5h31.5"/><path d="m1334 1824.2v31.5"/><path d="m1318.2 1840h31.5"/><path d="m1354 1908.2v31.5"/><path d="m1338.2 1924h31.5"/><path d="m1382.5 1815.2v31.5"/><path d="m1366.8 1831h31.5"/><path d="m1644.5 1841.8v31.5"/><path d="m1628.8 1857.5h31.5"/><path d="m1460 1857.8v31.5"/><path d="m1444.2 1873.5h31.5"/><path d="m1431 1862.2v31.5"/><path d="m1415.2 1878h31.5"/><path d="m1448 1932.2v31.5"/><path d="m1432.2 1948h31.5"/><path d="m1348 1863.8v31.5"/><path d="m1332.2 1879.5h31.5"/><path d="m3003 1846.2v31.5"/><path d="m2987.2 1862h31.5"/><path d="m1334.5 1840.8v31.5"/><path d="m1318.8 1856.5h31.5"/><path d="m1429 1855.8v31.5"/><path d="m1413.2 1871.5h31.5"/><path d="m1355 1814.8v31.5"/><path d="m1339.2 1830.5h31.5"/><path d="m1350.5 1819.8v31.5"/><path d="m1334.8 1835.5h31.5"/><path d="m1390 1773.2v31.5"/><path d="m1374.2 1789h31.5"/><path d="m1295 1832.8v31.5"/><path d="m1279.2 1848.5h31.5"/><path d="m2207 1955.2v31.5"/><path d="m2191.2 1971h31.5"/><path d="m1829 1917.8v31.5"/><path d="m1813.2 1933.5h31.5"/><path d="m1390.5 1878.8v31.5"/><path d="m1374.8 1894.5h31.5"/><path d="m1440 1809.2v31.5"/><path d="m1424.2 1825h31.5"/><path d="m1315.5 1806.2v31.5"/><path d="m1299.8 1822h31.5"/><path d="m1344 1872.2v31.5"/><path d="m1328.2 1888h31.5"/><path d="m1321.5 1827.2v31.5"/><path d="m1305.8 1843h31.5"/><path d="m1354.5 1846.8v31.5"/><path d="m1338.8 1862.5h31.5"/><path d="m1409.5 1829.8v31.5"/><path d="m1393.8 1845.5h31.5"/><path d="m1340.5 1858.2v31.5"/><path d="m1324.8 1874h31.5"/><path d="m1306 1814.2v31.5"/><path d="m1290.2 1830h31.5"/><path d="m1359 1876.2v31.5"/><path d="m1343.2 1892h31.5"/><path d="m1406.5 1813.8v31.5"/><path d="m1390.8 1829.5h31.5"/><path d="m1366 1876.2v31.5"/><path d="m1350.2 1892h31.5"/><path d="m1358 1822.8v31.5"/><path d="m1342.2 1838.5h31.5"/><path d="m1467.5 1907.2v31.5"/><path d="m1451.8 1923h31.5"/><path d="m1822.5 1903.8v31.5"/><path d="m1806.8 1919.5h31.5"/><path d="m1352.5 1874.2v31.5"/><path d="m1336.8 1890h31.5"/><path d="m1546 1790.2v31.5"/><path d="m1530.2 1806h31.5"/><path d="m1387.5 1886.8v31.5"/><path d="m1371.8 1902.5h31.5"/><path d="m1366 1840.2v31.5"/><path d="m1350.2 1856h31.5"/><path d="m1419.5 1774.8v31.5"/><path d="m1403.8 1790.5h31.5"/><path d="m2106 1895.2v31.5"/><path d="m2090.2 1911h31.5"/><path d="m1358 1866.2v31.5"/><path d="m1342.2 1882h31.5"/><path d="m1323.5 1842.2v31.5"/><path d="m1307.8 1858h31.5"/><path d="m1377 1892.2v31.5"/><path d="m1361.2 1908h31.5"/><path d="m2877.5 1806.8v31.5"/><path d="m2861.8 1822.5h31.5"/><path d="m1311 1811.8v31.5"/><path d="m1295.2 1827.5h31.5"/><path d="m1378.5 1924.2v31.5"/><path d="m1362.8 1940h31.5"/><path d="m1429.5 1883.8v31.5"/><path d="m1413.8 1899.5h31.5"/><path d="m1594 1829.8v31.5"/><path d="m1578.2 1845.5h31.5"/><path d="m1291 1833.2v31.5"/><path d="m1275.2 1849h31.5"/><path d="m1517.5 1818.2v31.5"/><path d="m1501.8 1834h31.5"/><path d="m1384.5 1912.8v31.5"/><path d="m1368.8 1928.5h31.5"/><path d="m1496.5 1782.2v31.5"/><path d="m1480.8 1798h31.5"/><path d="m1454.5 1869.2v31.5"/><path d="m1438.8 1885h31.5"/><path d="m1345.5 1846.8v31.5"/><path d="m1329.8 1862.5h31.5"/><path d="m1311.5 1823.2v31.5"/><path d="m1295.8 1839h31.5"/><path d="m1339.5 1868.2v31.5"/><path d="m1323.8 1884h31.5"/><path d="m2063.5 1805.2v31.5"/><path d="m2047.8 1821h31.5"/><path d="m1350.5 1868.2v31.5"/><path d="m1334.8 1884h31.5"/><path d="m1627.5 1906.2v31.5"/><path d="m1611.8 1922h31.5"/><path d="m1325 1877.8v31.5"/><path d="m1309.2 1893.5h31.5"/><path d="m1631.5 1857.2v31.5"/><path d="m1615.8 1873h31.5"/><path d="m1269 1801.8v31.5"/><path d="m1253.2 1817.5h31.5"/><path d="m1426 1862.8v31.5"/><path d="m1410.2 1878.5h31.5"/><path d="m1454 1876.8v31.5"/><path d="m1438.2 1892.5h31.5"/><path d="m1595.5 1918.8v31.5"/><path d="m1579.8 1934.5h31.5"/><path d="m1674.5 1877.2v31.5"/><path d="m1658.8 1893h31.5"/><path d="m1761 1870.2v31.5"/><path d="m1745.2 1886h31.5"/><path d="m1623 1844.2v31.5"/><path d="m1607.2 1860h31.5"/><path d="m1298 1800.8v31.5"/><path d="m1282.2 1816.5h31.5"/><path d="m1301.5 1838.8v31.5"/><path d="m1285.8 1854.5h31.5"/><path d="m1388.5 1809.8v31.5"/><path d="m1372.8 1825.5h31.5"/><path d="m1324 1846.8v31.5"/><path d="m1308.2 1862.5h31.5"/><path d="m1366 1798.8v31.5"/><path d="m1350.2 1814.5h31.5"/><path d="m1373.5 1860.8v31.5"/><path d="m1357.8 1876.5h31.5"/><path d="m1471 1805.2v31.5"/><path d="m1455.2 1821h31.5"/><path d="m1340.5 1815.8v31.5"/><path d="m1324.8 1831.5h31.5"/><path d="m1374 1865.8v31.5"/><path d="m1358.2 1881.5h31.5"/><path d="m1363.5 1829.2v31.5"/><path d="m1347.8 1845h31.5"/><path d="m1338 1898.2v31.5"/><path d="m1322.2 1914h31.5"/><path d="m1534.5 1911.2v31.5"/><path d="m1518.8 1927h31.5"/><path d="m1364.5 1889.8v31.5"/><path d="m1348.8 1905.5h31.5"/><path d="m1291.5 1795.8v31.5"/><path d="m1275.8 1811.5h31.5"/><path d="m1345.5 1833.8v31.5"/><path d="m1329.8 1849.5h31.5"/><path d="m1325 1841.8v31.5"/><path d="m1309.2 1857.5h31.5"/><path d="m1371.5 1914.8v31.5"/><path d="m1355.8 1930.5h31.5"/><path d="m1376 1884.2v31.5"/><path d="m1360.2 1900h31.5"/><path d="m1421.5 1892.8v31.5"/><path d="m1405.8 1908.5h31.5"/><path d="m1703 1821.2v31.5"/><path d="m1687.2 1837h31.5"/><path d="m1773.5 1811.8v31.5"/><path d="m1757.8 1827.5h31.5"/><path d="m1548 1808.2v31.5"/><path d="m1532.2 1824h31.5"/><path d="m1768.5 1848.2v31.5"/><path d="m1752.8 1864h31.5"/><path d="m1622 1822.8v31.5"/><path d="m1606.2 1838.5h31.5"/><path d="m1327.5 1862.8v31.5"/><path d="m1311.8 1878.5h31.5"/><path d="m1369 1852.2v31.5"/><path d="m1353.2 1868h31.5"/><path d="m1408 1875.8v31.5"/><path d="m1392.2 1891.5h31.5"/><path d="m1711.5 1821.2v31.5"/><path d="m1695.8 1837h31.5"/><path d="m2492.5 1814.2v31.5"/><path d="m2476.8 1830h31.5"/><path d="m1577 1811.8v31.5"/><path d="m1561.2 1827.5h31.5"/><path d="m1298.5 1880.2v31.5"/><path d="m1282.8 1896h31.5"/><path d="m1514.5 1922.8v31.5"/><path d="m1498.8 1938.5h31.5"/><path d="m1413 1859.8v31.5"/><path d="m1397.2 1875.5h31.5"/><path d="m1742.5 1858.8v31.5"/><path d="m1726.8 1874.5h31.5"/><path d="m1336 1834.2v31.5"/><path d="m1320.2 1850h31.5"/><path d="m1386 1868.8v31.5"/><path d="m1370.2 1884.5h31.5"/><path d="m1362.5 1886.8v31.5"/><path d="m1346.8 1902.5h31.5"/><path d="m1393.5 1802.8v31.5"/><path d="m1377.8 1818.5h31.5"/><path d="m1564 1853.8v31.5"/><path d="m1548.2 1869.5h31.5"/><path d="m1959 1783.2v31.5"/><path d="m1943.2 1799h31.5"/><path d="m1310 1830.8v31.5"/><path d="m1294.2 1846.5h31.5"/><path d="m1347 1825.2v31.5"/><path d="m1331.2 1841h31.5"/><path d="m1316 1846.8v31.5"/><path d="m1300.2 1862.5h31.5"/><path d="m1343.5 1826.8v31.5"/><path d="m1327.8 1842.5h31.5"/><path d="m1426 1815.2v31.5"/><path d="m1410.2 1831h31.5"/><path d="m1376 1857.2v31.5"/><path d="m1360.2 1873h31.5"/><path d="m1707 1843.8v31.5"/><path d="m1691.2 1859.5h31.5"/><path d="m1339 1858.2v31.5"/><path d="m1323.2 1874h31.5"/><path d="m1542 1887.8v31.5"/><path d="m1526.2 1903.5h31.5"/><path d="m1983.5 1887.2v31.5"/><path d="m1967.8 1903h31.5"/><path d="m1488 1829.8v31.5"/><path d="m1472.2 1845.5h31.5"/><path d="m1297.5 1767.2v31.5"/><path d="m1281.8 1783h31.5"/><path d="m1450.5 1825.2v31.5"/><path d="m1434.8 1841h31.5"/><path d="m1374 1857.8v31.5"/><path d="m1358.2 1873.5h31.5"/><path d="m1511 1884.8v31.5"/><path d="m1495.2 1900.5h31.5"/><path d="m1374.5 1878.2v31.5"/><path d="m1358.8 1894h31.5"/><path d="m1399.5 1788.8v31.5"/><path d="m1383.8 1804.5h31.5"/><path d="m1586.5 1865.8v31.5"/><path d="m1570.8 1881.5h31.5"/><path d="m1361 1826.8v31.5"/><path d="m1345.2 1842.5h31.5"/><path d="m1411 1878.2v31.5"/><path d="m1395.2 1894h31.5"/><path d="m1319 1788.8v31.5"/><path d="m1303.2 1804.5h31.5"/><path d="m3049 1888.2v31.5"/><path d="m3033.2 1904h31.5"/><path d="m2361.5 1786.8v31.5"/><path d="m2345.8 1802.5h31.5"/><path d="m1467.5 1840.8v31.5"/><path d="m1451.8 1856.5h31.5"/><path d="m1511 1824.8v31.5"/><path d="m1495.2 1840.5h31.5"/><path d="m1419 1925.2v31.5"/><path d="m1403.2 1941h31.5"/><path d="m1381.5 1833.8v31.5"/><path d="m1365.8 1849.5h31.5"/><path d="m2078 1845.2v31.5"/><path d="m2062.2 1861h31.5"/><path d="m1269 1821.8v31.5"/><path d="m1253.2 1837.5h31.5"/><path d="m1280.5 1735.2v31.5"/><path d="m1264.8 1751h31.5"/><path d="m1426 1875.2v31.5"/><path d="m1410.2 1891h31.5"/><path d="m1351 1858.2v31.5"/><path d="m1335.2 1874h31.5"/><path d="m1274.5 1784.8v31.5"/><path d="m1258.8 1800.5h31.5"/><path d="m1365.5 1892.8v31.5"/><path d="m1349.8 1908.5h31.5"/><path d="m1344 1838.8v31.5"/><path d="m1328.2 1854.5h31.5"/><path d="m1335 1757.2v31.5"/><path d="m1319.2 1773h31.5"/><path d="m1292.5 1825.8v31.5"/><path d="m1276.8 1841.5h31.5"/><path d="m1395.5 1858.2v31.5"/><path d="m1379.8 1874h31.5"/><path d="m1354.5 1812.2v31.5"/><path d="m1338.8 1828h31.5"/><path d="m1388.5 1884.8v31.5"/><path d="m1372.8 1900.5h31.5"/><path d="m1337 1859.2v31.5"/><path d="m1321.2 1875h31.5"/><path d="m1372.5 1822.2v31.5"/><path d="m1356.8 1838h31.5"/><path d="m1487 1816.8v31.5"/><path d="m1471.2 1832.5h31.5"/><path d="m1476.5 1768.2v31.5"/><path d="m1460.8 1784h31.5"/><path d="m1349.5 1866.2v31.5"/><path d="m1333.8 1882h31.5"/><path d="m1318 1841.2v31.5"/><path d="m1302.2 1857h31.5"/><path d="m1377 1846.2v31.5"/><path d="m1361.2 1862h31.5"/><path d="m1486.5 1842.2v31.5"/><path d="m1470.8 1858h31.5"/><path d="m1305.5 1809.2v31.5"/><path d="m1289.8 1825h31.5"/><path d="m2617.5 1826.2v31.5"/><path d="m2601.8 1842h31.5"/><path d="m1349.5 1767.8v31.5"/><path d="m1333.8 1783.5h31.5"/><path d="m1322.5 1787.2v31.5"/><path d="m1306.8 1803h31.5"/><path d="m1395 1875.8v31.5"/><path d="m1379.2 1891.5h31.5"/><path d="m1413 1854.8v31.5"/><path d="m1397.2 1870.5h31.5"/><path d="m1393 1803.8v31.5"/><path d="m1377.2 1819.5h31.5"/><path d="m1438 1773.8v31.5"/><path d="m1422.2 1789.5h31.5"/><path d="m1355.5 1836.8v31.5"/><path d="m1339.8 1852.5h31.5"/><path d="m1306.5 1854.2v31.5"/><path d="m1290.8 1870h31.5"/><path d="m1279.5 1801.2v31.5"/><path d="m1263.8 1817h31.5"/><path d="m1339.5 1835.8v31.5"/><path d="m1323.8 1851.5h31.5"/><path d="m1638 1818.2v31.5"/><path d="m1622.2 1834h31.5"/><path d="m1415.5 1894.2v31.5"/><path d="m1399.8 1910h31.5"/><path d="m1364 1885.2v31.5"/><path d="m1348.2 1901h31.5"/><path d="m1616.5 1877.2v31.5"/><path d="m1600.8 1893h31.5"/><path d="m1480 1882.2v31.5"/><path d="m1464.2 1898h31.5"/><path d="m1594.5 1918.2v31.5"/><path d="m1578.8 1934h31.5"/><path d="m1394 1900.2v31.5"/><path d="m1378.2 1916h31.5"/><path d="m1340 1861.8v31.5"/><path d="m1324.2 1877.5h31.5"/><path d="m1518 1871.2v31.5"/><path d="m1502.2 1887h31.5"/><path d="m1412.5 1818.2v31.5"/><path d="m1396.8 1834h31.5"/><path d="m1280.5 1789.8v31.5"/><path d="m1264.8 1805.5h31.5"/><path d="m1422 1799.8v31.5"/><path d="m1406.2 1815.5h31.5"/><path d="m1296 1791.8v31.5"/><path d="m1280.2 1807.5h31.5"/><path d="m1487.5 1824.8v31.5"/><path d="m1471.8 1840.5h31.5"/><path d="m1337 1869.2v31.5"/><path d="m1321.2 1885h31.5"/><path d="m2359.5 1828.2v31.5"/><path d="m2343.8 1844h31.5"/><path d="m2699.5 1820.2v31.5"/><path d="m2683.8 1836h31.5"/><path d="m1560 1915.2v31.5"/><path d="m1544.2 1931h31.5"/><path d="m1652 1868.8v31.5"/><path d="m1636.2 1884.5h31.5"/><path d="m1319 1811.8v31.5"/><path d="m1303.2 1827.5h31.5"/><path d="m1336.5 1873.2v31.5"/><path d="m1320.8 1889h31.5"/><path d="m2125.5 1779.8v31.5"/><path d="m2109.8 1795.5h31.5"/><path d="m1593.5 1898.2v31.5"/><path d="m1577.8 1914h31.5"/><path d="m1332 1837.2v31.5"/><path d="m1316.2 1853h31.5"/><path d="m1405.5 1803.8v31.5"/><path d="m1389.8 1819.5h31.5"/><path d="m1268.5 1766.2v31.5"/><path d="m1252.8 1782h31.5"/><path d="m1418.5 1894.8v31.5"/><path d="m1402.8 1910.5h31.5"/><path d="m1411.5 1850.2v31.5"/><path d="m1395.8 1866h31.5"/><path d="m1437 1876.2v31.5"/><path d="m1421.2 1892h31.5"/><path d="m1382 1831.2v31.5"/><path d="m1366.2 1847h31.5"/><path d="m1402.5 1841.8v31.5"/><path d="m1386.8 1857.5h31.5"/><path d="m1471 1842.2v31.5"/><path d="m1455.2 1858h31.5"/><path d="m1314 1774.8v31.5"/><path d="m1298.2 1790.5h31.5"/><path d="m1317.5 1863.2v31.5"/><path d="m1301.8 1879h31.5"/><path d="m1433.5 1843.2v31.5"/><path d="m1417.8 1859h31.5"/><path d="m1348.5 1824.8v31.5"/><path d="m1332.8 1840.5h31.5"/><path d="m1336 1859.2v31.5"/><path d="m1320.2 1875h31.5"/><path d="m1510.5 1882.2v31.5"/><path d="m1494.8 1898h31.5"/><path d="m1474 1830.2v31.5"/><path d="m1458.2 1846h31.5"/><path d="m1402.5 1862.8v31.5"/><path d="m1386.8 1878.5h31.5"/><path d="m1747.5 1878.8v31.5"/><path d="m1731.8 1894.5h31.5"/><path d="m1330 1873.2v31.5"/><path d="m1314.2 1889h31.5"/><path d="m1421.5 1867.2v31.5"/><path d="m1405.8 1883h31.5"/><path d="m1299 1759.8v31.5"/><path d="m1283.2 1775.5h31.5"/><path d="m1329.5 1921.8v31.5"/><path d="m1313.8 1937.5h31.5"/><path d="m1326.5 1838.2v31.5"/><path d="m1310.8 1854h31.5"/><path d="m1324.5 1831.8v31.5"/><path d="m1308.8 1847.5h31.5"/><path d="m1294 1817.8v31.5"/><path d="m1278.2 1833.5h31.5"/><path d="m1340.5 1855.2v31.5"/><path d="m1324.8 1871h31.5"/><path d="m1431.5 1886.8v31.5"/><path d="m1415.8 1902.5h31.5"/><path d="m1364 1784.2v31.5"/><path d="m1348.2 1800h31.5"/><path d="m1418.5 1796.2v31.5"/><path d="m1402.8 1812h31.5"/><path d="m1350 1845.8v31.5"/><path d="m1334.2 1861.5h31.5"/><path d="m1488 1843.8v31.5"/><path d="m1472.2 1859.5h31.5"/><path d="m1993.5 1800.2v31.5"/><path d="m1977.8 1816h31.5"/><path d="m1386.5 1876.2v31.5"/><path d="m1370.8 1892h31.5"/><path d="m1504.5 1870.2v31.5"/><path d="m1488.8 1886h31.5"/><path d="m1396 1905.8v31.5"/><path d="m1380.2 1921.5h31.5"/><path d="m1331.5 1817.2v31.5"/><path d="m1315.8 1833h31.5"/><path d="m1385 1883.8v31.5"/><path d="m1369.2 1899.5h31.5"/><path d="m1383.5 1861.8v31.5"/><path d="m1367.8 1877.5h31.5"/><path d="m1294 1735.2v31.5"/><path d="m1278.2 1751h31.5"/><path d="m1357.5 1880.8v31.5"/><path d="m1341.8 1896.5h31.5"/><path d="m1417 1885.8v31.5"/><path d="m1401.2 1901.5h31.5"/><path d="m1331 1807.8v31.5"/><path d="m1315.2 1823.5h31.5"/><path d="m1346.5 1870.8v31.5"/><path d="m1330.8 1886.5h31.5"/><path d="m1695 1859.2v31.5"/><path d="m1679.2 1875h31.5"/><path d="m1373.5 1876.2v31.5"/><path d="m1357.8 1892h31.5"/><path d="m1332 1851.2v31.5"/><path d="m1316.2 1867h31.5"/><path d="m1489.5 1877.2v31.5"/><path d="m1473.8 1893h31.5"/><path d="m1873.5 1870.8v31.5"/><path d="m1857.8 1886.5h31.5"/><path d="m1938.5 1820.2v31.5"/><path d="m1922.8 1836h31.5"/><path d="m1617 1857.2v31.5"/><path d="m1601.2 1873h31.5"/><path d="m1334 1856.2v31.5"/><path d="m1318.2 1872h31.5"/><path d="m1353 1834.8v31.5"/><path d="m1337.2 1850.5h31.5"/><path d="m1856 1934.2v31.5"/><path d="m1840.2 1950h31.5"/><path d="m1399.5 1890.8v31.5"/><path d="m1383.8 1906.5h31.5"/><path d="m1581 1862.8v31.5"/><path d="m1565.2 1878.5h31.5"/><path d="m1361.5 1887.2v31.5"/><path d="m1345.8 1903h31.5"/><path d="m1373.5 1856.8v31.5"/><path d="m1357.8 1872.5h31.5"/><path d="m1364 1781.2v31.5"/><path d="m1348.2 1797h31.5"/><path d="m1370.5 1879.2v31.5"/><path d="m1354.8 1895h31.5"/><path d="m1352.5 1889.8v31.5"/><path d="m1336.8 1905.5h31.5"/><path d="m1377.5 1908.8v31.5"/><path d="m1361.8 1924.5h31.5"/><path d="m1431 1879.2v31.5"/><path d="m1415.2 1895h31.5"/><path d="m1325.5 1823.8v31.5"/><path d="m1309.8 1839.5h31.5"/><path d="m1329.5 1839.8v31.5"/><path d="m1313.8 1855.5h31.5"/><path d="m1337 1833.2v31.5"/><path d="m1321.2 1849h31.5"/><path d="m1305 1856.8v31.5"/><path d="m1289.2 1872.5h31.5"/><path d="m1325.5 1818.8v31.5"/><path d="m1309.8 1834.5h31.5"/><path d="m1307.5 1848.2v31.5"/><path d="m1291.8 1864h31.5"/><path d="m1421 1848.8v31.5"/><path d="m1405.2 1864.5h31.5"/><path d="m1400 1929.2v31.5"/><path d="m1384.2 1945h31.5"/><path d="m1306.5 1848.2v31.5"/><path d="m1290.8 1864h31.5"/><path d="m1543 1783.8v31.5"/><path d="m1527.2 1799.5h31.5"/><path d="m2140 1861.8v31.5"/><path d="m2124.2 1877.5h31.5"/><path d="m2311 1813.8v31.5"/><path d="m2295.2 1829.5h31.5"/><path d="m1970 1826.8v31.5"/><path d="m1954.2 1842.5h31.5"/><path d="m1576.5 1875.2v31.5"/><path d="m1560.8 1891h31.5"/><path d="m2611.5 1881.2v31.5"/><path d="m2595.8 1897h31.5"/><path d="m1372 1882.8v31.5"/><path d="m1356.2 1898.5h31.5"/><path d="m1354.5 1850.2v31.5"/><path d="m1338.8 1866h31.5"/><path d="m1365 1889.8v31.5"/><path d="m1349.2 1905.5h31.5"/><path d="m1403 1876.8v31.5"/><path d="m1387.2 1892.5h31.5"/><path d="m1548.5 1893.8v31.5"/><path d="m1532.8 1909.5h31.5"/><path d="m2305.5 1808.2v31.5"/><path d="m2289.8 1824h31.5"/><path d="m1728.5 1869.2v31.5"/><path d="m1712.8 1885h31.5"/><path d="m1398.5 1856.2v31.5"/><path d="m1382.8 1872h31.5"/><path d="m1551 1928.8v31.5"/><path d="m1535.2 1944.5h31.5"/><path d="m1479 1848.8v31.5"/><path d="m1463.2 1864.5h31.5"/><path d="m1383 1826.2v31.5"/><path d="m1367.2 1842h31.5"/><path d="m1375 1861.2v31.5"/><path d="m1359.2 1877h31.5"/><path d="m1359 1829.8v31.5"/><path d="m1343.2 1845.5h31.5"/><path d="m1385 1875.2v31.5"/><path d="m1369.2 1891h31.5"/><path d="m1371.5 1840.8v31.5"/><path d="m1355.8 1856.5h31.5"/><path d="m1353.5 1821.2v31.5"/><path d="m1337.8 1837h31.5"/><path d="m1438 1923.2v31.5"/><path d="m1422.2 1939h31.5"/><path d="m1306 1823.8v31.5"/><path d="m1290.2 1839.5h31.5"/><path d="m1478 1836.8v31.5"/><path d="m1462.2 1852.5h31.5"/><path d="m1320.5 1863.2v31.5"/><path d="m1304.8 1879h31.5"/><path d="m1485 1848.8v31.5"/><path d="m1469.2 1864.5h31.5"/><path d="m1512.5 1858.8v31.5"/><path d="m1496.8 1874.5h31.5"/><path d="m1352.5 1850.8v31.5"/><path d="m1336.8 1866.5h31.5"/><path d="m1369.5 1926.2v31.5"/><path d="m1353.8 1942h31.5"/><path d="m1330.5 1832.8v31.5"/><path d="m1314.8 1848.5h31.5"/><path d="m1385 1882.8v31.5"/><path d="m1369.2 1898.5h31.5"/><path d="m1342 1842.2v31.5"/><path d="m1326.2 1858h31.5"/><path d="m1356.5 1804.2v31.5"/><path d="m1340.8 1820h31.5"/><path d="m1676.5 1852.2v31.5"/><path d="m1660.8 1868h31.5"/><path d="m1448 1867.8v31.5"/><path d="m1432.2 1883.5h31.5"/><path d="m1344.5 1813.2v31.5"/><path d="m1328.8 1829h31.5"/><path d="m1303 1837.2v31.5"/><path d="m1287.2 1853h31.5"/><path d="m1377 1835.8v31.5"/><path d="m1361.2 1851.5h31.5"/><path d="m1448 1913.8v31.5"/><path d="m1432.2 1929.5h31.5"/><path d="m1393 1830.8v31.5"/><path d="m1377.2 1846.5h31.5"/><path d="m1483 1872.2v31.5"/><path d="m1467.2 1888h31.5"/><path d="m1334 1816.8v31.5"/><path d="m1318.2 1832.5h31.5"/><path d="m1359 1867.2v31.5"/><path d="m1343.2 1883h31.5"/><path d="m1374 1922.2v31.5"/><path d="m1358.2 1938h31.5"/><path d="m1840 1872.8v31.5"/><path d="m1824.2 1888.5h31.5"/><path d="m1333.5 1806.8v31.5"/><path d="m1317.8 1822.5h31.5"/><path d="m1433.5 1869.8v31.5"/><path d="m1417.8 1885.5h31.5"/><path d="m1485 1917.2v31.5"/><path d="m1469.2 1933h31.5"/><path d="m1663.5 1871.8v31.5"/><path d="m1647.8 1887.5h31.5"/><path d="m1431.5 1845.8v31.5"/><path d="m1415.8 1861.5h31.5"/><path d="m1299.5 1770.2v31.5"/><path d="m1283.8 1786h31.5"/><path d="m1363 1887.2v31.5"/><path d="m1347.2 1903h31.5"/><path d="m1473.5 1910.8v31.5"/><path d="m1457.8 1926.5h31.5"/><path d="m1296.5 1786.2v31.5"/><path d="m1280.8 1802h31.5"/><path d="m1360 1894.2v31.5"/><path d="m1344.2 1910h31.5"/><path d="m1719 1884.8v31.5"/><path d="m1703.2 1900.5h31.5"/><path d="m1293 1746.2v31.5"/><path d="m1277.2 1762h31.5"/><path d="m2689.5 1862.8v31.5"/><path d="m2673.8 1878.5h31.5"/><path d="m1688 1809.2v31.5"/><path d="m1672.2 1825h31.5"/><path d="m1330 1883.8v31.5"/><path d="m1314.2 1899.5h31.5"/><path d="m1420.5 1861.8v31.5"/><path d="m1404.8 1877.5h31.5"/><path d="m1308 1823.8v31.5"/><path d="m1292.2 1839.5h31.5"/><path d="m1351 1845.2v31.5"/><path d="m1335.2 1861h31.5"/><path d="m1387 1803.2v31.5"/><path d="m1371.2 1819h31.5"/><path d="m1379 1891.8v31.5"/><path d="m1363.2 1907.5h31.5"/><path d="m1514.5 1858.8v31.5"/><path d="m1498.8 1874.5h31.5"/><path d="m1557.5 1819.8v31.5"/><path d="m1541.8 1835.5h31.5"/><path d="m1449.5 1973.2v31.5"/><path d="m1433.8 1989h31.5"/><path d="m1355 1855.2v31.5"/><path d="m1339.2 1871h31.5"/><path d="m1431.5 1881.8v31.5"/><path d="m1415.8 1897.5h31.5"/><path d="m1299 1802.2v31.5"/><path d="m1283.2 1818h31.5"/><path d="m2671 1869.2v31.5"/><path d="m2655.2 1885h31.5"/><path d="m1333 1862.8v31.5"/><path d="m1317.2 1878.5h31.5"/><path d="m1347.5 1863.8v31.5"/><path d="m1331.8 1879.5h31.5"/><path d="m1433.5 1825.8v31.5"/><path d="m1417.8 1841.5h31.5"/><path d="m1507 1926.8v31.5"/><path d="m1491.2 1942.5h31.5"/><path d="m2003 1842.2v31.5"/><path d="m1987.2 1858h31.5"/><path d="m1372 1884.2v31.5"/><path d="m1356.2 1900h31.5"/><path d="m1271.5 1771.8v31.5"/><path d="m1255.8 1787.5h31.5"/><path d="m1373.5 1882.8v31.5"/><path d="m1357.8 1898.5h31.5"/><path d="m1401.5 1941.2v31.5"/><path d="m1385.8 1957h31.5"/><path d="m1424 1906.2v31.5"/><path d="m1408.2 1922h31.5"/><path d="m1420.5 1889.8v31.5"/><path d="m1404.8 1905.5h31.5"/><path d="m1408.5 1901.2v31.5"/><path d="m1392.8 1917h31.5"/><path d="m1346 1838.2v31.5"/><path d="m1330.2 1854h31.5"/><path d="m1314.5 1844.2v31.5"/><path d="m1298.8 1860h31.5"/><path d="m1839 1851.2v31.5"/><path d="m1823.2 1867h31.5"/><path d="m1364.5 1833.8v31.5"/><path d="m1348.8 1849.5h31.5"/><path d="m1384.5 1866.2v31.5"/><path d="m1368.8 1882h31.5"/><path d="m1350 1868.2v31.5"/><path d="m1334.2 1884h31.5"/><path d="m1307.5 1821.8v31.5"/><path d="m1291.8 1837.5h31.5"/><path d="m1364 1818.8v31.5"/><path d="m1348.2 1834.5h31.5"/><path d="m1467 1888.2v31.5"/><path d="m1451.2 1904h31.5"/><path d="m1332.5 1845.8v31.5"/><path d="m1316.8 1861.5h31.5"/><path d="m1360 1891.8v31.5"/><path d="m1344.2 1907.5h31.5"/><path d="m1381.5 1913.2v31.5"/><path d="m1365.8 1929h31.5"/><path d="m1371.5 1833.2v31.5"/><path d="m1355.8 1849h31.5"/><path d="m1958.5 1857.2v31.5"/><path d="m1942.8 1873h31.5"/><path d="m1342 1858.2v31.5"/><path d="m1326.2 1874h31.5"/><path d="m1344 1821.2v31.5"/><path d="m1328.2 1837h31.5"/><path d="m1323 1852.2v31.5"/><path d="m1307.2 1868h31.5"/><path d="m2034 1883.8v31.5"/><path d="m2018.2 1899.5h31.5"/><path d="m1437.5 1982.8v31.5"/><path d="m1421.8 1998.5h31.5"/><path d="m1302.5 1839.8v31.5"/><path d="m1286.8 1855.5h31.5"/><path d="m1309 1843.2v31.5"/><path d="m1293.2 1859h31.5"/><path d="m1265 1759.2v31.5"/><path d="m1249.2 1775h31.5"/><path d="m1334 1841.2v31.5"/><path d="m1318.2 1857h31.5"/><path d="m1329 1865.2v31.5"/><path d="m1313.2 1881h31.5"/><path d="m1291.5 1812.8v31.5"/><path d="m1275.8 1828.5h31.5"/><path d="m1283.5 1736.2v31.5"/><path d="m1267.8 1752h31.5"/><path d="m1427 1805.8v31.5"/><path d="m1411.2 1821.5h31.5"/></g></g></g></svg>
