<?xml version="1.0" encoding="UTF-8"?>
<svg width="1505.8" height="679.09" version="1.1" viewBox="0 0 1505.794 679.09333" xml:space="preserve" xmlns="http://www.w3.org/2000/svg"><g transform="matrix(1.3333 0 0 -1.3333 316.2 900.44)" fill="none" stroke="#000" stroke-linejoin="round" stroke-miterlimit="10"><g><path d="m111.36 231.6"/><path d="m111.36 231.6"/><path d="m111.36 231.6"/><path d="m111.36 231.6"/><path d="m111.36 231.6"/><path d="m111.36 231.6"/><path d="m111.36 231.6"/><path d="m111.36 231.6"/><path d="m111.36 231.6"/><path d="m111.36 231.6"/><path d="m111.36 231.6"/><path d="m111.36 231.6"/><path d="m111.36 231.6"/><path d="m111.36 231.6"/></g><g transform="translate(327.47 -11.813)"><g><path d="m111.36 231.6h0.24"/><path d="m111.6 231.6h0.48v0.24h0.24v0.24h0.24v0.24l0.24 0.24v0.48h0.24v0.72h0.24v0.72l0.24 0.24v0.96h0.24v0.96h0.24v1.2l0.24 0.24v1.2l0.24 0.24v1.2l0.24 0.24v0.96l0.24 0.48v1.44l0.24 0.24v1.44l0.24 0.48v1.2l0.24 0.24v1.44l0.24 0.24v1.44l0.24 0.48v1.68l0.24 0.48v1.44l0.24 0.72v1.2l0.24 0.48v1.2l0.24 0.72v1.2l0.24 0.72v1.44l0.24 0.72v1.44l0.24 0.72v1.44l0.24 0.96v0.72l0.24 0.72v1.68l0.24 0.96v0.96l0.24 0.72v0.96l0.24 0.96v1.92l0.24 0.96v0.96l0.24 0.96v0.96l0.24 0.96v1.2l0.24 0.96v1.2l0.24 0.96 0.24 1.2"/><path d="m120.48 287.52v1.2l0.24 0.96v1.2l0.24 1.2v1.2l0.24 1.2 0.24 1.2v1.44l0.24 1.2v1.2l0.24 1.44 0.24 1.2 0.24 1.44v1.2l0.24 1.44 0.24 1.44v1.44l0.24 1.44 0.24 1.44 0.24 1.44 0.24 1.44v1.44l0.24 1.68 0.24 1.44 0.24 1.44 0.24 1.68 0.24 1.68v1.44l0.24 1.68 0.24 1.68 0.24 1.68 0.24 1.68 0.24 1.68 0.24 1.68 0.24 1.92 0.24 1.68 0.24 1.68 0.24 1.92 0.48 1.68 0.24 1.92 0.24 1.92 0.24 1.68 0.24 1.92 0.24 1.92 0.48 1.92 0.24 1.92 0.24 1.92 0.48 2.16 0.24 1.92 0.24 1.92 0.48 2.16 0.24 1.92 0.48 2.16 0.24 1.92 0.48 2.16 0.24 2.16 0.48 2.16 0.48 2.16 0.24 2.16 0.48 2.16 0.48 2.16 0.24 2.16 0.48 2.16 0.48 2.16 0.48 2.4 0.48 2.16 0.48 2.4 0.48 2.16 0.48 2.4 0.48 2.16 0.48 2.4 0.48 2.4 0.48 2.16 0.72 2.4 0.48 2.4 0.48 2.4 0.72 2.4 0.48 2.4 0.72 2.4 0.72 2.4 0.48 2.4 0.72 2.4 0.72 2.4 0.72 2.4 0.48 2.64 0.72 2.4 0.72 2.4 0.72 2.4 0.96 2.64 0.72 2.4 0.72 2.4 0.96 2.64 0.72 2.4 0.96 2.64 0.72 2.4 0.96 2.64 0.96 2.4 0.72 2.4 0.96 2.64 0.96 2.4 1.2 2.64 0.96 2.4 0.96 2.64 1.2 2.4 0.96 2.64 1.2 2.4 0.96 2.4 1.2 2.64 1.2 2.4 1.2 2.4 1.44 2.64 1.2 2.4 1.2 2.4 1.44 2.64 1.44 2.4 1.2 2.4 1.44 2.4 1.68 2.4 1.44 2.4 1.44 2.64 1.68 2.16 1.68 2.4 1.44 2.4 1.68 2.4 1.92 2.4 1.68 2.4 1.92 2.16 1.68 2.4 1.92 2.4 2.16 2.16 1.92 2.16 1.92 2.4 2.16 2.16 2.16 2.16 2.16 2.16 2.4 2.16 2.16 2.16 2.4 2.16 2.4 2.16 2.4 2.16 2.64 1.92 2.64 2.16 2.64 1.92 2.64 1.92 2.88 2.16 2.88 1.92 2.88 1.92 3.12 1.92 2.88 1.68 3.36 1.92 3.12 1.92 3.36 1.68 3.36 1.68 3.36 1.92 3.6 1.68 3.6 1.68 3.84 1.44 3.84 1.68 3.84 1.68 4.08 1.44 4.08 1.44 4.08 1.44 4.32 1.68 4.56 1.2 4.56 1.44 4.56 1.44 4.8 1.2 4.8 1.44 5.04 1.2 5.04 1.2 5.28 1.2 5.28 0.96 5.52 1.2 5.52 0.96 5.76 1.2 6 0.96 6 0.96 6.24 0.72 6.24 0.96 6.48 0.72 6.72 0.96 6.72 0.72 6.96 0.72 7.2 0.72 7.2 0.48 7.44 0.72 7.68 0.48 7.92 0.48 7.92 0.48 8.16 0.48 8.4 0.48 8.64 0.24 8.88 0.24 8.88 0.24 9.36 0.24 9.36 0.24 9.6 0.24h10.08l10.08 0.24h10.32"/></g><path d="m561.84 231.6v455.04" stroke-dasharray="1.44, 2.88"/><g><path d="m106.8 231.6h455.04v455.04h-455.04v-455.04h455.04m-455.04 0h455.04"/><path d="m106.8 231.6v12.24"/><path d="m106.08 221.04-1.68-0.48-1.2-1.92-0.48-2.88v-1.68l0.48-2.88 1.2-1.68 1.68-0.72h1.2l1.68 0.72 1.2 1.68 0.72 2.88v1.68l-0.72 2.88-1.2 1.92-1.68 0.48h-1.2l-1.2-0.48-0.48-0.72-0.48-1.2-0.72-2.88v-1.68l0.72-2.88 0.48-1.2 0.48-0.48 1.2-0.72m1.2 0 1.2 0.72 0.48 0.48 0.72 1.2 0.48 2.88v1.68l-0.48 2.88-0.72 1.2-0.48 0.72-1.2 0.48"/><path d="m129.6 231.6v6m22.56-6v6m22.8-6v6m22.8-6v12.24"/><path d="m188.4 221.04-1.68-0.48-1.2-1.92-0.48-2.88v-1.68l0.48-2.88 1.2-1.68 1.68-0.72h1.2l1.68 0.72 1.2 1.68 0.72 2.88v1.68l-0.72 2.88-1.2 1.92-1.68 0.48h-1.2l-0.96-0.48-0.72-0.72-0.48-1.2-0.72-2.88v-1.68l0.72-2.88 0.48-1.2 0.72-0.48 0.96-0.72m1.2 0 1.2 0.72 0.48 0.48 0.72 1.2 0.48 2.88v1.68l-0.48 2.88-0.72 1.2-0.48 0.72-1.2 0.48m8.16-11.04-0.48-0.48 0.48-0.72 0.48 0.72-0.48 0.48m5.28 8.64 0.48-0.48-0.48-0.72-0.72 0.72v0.48l0.72 1.2 0.48 0.72 1.68 0.48h2.4l1.68-0.48 0.72-0.72 0.48-1.2v-1.2l-0.48-0.96-1.92-1.2-2.88-1.2-1.2-0.48"/><path d="m204 213.6-0.96-1.2-0.72-1.68v-1.92m5.28 12.24 1.2-0.48 0.48-0.72 0.72-1.2v-1.2l-0.72-0.96-1.68-1.2-2.4-1.2m-2.88-4.08 0.72 0.72h0.96l2.88-1.2h1.92l1.2 0.48 0.48 0.72m-6.48 0 2.88-1.92h2.4l0.72 0.72 0.48 1.2v0.96"/><path d="m220.56 231.6v6m22.8-6v6m22.56-6v6m22.8-6v12.24"/><path d="m279.6 221.04-1.92-0.48-0.96-1.92-0.72-2.88v-1.68l0.72-2.88 0.96-1.68 1.92-0.72h1.2l1.68 0.72 1.2 1.68 0.48 2.88v1.68l-0.48 2.88-1.2 1.92-1.68 0.48h-1.2l-1.2-0.48-0.72-0.72-0.48-1.2-0.48-2.88v-1.68l0.48-2.88 0.48-1.2 0.72-0.48 1.2-0.72m1.2 0 0.96 0.72 0.72 0.48 0.48 1.2 0.72 2.88v1.68l-0.72 2.88-0.48 1.2-0.72 0.72-0.96 0.48m7.92-11.04-0.48-0.48 0.48-0.72 0.72 0.72-0.72 0.48m9.84 9.84v-11.04m0.72 12.24v-12.24m0 12.24-6.48-8.64h9.36m-5.28-3.6h4.08"/><path d="m311.52 231.6v6m22.8-6v6m22.8-6v6m22.8-6v12.24"/><path d="m370.56 221.04-1.68-0.48-1.2-1.92-0.48-2.88v-1.68l0.48-2.88 1.2-1.68 1.68-0.72h1.2l1.68 0.72 1.2 1.68 0.48 2.88v1.68l-0.48 2.88-1.2 1.92-1.68 0.48h-1.2l-1.2-0.48-0.48-0.72-0.72-1.2-0.48-2.88v-1.68l0.48-2.88 0.72-1.2 0.48-0.48 1.2-0.72m1.2 0 1.2 0.72 0.48 0.48 0.48 1.2 0.72 2.88v1.68l-0.72 2.88-0.48 1.2-0.48 0.72-1.2 0.48m8.16-11.04-0.72-0.48 0.72-0.72 0.48 0.72-0.48 0.48m11.52 9.36-0.72-0.72 0.72-0.48 0.48 0.48v0.72l-0.48 1.2-1.2 0.48h-1.68l-1.92-0.48-0.96-1.2-0.72-1.2-0.48-2.4v-3.36l0.48-1.68 1.2-1.2 1.68-0.72h1.2l1.68 0.72 1.2 1.2 0.48 1.68v0.48l-0.48 1.68-1.2 1.2-1.68 0.72h-0.48l-1.92-0.72-0.96-1.2-0.72-1.68m3.6 8.16-1.2-0.48-1.2-1.2-0.48-1.2-0.72-2.4v-3.36l0.72-1.68 0.96-1.2 1.2-0.72m1.2 0 1.2 0.72 1.2 1.2 0.48 1.68v0.48l-0.48 1.68-1.2 1.2-1.2 0.72"/><path d="m402.48 231.6v6m22.8-6v6m22.8-6v6m22.8-6v12.24"/><path d="m461.52 221.04-1.68-0.48-1.2-1.92-0.48-2.88v-1.68l0.48-2.88 1.2-1.68 1.68-0.72h1.2l1.68 0.72 1.2 1.68 0.72 2.88v1.68l-0.72 2.88-1.2 1.92-1.68 0.48h-1.2l-1.2-0.48-0.48-0.72-0.48-1.2-0.72-2.88v-1.68l0.72-2.88 0.48-1.2 0.48-0.48 1.2-0.72m1.2 0 1.2 0.72 0.48 0.48 0.72 1.2 0.48 2.88v1.68l-0.48 2.88-0.72 1.2-0.48 0.72-1.2 0.48m8.16-11.04-0.72-0.48 0.72-0.72 0.48 0.72-0.48 0.48m7.44 11.04-1.68-0.48-0.72-1.2v-1.92l0.72-0.96 1.68-0.72h2.4l1.68 0.72 0.48 0.96v1.92l-0.48 1.2-1.68 0.48h-2.4l-1.2-0.48-0.48-1.2v-1.92l0.48-0.96 1.2-0.72m2.4 0 1.2 0.72 0.48 0.96v1.92l-0.48 1.2-1.2 0.48m-2.4-5.28-1.68-0.48-0.72-0.72-0.48-0.96v-2.4l0.48-1.2 0.72-0.48 1.68-0.72h2.4l1.68 0.72 0.48 0.48 0.72 1.2v2.4l-0.72 0.96-0.48 0.72-1.68 0.48m-2.4 0-1.2-0.48-0.48-0.72-0.72-0.96v-2.4l0.72-1.2 0.48-0.48 1.2-0.72m2.4 0 1.2 0.72 0.48 0.48 0.48 1.2v2.4l-0.48 0.96-0.48 0.72-1.2 0.48"/><path d="m493.68 231.6v6m22.56-6v6m22.8-6v6m22.8-6v12.24"/><path d="m559.44 218.64 1.2 0.72 1.68 1.68v-12.24m-0.48 11.76v-11.76m-2.4 0h5.28"/><path d="m106.8 686.64h455.04"/><path d="m106.8 686.64v-12.24m22.8 12.24v-6.24m22.56 6.24v-6.24m22.8 6.24v-6.24m22.8 6.24v-12.24m22.8 12.24v-6.24m22.8 6.24v-6.24m22.56 6.24v-6.24m22.8 6.24v-12.24m22.8 12.24v-6.24m22.8 6.24v-6.24m22.8 6.24v-6.24m22.8 6.24v-12.24m22.56 12.24v-6.24m22.8 6.24v-6.24m22.8 6.24v-6.24m22.8 6.24v-12.24m22.8 12.24v-6.24m22.56 6.24v-6.24m22.8 6.24v-6.24m22.8 6.24v-12.24m-455.04-442.8v455.04"/><path d="m106.8 231.6h12.24"/><path d="m89.76 237.6-1.6801-0.48-1.2-1.92-0.4801-2.88v-1.68l0.4801-2.88 1.2-1.68 1.6801-0.72h1.2l1.6796 0.72 1.2 1.68 0.7204 2.88v1.68l-0.7204 2.88-1.2 1.92-1.6796 0.48h-1.2l-0.9602-0.48-0.7199-0.72-0.4801-1.2-0.7199-2.88v-1.68l0.7199-2.88"/><path d="m87.6 227.76 0.4801-1.2 0.7199-0.48 0.9602-0.72m1.2 0 1.2 0.72 0.4796 0.48 0.7204 1.2 0.4796 2.88v1.68l-0.4796 2.88-0.7204 1.2-0.4796 0.72-1.2 0.48"/><path d="m106.8 252.24h6m-6 20.64h6m-6 20.64h6m-6 20.64h12.24"/><path d="m72.48 320.4-1.6801-0.72-1.2-1.68-0.4801-2.88v-1.68l0.4801-2.88 1.2-1.68 1.6801-0.72h1.2l1.6801 0.72 1.2 1.68 0.4796 2.88v1.68l-0.4796 2.88-1.2 1.68-1.6801 0.72h-1.2l-1.2-0.72-0.4801-0.48-0.4801-1.2-0.7199-2.88v-1.68l0.7199-2.88 0.4801-1.2 0.4801-0.48 1.2-0.72m1.2 0 1.2 0.72 0.4801 0.48 0.7199 1.2 0.4801 2.88v1.68l-0.4801 2.88-0.7199 1.2-0.4801 0.48-1.2 0.72m8.1597-11.04-0.7199-0.48 0.7199-0.72 0.4801 0.72-0.4801 0.48m5.0403 8.64 0.7199-0.48-0.7199-0.72-0.4801 0.72v0.48l0.4801 1.2 0.7199 0.48 1.6801 0.72h2.4l1.6801-0.72 0.4796-0.48 0.7204-1.2v-1.2l-0.7204-0.96-1.6796-1.2-2.8801-1.2-1.2-0.72-1.2-0.96-0.4801-1.92v-1.68m5.2801 12.24 0.9597-0.72 0.7204-0.48 0.4796-1.2v-1.2l-0.4796-0.96-1.6801-1.2-2.4-1.2m-2.8801-4.08 0.4801 0.48h1.2l2.8801-0.96h1.6796l1.2 0.48 0.7204 0.48m-6.4801 0 2.8801-1.68h2.4l0.4796 0.72 0.7204 0.96v1.2"/><path d="m106.8 335.04h6m-6 20.64h6m-6 20.64h6m-6 20.64h12.24"/><path d="m72.48 403.2-1.6801-0.72-1.2-1.68-0.4801-2.88v-1.68l0.4801-2.88 1.2-1.92 1.6801-0.48h1.2l1.6801 0.48 1.2 1.92 0.4796 2.88v1.68l-0.4796 2.88-1.2 1.68-1.6801 0.72h-1.2l-1.2-0.72-0.4801-0.48-0.4801-1.2-0.7199-2.88v-1.68l0.7199-2.88 0.4801-1.2 0.4801-0.72 1.2-0.48m1.2 0 1.2 0.48 0.4801 0.72 0.7199 1.2 0.4801 2.88v1.68l-0.4801 2.88-0.7199 1.2-0.4801 0.48-1.2 0.72m8.1597-11.04-0.7199-0.72 0.7199-0.48 0.4801 0.48-0.4801 0.72m9.8403 9.84v-11.04m0.4801 12.24v-12.24m0 12.24-6.2403-8.88h9.1199m-5.2796-3.36h4.0796"/><path d="m106.8 417.6h6m-6 20.88h6m-6 20.64h6m-6 20.64h12.24"/><path d="m72.48 485.76-1.6801-0.48-1.2-1.68-0.4801-2.88v-1.92l0.4801-2.88 1.2-1.68 1.6801-0.48h1.2l1.6801 0.48 1.2 1.68 0.4796 2.88v1.92l-0.4796 2.88-1.2 1.68-1.6801 0.48h-1.2l-1.2-0.48-0.4801-0.48-0.4801-1.2-0.7199-2.88v-1.92l0.7199-2.88 0.4801-0.96 0.4801-0.72 1.2-0.48m1.2 0 1.2 0.48 0.4801 0.72 0.7199 0.96 0.4801 2.88v1.92l-0.4801 2.88-0.7199 1.2-0.4801 0.48-1.2 0.48m8.1597-10.8-0.7199-0.72 0.7199-0.48 0.4801 0.48-0.4801 0.72m11.52 9.12-0.7204-0.48 0.7204-0.72 0.4796 0.72v0.48l-0.4796 1.2-1.2 0.48h-1.6801l-1.6801-0.48-1.2-1.2-0.7199-1.2-0.4801-2.16v-3.6l0.4801-1.68 1.2-1.2 1.6801-0.48h1.2l1.6796 0.48 1.2 1.2 0.7204 1.68v0.72l-0.7204 1.68-1.2 1.2-1.6796 0.48h-0.4801l-1.6801-0.48-1.2-1.2-0.7199-1.68m3.6 7.92-1.2-0.48-1.2-1.2-0.4801-1.2-0.7199-2.16v-3.6l0.7199-1.68 1.2-1.2 0.9602-0.48m1.2 0 1.2 0.48 1.2 1.2 0.4796 1.68v0.72l-0.4796 1.68-1.2 1.2-1.2 0.48"/><path d="m106.8 500.4h6m-6 20.64h6m-6 20.88h6m-6 20.64h12.24"/><path d="m72.48 568.56-1.6801-0.48-1.2-1.68-0.4801-3.12v-1.68l0.4801-2.88 1.2-1.68 1.6801-0.48h1.2l1.6801 0.48 1.2 1.68 0.4796 2.88v1.68l-0.4796 3.12-1.2 1.68-1.6801 0.48h-1.2l-1.2-0.48-0.4801-0.72-0.4801-0.96-0.7199-3.12v-1.68l0.7199-2.88 0.4801-1.2 0.4801-0.48 1.2-0.48m1.2 0 1.2 0.48 0.4801 0.48 0.7199 1.2 0.4801 2.88v1.68l-0.4801 3.12-0.7199 0.96-0.4801 0.72-1.2 0.48m8.1597-11.04-0.7199-0.48 0.7199-0.48 0.4801 0.48-0.4801 0.48m7.4403 11.04-1.6801-0.48-0.7199-1.2v-1.68l0.7199-1.2 1.6801-0.72h2.4l1.6801 0.72 0.4796 1.2v1.68l-0.4796 1.2-1.6801 0.48h-2.4l-1.2-0.48-0.4801-1.2v-1.68l0.4801-1.2 1.2-0.72m2.4 0 0.9597 0.72 0.7204 1.2v1.68l-0.7204 1.2-0.9597 0.48m-2.4-5.28l-1.6801-0.48-0.7199-0.48-0.4801-1.2v-2.4l0.4801-1.2 0.7199-0.48 1.6801-0.48h2.4l1.6801 0.48 0.4796 0.48 0.7204 1.2v2.4l-0.7204 1.2-0.4796 0.48"/><path d="m93.36 562.8-1.6801 0.48m-2.4 0-1.2-0.48-0.4801-0.48-0.7199-1.2v-2.4l0.7199-1.2 0.4801-0.48 1.2-0.48m2.4 0 0.9597 0.48 0.7204 0.48 0.4796 1.2v2.4l-0.4796 1.2-0.7204 0.48-0.9597 0.48"/><path d="m106.8 583.2h6m-6 20.64h6m-6 20.64h6m-6 20.88h12.24"/><path d="m88.08 648.96 1.2 0.72 1.6801 1.68v-12.24m-0.4801 11.76v-11.76m-2.4 0h5.2801"/><path d="m106.8 666h6m-6 20.64h6m449.04-455.04v455.04"/><path d="m561.84 231.6h-12.24m12.24 20.64h-6.24m6.24 20.64h-6.24m6.24 20.64h-6.24m6.24 20.64h-12.24m12.24 20.88h-6.24m6.24 20.64h-6.24m6.24 20.64h-6.24m6.24 20.64h-12.24m12.24 20.64h-6.24m6.24 20.88h-6.24m6.24 20.64h-6.24m6.24 20.64h-12.24m12.24 20.64h-6.24m6.24 20.64h-6.24m6.24 20.88h-6.24m6.24 20.64h-12.24m12.24 20.64h-6.24m6.24 20.64h-6.24m6.24 20.64h-6.24m6.24 20.88h-12.24m12.24 20.64h-6.24m6.24 20.64h-6.24"/><path d="m256.32 196.56 0.48 1.92v-3.6l-0.48 1.68-1.2 1.2-1.68 0.72h-1.68l-1.92-0.72-0.96-1.2v-0.96l0.48-1.2 0.48-0.72 1.2-0.48 3.6-1.2 1.2-0.48 0.96-1.2m-7.92 5.28 0.96-1.2 1.2-0.72 3.6-0.96 1.2-0.72 0.48-0.48 0.48-1.2v-2.4l-0.96-1.2-1.92-0.48h-1.68l-1.68 0.48-1.2 1.2-0.48 1.92v-3.6l0.48 1.68m12.24 10.56v-12.24m0.48 12.24v-12.24m-2.4 12.24h6.96l1.68-0.72 0.72-0.48 0.48-1.2v-1.68l-0.48-1.2-0.72-0.48-1.68-0.72h-4.56m4.56 6.48 1.2-0.72 0.48-0.48 0.72-1.2v-1.68l-0.72-1.2-0.48-0.48-1.2-0.72m-6.96-5.76h4.08m10.56 12.24v-12.24m0.48 12.24v-12.24m6.96 12.24v-12.24m0.48 12.24v-12.24m-9.84 12.24h4.08m3.6 0h3.84m-9.12-5.76h6.96m-9.36-6.48h4.08m3.6 0h3.84m4.08 12.24v-12.24m0.72 12.24v-12.24m3.36 8.64v-4.56m-5.76 8.16h9.36v-3.6l-0.72 3.6m-6.24-5.76h3.36m-5.76-6.48h9.36v3.6l-0.72-3.6m5.28 12.24v-12.24m0.48 12.24v-12.24m-2.16 12.24h6.96l1.68-0.72 0.48-0.48 0.72-1.2v-1.2l-0.72-1.2-0.48-0.48-1.68-0.48h-4.8m4.8 5.76 0.96-0.72 0.72-0.48 0.48-1.2v-1.2l-0.48-1.2-0.72-0.48-0.96-0.48m-6.96-6.48h3.84m1.2 6.48 1.2-0.72 0.72-0.48 1.68-4.08 0.48-0.72h0.72l0.48 0.72m-4.08 4.56 0.72-1.2 0.96-4.08 0.72-0.48h1.2l0.48 1.2v0.48m6.96 10.56-1.68-0.72-1.2-1.2-0.72-0.96-0.48-2.4v-1.68l0.48-2.4 0.72-1.2 1.2-1.2 1.68-0.48h1.2l1.68 0.48 1.2 1.2 0.48 1.2 0.72 2.4v1.68l-0.72 2.4-0.48 0.96-1.2 1.2-1.68 0.72h-1.2l-1.2-0.72-1.2-1.2-0.48-0.96-0.72-2.4v-1.68l0.72-2.4 0.48-1.2 1.2-1.2 1.2-0.48m1.2 0 0.96 0.48 1.2 1.2 0.72 1.2 0.48 2.4v1.68l-0.48 2.4-0.72 0.96-1.2 1.2-0.96 0.72m8.64 0v-12.24m0.48 12.24v-12.24m-2.16 12.24h3.84m-3.84-12.24h3.84m4.08 12.24v-12.24m0.72 12.24v-12.24m-2.4 12.24h5.76l1.68-0.72 1.2-1.2 0.72-0.96 0.48-1.92v-2.88l-0.48-1.68-0.72-1.2-1.2-1.2-1.68-0.48h-5.76m5.76 12.24 1.2-0.72 1.2-1.2 0.48-0.96 0.72-1.92v-2.88l-0.72-1.68-0.48-1.2-1.2-1.2-1.2-0.48m6.48 0h7.44m6.24 12.24-4.08-12.24m4.08 12.24 4.08-12.24m-4.08 10.32 3.6-10.32m-6.48 3.6h5.28m-7.44-3.6h3.36m3.6 0h3.36m9.84 10.32 0.48 1.92v-3.6l-0.48 1.68-1.2 1.2-1.68 0.72h-1.68l-1.92-0.72-0.96-1.2v-0.96l0.48-1.2 0.48-0.72 1.2-0.48 3.6-1.2 1.2-0.48 0.96-1.2m-7.92 5.28 0.96-1.2 1.2-0.72 3.6-0.96 1.2-0.72 0.48-0.48 0.48-1.2v-2.4l-0.96-1.2-1.92-0.48h-1.68l-1.68 0.48-1.2 1.2-0.48 1.92v-3.6l0.48 1.68m12.24 10.56v-12.24m0.48 12.24v-12.24m-2.4 12.24h6.96l1.68-0.72 0.72-0.48 0.48-1.2v-1.68l-0.48-1.2-0.72-0.48-1.68-0.72h-4.56m4.56 6.48 1.2-0.72 0.48-0.48 0.72-1.2v-1.68l-0.72-1.2-0.48-0.48-1.2-0.72m-6.96-5.76h4.08m10.56 12.24v-12.24m0.48 12.24v-12.24m3.36 8.64v-4.56m-5.76 8.16h9.36v-3.6l-0.72 3.6m-6.24-5.76h3.36m-5.76-6.48h9.36v3.6l-0.72-3.6m12.24 10.32 0.48-1.68v3.6l-0.48-1.92-1.2 1.2-1.68 0.72h-1.2l-1.68-0.72-1.2-1.2-0.48-0.96-0.72-1.92v-2.88l0.72-1.68 0.48-1.2 1.2-1.2 1.68-0.48h1.2l1.68 0.48 1.2 1.2 0.48 1.2m-4.56 9.36-1.2-0.72-1.2-1.2"/><path d="m401.76 196.56-0.48-0.96-0.48-1.92v-2.88l0.48-1.68 0.48-1.2 1.2-1.2 1.2-0.48m11.52 12.24v-12.24m0.72 12.24v-12.24m-4.08 12.24-0.72-3.6v3.6h8.64v-3.6l-0.48 3.6m-5.76-12.24h4.08"/><path d="m44.64 395.04h8.1602m-8.1602 0.48h8.1602m-4.5602 0-1.9199 0.72-0.9597 0.96-0.7204 1.2v1.68l0.7204 0.72h0.4796l0.4801-0.72-0.4801-0.48-0.4796 0.48m-0.7204-6.96v2.4m8.1602-2.4v4.08m-4.5602 6.96v6.96h-1.2l-1.2-0.48-0.4796-0.72-0.7204-1.2v-1.68l0.7204-1.68 0.9597-1.2 1.9199-0.48h1.2l1.6801 0.48 1.2 1.2 0.4801 1.68v1.2l-0.4801 1.68-1.2 1.2m-2.8801-0.48h-1.9199l-0.9597-0.72m-0.7204-2.88 0.7204-1.2 0.9597-0.96 1.9199-0.72h1.2l1.6801 0.72 1.2 0.96 0.4801 1.2m-12.24 8.64h12.24m-12.24 0.72h12.24m-12.24-2.4v2.4m12.24-2.4v4.08m-6.9602 4.08h0.4801v-0.72h-0.4801l-0.4796 0.72-0.7204 1.2v2.16l0.7204 1.2 0.4796 0.48 1.2 0.72h4.0801l1.2 0.48 0.4801 0.72m-6.9602-1.92h5.2801l1.2 0.72 0.4801 1.2v0.48m-5.7602-2.4 0.4801-0.48 0.7199-3.36 0.4801-1.92 1.2-0.48h1.2l1.2 0.48 0.4801 1.92v1.68l-0.4801 1.2-1.2 0.96m-2.8801-3.84 0.4801-1.2 1.2-0.72h1.2l1.2 0.72 0.4801 1.2m-12.24 10.32h9.8398l1.9199 0.48 0.4801 1.2v1.2l-0.4801 1.2-1.2 0.48m-10.56-4.08h9.8398l1.9199 0.72 0.4801 0.48m-8.1602-3.36v4.56m-4.0796 5.76 0.7199-0.48 0.4801 0.48-0.4801 0.48-0.7199-0.48m4.0796 0h8.1602m-8.1602 0.48h8.1602m-8.1602-2.16v2.16m8.1602-2.16v4.08m-8.1602 2.88 8.1602 3.36m-8.1602-2.88 6.9602 2.88m-6.9602 3.6 8.1602-3.6m-8.1602-4.56v3.36m0 2.4v3.36m3.6 2.88v6.96h-1.2l-1.2-0.48-0.4796-0.48-0.7204-1.2v-1.92l0.7204-1.68 0.9597-1.2 1.9199-0.48h1.2l1.6801 0.48 1.2 1.2 0.4801 1.68v1.2l-0.4801 1.92-1.2 0.96m-2.8801-0.48h-1.9199l-0.9597-0.48m-0.7204-3.12 0.7204-0.96 0.9597-1.2 1.9199-0.72h1.2l1.6801 0.72 1.2 1.2 0.4801 0.96m-8.1602 18h12.24m-12.24 0.72h12.24m-10.56 0-0.9597 0.96-0.7204 1.2v1.2l0.7204 1.68 0.9597 1.2 1.9199 0.48h1.2l1.6801-0.48 1.2-1.2 0.4801-1.68v-1.2l-0.4801-1.2-1.2-0.96m-6.4801 3.36 0.7204 1.2 0.9597 1.2 1.9199 0.48h1.2l1.6801-0.48 1.2-1.2 0.4801-1.2m-8.1602-5.76v2.4m12.24-2.4v4.08m-12.24 9.84h8.1602m-8.1602 0.48h8.1602m-4.5602 0-1.9199 0.48-0.9597 1.2-0.7204 1.2v1.68l0.7204 0.72h0.4796l0.4801-0.72-0.4801-0.48-0.4796 0.48m-0.7204-6.96v2.4m8.1602-2.4v4.08m-12.24 7.68 0.7199-0.72 0.4801 0.72-0.4801 0.48-0.7199-0.48m4.0796 0h8.1602m-8.1602 0.48h8.1602m-8.1602-2.4v2.4m8.1602-2.4v4.08m-8.1602 6.48 0.7204-1.92 0.9597-0.96 1.9199-0.72h1.2l1.6801 0.72 1.2 0.96 0.4801 1.92v0.96l-0.4801 1.92-1.2 1.2-1.6801 0.48h-1.2l-1.9199-0.48-0.9597-1.2-0.7204-1.92v-0.96l0.7204-1.2 0.9597-1.2 1.9199-0.48h1.2l1.6801 0.48 1.2 1.2 0.4801 1.2m0 0.96-0.4801 1.2-1.2 1.2-1.6801 0.72h-1.2l-1.9199-0.72-0.9597-1.2-0.7204-1.2m0 8.16h8.1602m-8.1602 0.72h8.1602m-4.5602 0-1.9199 0.48-0.9597 1.2-0.7204 1.2v1.68l0.7204 0.48h0.4796l0.4801-0.48-0.4801-0.72-0.4796 0.72m-0.7204-6.96v2.4m8.1602-2.4v4.08"/></g></g><g transform="translate(-275.92 -11.813)"><g><path d="m138 231.6v2.4l0.24 0.48v5.28l0.24 0.48v4.08l0.24 0.48v3.6l0.24 0.48v3.84l0.24 0.24v3.36l0.24 0.48v2.4l0.24 0.48v2.88l0.24 0.48v2.4l0.24 0.48v1.92l0.24 0.48v2.16l0.24 0.24v2.16l0.24 0.48v1.68l0.24 0.24v1.68l0.24 0.48v1.68l0.24 0.48v1.68l0.24 0.24v1.2l0.24 0.48v1.68l0.24 0.48v1.2l0.24 0.48v1.2l0.24 0.48v1.2l0.24 0.24v0.96l0.24 0.48v1.2l0.24 0.24v0.96l0.24 0.48v1.2l0.24 0.48v0.72l0.24 0.48v0.72l0.24 0.48v0.72l0.24 0.48v0.96l0.24 0.24v0.96l0.24 0.24v0.48l0.24 0.48v0.72l0.24 0.48v0.96l0.24 0.24v0.48l0.24 0.48v0.72l0.24 0.48v0.48l0.24 0.24v0.96l0.24 0.24v0.48l0.24 0.48v0.72l0.24 0.48v0.48l0.24 0.48v0.24l0.24 0.48v0.48l0.24 0.24v0.48l0.24 0.48v0.48l0.24 0.24v0.48l0.24 0.48v0.24l0.24 0.48v0.48l0.24 0.48v0.24l0.24 0.48v0.48l0.24 0.48v0.24l0.24 0.48v0.48l0.24 0.24v0.48l0.24 0.48 0.24 0.48v0.24l0.24 0.48v0.48l0.24 0.48v0.24l0.24 0.48 0.24 0.48v0.24l0.24 0.48 0.24 0.48v0.48l0.24 0.24v0.48l0.24 0.48 0.24 0.48v0.24l0.24 0.48 0.24 0.48v0.24l0.24 0.48 0.24 0.48v0.48l0.24 0.24 0.24 0.48 0.24 0.48v0.24l0.24 0.48 0.24 0.48 0.24 0.48v0.24l0.24 0.48 0.24 0.48 0.24 0.48v0.24l0.24 0.48 0.24 0.48 0.24 0.24 0.24 0.48v0.48l0.24 0.48 0.24 0.24 0.24 0.48 0.24 0.48v0.24l0.24 0.48 0.24 0.48 0.24 0.48 0.24 0.24 0.24 0.48 0.24 0.48 0.24 0.48 0.24 0.24v0.48l0.24 0.48 0.24 0.24 0.24 0.48 0.24 0.48 0.24 0.48 0.24 0.24 0.24 0.48 0.24 0.48 0.24 0.48 0.24 0.24 0.24 0.48 0.24 0.48 0.24 0.24 0.24 0.48 0.24 0.48 0.24 0.48 0.24 0.24 0.48 0.48 0.24 0.48 0.24 0.48 0.24 0.24 0.24 0.48 0.24 0.48 0.24 0.24 0.24 0.48 0.24 0.48"/><path d="m166.32 355.68 0.48 0.48 0.24 0.24 0.24 0.48 0.24 0.48 0.24 0.24 0.48 0.48 0.24 0.48 0.24 0.48 0.24 0.24 0.48 0.48 0.24 0.48 0.24 0.48 0.24 0.24 0.48 0.48 0.24 0.48 0.24 0.24 0.48 0.48 0.24 0.48 0.24 0.48 0.48 0.24 0.24 0.48 0.24 0.48 0.48 0.24 0.24 0.48 0.48 0.48 0.24 0.48 0.24 0.24 0.48 0.48 0.24 0.48 0.48 0.48 0.24 0.24 0.48 0.48 0.24 0.48 0.48 0.24 0.24 0.48 0.48 0.48 0.48 0.48 0.24 0.24 0.48 0.48 0.24 0.48 0.48 0.24 0.24 0.48 0.48 0.48 0.48 0.48 0.24 0.24 0.48 0.48 0.48 0.48 0.24 0.48 0.48 0.24 0.48 0.48 0.48 0.48 0.24 0.24 0.48 0.48 0.48 0.48 0.48 0.48 0.48 0.24 0.24 0.48 0.48 0.48 0.48 0.48 0.48 0.24 0.48 0.48 0.48 0.48 0.48 0.24 0.24 0.48 0.48 0.48 0.48 0.48 0.48 0.24 0.48 0.48 0.48 0.48 0.48 0.48 0.48 0.24 0.48 0.48 0.48 0.48 0.48 0.24 0.48 0.48 0.72 0.48 0.48 0.48 0.48 0.24 0.48 0.48 0.48 0.48 0.48 0.24 0.48 0.48 0.72 0.48 0.48 0.48 0.48 0.24 0.48 0.48 0.48 0.48 0.72 0.48 0.48 0.24 0.48 0.48 0.72 0.48 0.48 0.24 0.48 0.48 0.72 0.48 0.48 0.48 0.48 0.24 0.72 0.48 0.48 0.48 0.72 0.24 0.48 0.48 0.72 0.48 0.48 0.48 0.72 0.24 0.48 0.48 0.72 0.48 0.48 0.48 0.72 0.24 0.48 0.48 0.72 0.48 0.72 0.24 0.48 0.48 0.72 0.48 0.48 0.48 0.72 0.24 0.72 0.48 0.72 0.48 0.48 0.48 0.72 0.24 0.72 0.48 0.48 0.48 0.72 0.24 0.72 0.48 0.72 0.48 0.72 0.48 0.72 0.24 0.48 0.48 0.72 0.48 0.72 0.48 0.72 0.24 0.72 0.48 0.72 0.48 0.72 0.24 0.72 0.48 0.72 0.48 0.72 0.48 0.72 0.24 0.72 0.48 0.72 0.48 0.72 0.24 0.72 0.48 0.72 0.48 0.72 0.48 0.72 0.24 0.96 0.48 0.72 0.48 0.72 0.48 0.72 0.24 0.72 0.48 0.96 0.48 0.72 0.24 0.72 0.48 0.72 0.48 0.96 0.48 0.72 0.24 0.72 0.48 0.96 0.48 0.72 0.24 0.72 0.48 0.96 0.48 0.72 0.48 0.72 0.24 0.96 0.48 0.72 0.48 0.96 0.48 0.72 0.24 0.96 0.48 0.72 0.48 0.96 0.24 0.72 0.48 0.96 0.48 0.72 0.48 0.96 0.24 0.72 0.48 0.96 0.48 0.72 0.48 0.96 0.24 0.96 0.48 0.72 0.48 0.96 0.24 0.72 0.48 0.96 0.48 0.96 0.48 0.96 0.24 0.72 0.48 0.96 0.48 0.96 0.48 0.72 0.24 0.96 0.48 0.96 0.48 0.96 0.24 0.72 0.48 0.96 0.48 0.96 0.48 0.96 0.24 0.96 0.48 0.72 0.48 0.96 0.24 0.96 0.48 0.96 0.48 0.96 0.48 0.96 0.24 0.96 0.48 0.96 0.48 0.72 0.48 0.96 0.24 0.96 0.48 0.96 0.48 0.96 0.24 0.96 0.48 0.96 0.48 0.96 0.48 0.96 0.24 0.96 0.48 0.96 0.48 0.96 0.24 0.96 0.48 0.96 0.48 0.96 0.48 0.96 0.24 0.96 0.48 0.96 0.48 0.96 0.48 0.96 0.24 0.96 0.48 0.96 0.48 0.96 0.24 0.96 0.48 0.96 0.48 1.2 0.48 0.96 0.24 0.96 0.48 0.96 0.48 0.96 0.48 0.96 0.24 0.96 0.48 0.96 0.48 0.96 0.24 0.96 0.48 0.96 0.48 1.2 0.48 0.96 0.24 0.96 0.48 0.96 0.48 0.96 0.48 0.96 0.24 0.96 0.48 0.96 0.48 1.2 0.24 0.96 0.48 0.96 0.48 0.96 0.48 0.96 0.24 0.96 0.48 0.96 0.48 0.96 0.24 1.2 0.48 0.96 0.48 0.96 0.48 0.96 0.24 0.96 0.48 0.96 0.48 0.96 0.48 0.96 0.24 0.96 0.48 1.2 0.48 0.96 0.24 0.96 0.48 0.96 0.48 0.96 0.48 0.96 0.24 0.96 0.48 0.96 0.48 0.96 0.24 0.96 0.48 0.96 0.48 0.96 0.48 0.96 0.24 1.2 0.48 0.96 0.48 0.96 0.48 0.96 0.24 0.96 0.48 0.96 0.48 0.96 0.24 0.96 0.48 0.96 0.48 0.96 0.48 0.96 0.24 0.96 0.48 0.96 0.48 0.96 0.48 0.72 0.24 0.96 0.48 0.96 0.48 0.96 0.24 0.96 0.48 0.96 0.48 0.96 0.48 0.96 0.24 0.96 0.48"/><path d="m382.8 479.76 0.96 0.48 0.72 0.48 0.96 0.24 0.96 0.48 0.96 0.48 0.96 0.24 0.96 0.48 0.72 0.48 0.96 0.48 0.96 0.24 0.96 0.48 0.96 0.48 0.72 0.24 0.96 0.48 0.96 0.48 0.72 0.48 0.96 0.24 0.96 0.48 0.96 0.48 0.72 0.48 0.96 0.24 0.72 0.48 0.96 0.48 0.96 0.24 0.72 0.48 0.96 0.48 0.72 0.48 0.96 0.24 0.96 0.48 0.72 0.48 0.96 0.24 0.72 0.48 0.96 0.48 0.72 0.48 0.96 0.24 0.72 0.48 0.72 0.48 0.96 0.48 0.72 0.24 0.96 0.48 0.72 0.48 0.72 0.24 0.96 0.48 0.72 0.48 0.72 0.48 0.96 0.24 0.72 0.48 0.72 0.48 0.96 0.48 0.72 0.24 0.72 0.48 0.72 0.48 0.96 0.24 0.72 0.48 0.72 0.48 0.72 0.48 0.72 0.24 0.72 0.48 0.72 0.48 0.96 0.48 0.72 0.24 0.72 0.48 0.72 0.48 0.72 0.24 0.72 0.48 0.72 0.48 0.72 0.48 0.72 0.24 0.72 0.48 0.72 0.48 0.72 0.24 0.72 0.48 0.48 0.48 0.72 0.48 0.72 0.24 0.72 0.48 0.72 0.48 0.72 0.48 0.48 0.24 0.72 0.48 0.72 0.48 0.72 0.24 0.48 0.48 0.72 0.48 0.72 0.48 0.72 0.24 0.48 0.48 0.72 0.48 0.48 0.24 0.72 0.48 0.72 0.48 0.48 0.48 0.72 0.24 0.48 0.48 0.72 0.48 0.72 0.24 0.48 0.48 0.72 0.48 0.48 0.48 0.48 0.24 0.72 0.48 0.48 0.48 0.72 0.48 0.48 0.24 0.72 0.48 0.48 0.48 0.48 0.24 0.72 0.48 0.48 0.48 0.48 0.48 0.72 0.24 0.48 0.48 0.48 0.48 0.48 0.48 0.72 0.24 0.48 0.48 0.48 0.48 0.48 0.24 0.48 0.48 0.72 0.48 0.48 0.48 0.48 0.24 0.48 0.48 0.48 0.48 0.48 0.48 0.48 0.24 0.48 0.48 0.48 0.48 0.48 0.24 0.48 0.48 0.48 0.48 0.48 0.48 0.48 0.24 0.48 0.48 0.48 0.48 0.48 0.24 0.48 0.48 0.48 0.48 0.48 0.48 0.48 0.24 0.48 0.48 0.24 0.48 0.48 0.48 0.48 0.24 0.48 0.48 0.48 0.48 0.48 0.24 0.24 0.48 0.48 0.48 0.48 0.48 0.24 0.24 0.48 0.48 0.48 0.48 0.48 0.24 0.24 0.48 0.48 0.48 0.48 0.48 0.24 0.24 0.48 0.48 0.24 0.48 0.48 0.48 0.48 0.24 0.24 0.48 0.48 0.48 0.24 0.24 0.48 0.48 0.24 0.48 0.48 0.48 0.24 0.24 0.48 0.48 0.24 0.48 0.48 0.48 0.24 0.24 0.48 0.48 0.24 0.48 0.48 0.24 0.24 0.48 0.24 0.48 0.48 0.48 0.24 0.24 0.24 0.48 0.48 0.48 0.24 0.48 0.24 0.24 0.48 0.48 0.24 0.48 0.24 0.24 0.48 0.48 0.24 0.48 0.24 0.48 0.24 0.24 0.48 0.48 0.24 0.48 0.24 0.24 0.24 0.48 0.48 0.48 0.24 0.48 0.24 0.24 0.24 0.48 0.24 0.48 0.24 0.48 0.48 0.24 0.24 0.48 0.24 0.48 0.24 0.24 0.24 0.48 0.24 0.48 0.24 0.48 0.24 0.24 0.24 0.48 0.24 0.48 0.24 0.24 0.24 0.48 0.48 0.48 0.24 0.48 0.24 0.24 0.24 0.48 0.24 0.48 0.24 0.48v0.24l0.24 0.48 0.24 0.48 0.24 0.24 0.24 0.48 0.24 0.48 0.24 0.48 0.24 0.24 0.24 0.48 0.24 0.48 0.24 0.48 0.24 0.24 0.24 0.48v0.48l0.24 0.24 0.24 0.48 0.24 0.48 0.24 0.48 0.24 0.24v0.48l0.24 0.48 0.24 0.48 0.24 0.24 0.24 0.48 0.24 0.48v0.24l0.24 0.48 0.24 0.48 0.24 0.48v0.24l0.24 0.48 0.24 0.48 0.24 0.24v0.48l0.24 0.48 0.24 0.48v0.24l0.24 0.48 0.24 0.48 0.24 0.48v0.24l0.24 0.48 0.24 0.48v0.24l0.24 0.48 0.24 0.48v0.48l0.24 0.24v0.48l0.24 0.48 0.24 0.24v0.48l0.24 0.48 0.24 0.48v0.24l0.24 0.48v0.48l0.24 0.48 0.24 0.24v0.48l0.24 0.48v0.24l0.24 0.48v0.48l0.24 0.48v0.24l0.24 0.48v0.48l0.24 0.48 0.24 0.24v0.48l0.24 0.48v0.24l0.24 0.48v0.48l0.24 0.48v0.24l0.24 0.48v0.48l0.24 0.48v0.24"/><path d="m520.56 603.84v0.48l0.24 0.48v0.24l0.24 0.48v0.48l0.24 0.48v0.24l0.24 0.48v0.48l0.24 0.24v0.96l0.24 0.48v0.24l0.24 0.48v0.96l0.24 0.24v0.48l0.24 0.48v0.72l0.24 0.48v0.72l0.24 0.48v0.48l0.24 0.24v0.96l0.24 0.48v0.72l0.24 0.48v0.72l0.24 0.48v0.72l0.24 0.48v0.96l0.24 0.24v1.44l0.24 0.24v0.96l0.24 0.24v0.96l0.24 0.48v1.2l0.24 0.48v1.2l0.24 0.24v1.44l0.24 0.24v1.2l0.24 0.48v1.2l0.24 0.48v1.2l0.24 0.48v1.68l0.24 0.48v1.2l0.24 0.24v1.68l0.24 0.48v2.16l0.24 0.24v1.68l0.24 0.48v2.16l0.24 0.24v2.16l0.24 0.48v2.4l0.24 0.48v2.4l0.24 0.48v2.4l0.24 0.48v2.88l0.24 0.48v3.36l0.24 0.24v3.84l0.24 0.24v4.32l0.24 0.24v4.56l0.24 0.48v5.52l0.24 0.24v0.48"/></g><path d="m106.8 459.12h455.04" stroke-dasharray="1.44, 2.88"/><g><path d="m106.8 231.6h455.04v455.04h-455.04v-455.04h455.04m-455.04 0h455.04m-447.36 0v6m6.48-6v6m5.76-6v6m5.04-6v6m4.56-6v12.24"/><path d="m121.44 221.04-1.68-0.48-1.2-1.92-0.72-2.88v-1.68l0.72-2.88 1.2-1.68 1.68-0.72h1.2l1.68 0.72 1.2 1.68 0.48 2.88v1.68l-0.48 2.88-1.2 1.92-1.68 0.48h-1.2l-1.2-0.48-0.48-0.72-0.72-1.2-0.48-2.88v-1.68l0.48-2.88 0.72-1.2 0.48-0.48 1.2-0.72m1.2 0 0.96 0.72 0.72 0.48 0.48 1.2 0.72 2.88v1.68l-0.72 2.88-0.48 1.2-0.72 0.72-0.96 0.48m7.92-11.04-0.48-0.48 0.48-0.72 0.72 0.72-0.72 0.48m8.16 11.04-1.68-0.48-1.2-1.92-0.48-2.88v-1.68l0.48-2.88 1.2-1.68 1.68-0.72h1.2l1.68 0.72 1.2 1.68 0.48 2.88v1.68l-0.48 2.88-1.2 1.92-1.68 0.48h-1.2l-1.2-0.48-0.48-0.72-0.72-1.2-0.48-2.88v-1.68l0.48-2.88 0.72-1.2 0.48-0.48 1.2-0.72m1.2 0 1.2 0.72 0.48 0.48 0.48 1.2 0.72 2.88v1.68l-0.72 2.88-0.48 1.2-0.48 0.72-1.2 0.48m8.64-2.4 1.2 0.72 1.68 1.68v-12.24m-0.48 11.76v-11.76m-2.4 0h5.28"/><path d="m166.08 231.6v6m17.52-6v6m12.48-6v6m9.36-6v6m7.92-6v6m6.72-6v6m5.76-6v6m5.04-6v6m4.56-6v12.24"/><path d="m226.08 221.04-1.68-0.48-1.2-1.92"/><path d="m223.2 218.64-0.48-2.88v-1.68l0.48-2.88 1.2-1.68 1.68-0.72h1.2l1.68 0.72 1.2 1.68 0.48 2.88v1.68l-0.48 2.88-1.2 1.92-1.68 0.48h-1.2l-1.2-0.48-0.48-0.72-0.72-1.2-0.48-2.88v-1.68l0.48-2.88 0.72-1.2 0.48-0.48 1.2-0.72m1.2 0 1.2 0.72 0.48 0.48 0.72 1.2 0.48 2.88v1.68l-0.48 2.88-0.72 1.2-0.48 0.72-1.2 0.48m8.16-11.04-0.72-0.48 0.72-0.72 0.48 0.72-0.48 0.48m6.24 8.64 1.2 0.72 1.68 1.68v-12.24m-0.48 11.76v-11.76m-2.4 0h5.28"/><path d="m265.2 231.6v6m17.28-6v6m12.48-6v6m9.6-6v6m7.68-6v6m6.72-6v6m5.76-6v6m5.04-6v6m4.56-6v12.24"/><path d="m331.92 218.64 1.2 0.72 1.68 1.68v-12.24m-0.48 11.76v-11.76m-2.4 0h5.28"/><path d="m364.08 231.6v6m17.52-6v6m12.24-6v6m9.6-6v6m7.92-6v6m6.48-6v6m5.76-6v6m5.04-6v6m4.56-6v12.24"/><path d="m425.04 218.64 1.2 0.72 1.68 1.68v-12.24m-0.48 11.76v-11.76m-2.4 0h5.28m8.16 12.24-1.68-0.48-1.2-1.92-0.72-2.88v-1.68l0.72-2.88 1.2-1.68 1.68-0.72h1.2l1.68 0.72 1.2 1.68 0.48 2.88v1.68l-0.48 2.88-1.2 1.92-1.68 0.48h-1.2l-1.2-0.48-0.48-0.72-0.72-1.2-0.48-2.88v-1.68l0.48-2.88 0.72-1.2 0.48-0.48 1.2-0.72m1.2 0 0.96 0.72 0.72 0.48 0.48 1.2 0.72 2.88v1.68l-0.72 2.88-0.48 1.2-0.72 0.72-0.96 0.48"/><path d="m462.96 231.6v6m17.52-6v6m12.24-6v6m9.6-6v6m7.92-6v6m6.72-6v6m5.52-6v6m5.28-6v6m4.32-6v12.24"/><path d="m518.4 218.64 0.96 0.72 1.92 1.68v-12.24m-0.72 11.76v-11.76m-2.16 0h5.04m8.16 12.24-1.68-0.48-1.2-1.92-0.72-2.88v-1.68l0.72-2.88 1.2-1.68 1.68-0.72h1.2l1.68 0.72 1.2 1.68 0.48 2.88v1.68l-0.48 2.88-1.2 1.92-1.68 0.48h-1.2l-1.2-0.48-0.48-0.72-0.72-1.2-0.48-2.88v-1.68l0.48-2.88 0.72-1.2 0.48-0.48 1.2-0.72m1.2 0 1.2 0.72 0.48 0.48 0.48 1.2 0.72 2.88v1.68l-0.72 2.88-0.48 1.2-0.48 0.72-1.2 0.48m10.32 0-1.68-0.48-1.2-1.92-0.48-2.88v-1.68l0.48-2.88 1.2-1.68 1.68-0.72h1.2l1.68 0.72 1.2 1.68 0.48 2.88v1.68l-0.48 2.88-1.2 1.92-1.68 0.48h-1.2l-1.2-0.48-0.48-0.72-0.72-1.2-0.48-2.88v-1.68l0.48-2.88 0.72-1.2 0.48-0.48 1.2-0.72m1.2 0 1.2 0.72 0.48 0.48 0.72 1.2 0.48 2.88v1.68l-0.48 2.88-0.72 1.2-0.48 0.72-1.2 0.48"/><path d="m106.8 686.64h455.04m-447.36 0v-6.24m6.48 6.24v-6.24m5.76 6.24v-6.24m5.04 6.24v-6.24m4.56 6.24v-12.24m29.76 12.24v-6.24m17.52 6.24v-6.24m12.48 6.24v-6.24m9.36 6.24v-6.24m7.92 6.24v-6.24m6.72 6.24v-6.24m5.76 6.24v-6.24m5.04 6.24v-6.24m4.56 6.24v-12.24m29.76 12.24v-6.24m17.28 6.24v-6.24m12.48 6.24v-6.24m9.6 6.24v-6.24m7.68 6.24v-6.24m6.72 6.24v-6.24m5.76 6.24v-6.24m5.04 6.24v-6.24m4.56 6.24v-12.24m29.76 12.24v-6.24m17.52 6.24v-6.24m12.24 6.24v-6.24m9.6 6.24v-6.24m7.92 6.24v-6.24m6.48 6.24v-6.24m5.76 6.24v-6.24m5.04 6.24v-6.24m4.56 6.24v-12.24m29.76 12.24v-6.24m17.52 6.24v-6.24m12.24 6.24v-6.24m9.6 6.24v-6.24m7.92 6.24v-6.24m6.72 6.24v-6.24m5.52 6.24v-6.24m5.28 6.24v-6.24m4.32 6.24v-12.24m-425.28-442.8v455.04"/><path d="m106.8 231.6h6m-6 20.64h6m-6 20.64h6m-6 20.64h12.24"/><path d="m72 292.8h10.32m9.3602 5.76v-11.04m0.4801 12.24v-12.24m0 12.24-6.2403-8.88h9.1199m-5.2796-3.36h4.0796"/><path d="m106.8 314.16h6m-6 20.88h6m-6 20.64h6m-6 20.64h12.24"/><path d="m72 375.36h10.32m4.5602 4.8 0.7199-0.72-0.7199-0.48-0.4801 0.48v0.72l0.4801 1.2 0.7199 0.48 1.6801 0.48h2.4l1.6801-0.48 0.4796-0.48 0.7204-1.2v-1.2l-0.7204-1.2-1.6796-1.2-2.8801-1.2-1.2-0.48-1.2-1.2-0.4801-1.68v-1.68m5.2801 12 0.9597-0.48 0.7204-0.48 0.4796-1.2v-1.2l-0.4796-1.2-1.6801-1.2-2.4-1.2m-2.8801-3.84 0.4801 0.48h1.2l2.8801-1.2h1.6796l1.2 0.72 0.7204 0.48m-6.4801 0 2.8801-1.68h2.4l0.4796 0.48 0.7204 1.2v1.2"/><path d="m106.8 396.96h6m-6 20.64h6m-6 20.88h6m-6 20.64h12.24"/><path d="m89.76 465.12-1.6801-0.48-1.2-1.68-0.4801-2.88v-1.92l0.4801-2.88 1.2-1.68 1.6801-0.48h1.2l1.6796 0.48 1.2 1.68 0.7204 2.88v1.92l-0.7204 2.88-1.2 1.68-1.6796 0.48h-1.2"/><path d="m89.76 465.12-0.9602-0.48-0.7199-0.72-0.4801-0.96-0.7199-2.88v-1.92l0.7199-2.88 0.4801-1.2 0.7199-0.48 0.9602-0.48m1.2 0 1.2 0.48 0.4796 0.48 0.7204 1.2 0.4796 2.88v1.92l-0.4796 2.88-0.7204 0.96-0.4796 0.72-1.2 0.48"/><path d="m106.8 479.76h6m-6 20.64h6m-6 20.64h6m-6 20.88h12.24"/><path d="m86.88 545.52 0.7199-0.48-0.7199-0.48-0.4801 0.48v0.48l0.4801 1.2 0.7199 0.72 1.6801 0.48h2.4l1.6801-0.48 0.4796-0.72 0.7204-1.2v-0.96l-0.7204-1.2-1.6796-1.2-2.8801-1.2-1.2-0.48-1.2-1.2-0.4801-1.68v-1.92m5.2801 12.24 0.9597-0.48 0.7204-0.72 0.4796-1.2v-0.96l-0.4796-1.2-1.6801-1.2-2.4-1.2m-2.8801-4.08 0.4801 0.72h1.2l2.8801-1.2h1.6796l1.2 0.48 0.7204 0.72m-6.4801 0 2.8801-1.92h2.4l0.4796 0.72 0.7204 1.2v0.96"/><path d="m106.8 562.56h6m-6 20.64h6m-6 20.64h6m-6 20.64h12.24"/><path d="m91.68 629.52v-11.04m0.4801 12.24v-12.24m0 12.24-6.2403-8.64h9.1199m-5.2796-3.6h4.0796"/><path d="m106.8 645.36h6m-6 20.64h6m-6 20.64h6m449.04-455.04v455.04"/><path d="m561.84 231.6h-6.24m6.24 20.64h-6.24m6.24 20.64h-6.24m6.24 20.64h-12.24m12.24 20.64h-6.24m6.24 20.88h-6.24m6.24 20.64h-6.24m6.24 20.64h-12.24m12.24 20.64h-6.24m6.24 20.64h-6.24m6.24 20.88h-6.24m6.24 20.64h-12.24m12.24 20.64h-6.24m6.24 20.64h-6.24m6.24 20.64h-6.24m6.24 20.88h-12.24m12.24 20.64h-6.24m6.24 20.64h-6.24m6.24 20.64h-6.24m6.24 20.64h-12.24m12.24 20.88h-6.24m6.24 20.64h-6.24m6.24 20.64h-6.24"/><path d="m41.52 360.96 0.4801-1.92l1.2-1.44 1.2-0.72 2.4-0.96 1.6801-0.48 2.1597 0.24 1.2 0.24 1.2 0.96 0.4801 1.68v1.2l-0.4801 1.68-1.2 1.44-1.2 0.72-2.1597 1.2-1.6801 0.24h-2.4l-1.2-0.48-1.2-0.96-0.4801-1.44v-1.2l0.4801-1.2 1.2-1.44 1.2-0.96 2.4-0.96 1.6801-0.24h2.1597l1.2 0.48 1.2 0.72 0.4801 1.2m0 1.2-0.4801 1.2-1.2 1.44-1.2 0.72-2.1597 0.96-1.6801 0.48-2.4-0.24-1.2-0.24-1.2-0.96-0.4801-0.96m11.04-5.28-0.7204 0.24-1.2 0.72-0.4796 1.44v0.48l0.4796 0.96 1.2 0.48 4.0801-0.24 0.4801 0.48v1.2l-0.9602 0.72h-0.7199m-2.8801-2.16h2.4l1.2 0.48 0.4801 0.48v0.48l-0.4801 0.72"/><path d="m52.8 373.68-0.9602 0.24h2.1602l-1.2-0.24-0.4801-0.72-0.4801-0.96v-1.2l0.4801-0.96 0.4801-0.72h0.7199l0.7199 0.48 0.4801 0.24 0.2403 0.72 0.7199 1.92 0.2398 0.72 0.7199 0.72m-3.1199-4.8 0.7199 0.72 0.4801 0.72 0.7199 1.92 0.2403 0.72 0.2398 0.48 0.7199 0.24h1.4403l0.7199-0.72 0.2398-0.96v-0.96l-0.2398-1.2-0.7199-0.48-0.9602-0.48h1.9199l-0.9597 0.48m-6.2403 7.2h7.2m-7.2 0.24h7.2m-7.2-1.44v4.32l0.4801 0.96 0.2403 0.48 0.7199 0.24h0.9597l0.7204-0.24 0.4796-0.48 0.2403-0.96v-2.88m-3.8403 2.88 0.4801 0.72 0.2403 0.24 0.7199 0.48h0.9597l0.7204-0.48 0.4796-0.24 0.2403-0.72m3.3597-4.32v2.64m-7.2 6.24h7.2m-7.2 0.24h7.2m-7.2 4.08h7.2m-7.2 0.48h7.2m-7.2-6v2.4m0 2.16v2.4m3.6-5.52v4.08m3.6-5.52v2.4m0 2.16v2.4m-7.2 2.4h7.2m-7.2 0.48h7.2m-5.0398 1.92h2.6398m-4.8-3.36v5.52h2.1602l-2.1602-0.24m3.6-3.84v1.92m3.6-3.36v5.52h-1.9199l1.9199-0.24m-7.2 2.88h7.2m-7.2 0.48h7.2m-7.2-1.44v4.08l0.4801 1.2 0.2403 0.24 0.7199 0.48h0.7199l0.7199-0.48 0.2403-0.24 0.4796-1.2v-2.64m-3.6 2.64 0.4801 0.72 0.2403 0.48 0.7199 0.24h0.7199l0.7199-0.24 0.2403-0.48 0.4796-0.72m3.6-4.08v2.4m-3.6 0.72 0.2403 0.72 0.2398 0.24 2.6403 1.2 0.2398 0.24v0.48l-0.2398 0.24m-2.8801-2.4 0.7199 0.24 2.4 0.72 0.2398 0.48v0.72l-0.4796 0.24h-0.4801m-6.2403 4.08 0.4801-0.96 0.4801-0.72 0.7199-0.24 1.4403-0.48h0.9597l1.4403 0.48 0.7199 0.24 0.7199 0.72 0.2398 0.96v0.72l-0.2398 1.2-0.7199 0.48-0.7199 0.48-1.4403 0.24h-0.9597l-1.4403-0.24-0.7199-0.48-0.4801-0.48-0.4801-1.2v-0.72l0.4801-0.48 0.4801-0.72 0.7199-0.48 1.4403-0.24h0.9597l1.4403 0.24 0.7199 0.48 0.7199 0.72 0.2398 0.48m0 0.72-0.2398 0.72-0.7199 0.72-0.7199 0.24-1.4403 0.48h-0.9597l-1.4403-0.48-0.7199-0.24-0.4801-0.72-0.4801-0.72m0 5.28h7.2m-7.2 0.24h7.2m-7.2-1.2v2.4m7.2-2.4v2.4m-7.2 2.4h7.2m-7.2 0.24h7.2m-7.2-1.44v3.6l0.4801 0.96 0.4801 0.72 0.7199 0.48 1.2 0.24h1.6801l0.9602-0.24 0.7199-0.48"/><path d="m58.08 423.12 0.7199-0.72 0.2398-0.96v-3.6m-7.2 3.6 0.4801 0.72 0.4801 0.72 0.7199 0.24 1.2 0.48h1.6801l0.9602-0.48 0.7199-0.24 0.7199-0.72 0.2398-0.72m0 3.84v4.32m-7.2 3.84 7.2-2.4m-7.2 2.4 7.2 2.4m-6.2398-2.4 6.2398 2.16m-1.9199-3.84v3.12m1.9199-4.56v2.16m0 2.16v1.92m-6.2398 6-0.9602 0.24h2.1602l-1.2-0.24-0.4801-0.72-0.4801-0.96v-1.2l0.4801-0.96 0.4801-0.72h0.7199l0.7199 0.48 0.4801 0.24 0.2403 0.72 0.7199 2.16 0.2398 0.48 0.7199 0.72m-3.1199-4.8 0.7199 0.72 0.4801 0.72 0.7199 2.16 0.2403 0.48 0.2398 0.48 0.7199 0.24h1.4403l0.7199-0.72 0.2398-0.96v-0.96l-0.2398-1.2-0.7199-0.48-0.9602-0.48h1.9199l-0.9597 0.48m-6.2403 7.2h7.2m-7.2 0.24h7.2m-7.2-1.2v4.08l0.4801 0.96 0.2403 0.48 0.7199 0.24h0.9597l0.7204-0.24 0.4796-0.48 0.2403-0.96v-2.88m-3.8403 2.88 0.4801 0.72 0.2403 0.24 0.7199 0.48h0.9597l0.7204-0.48 0.4796-0.24 0.2403-0.72m3.3597-4.08v2.4m-7.2 6.24h7.2m-7.2 0.24h7.2m-5.0398 2.16h2.6398m-4.8-3.6v5.52h2.1602l-2.1602-0.24m3.6-3.84v2.16m3.6-3.6v5.52h-1.9199l1.9199-0.24m-6.2398 7.2 1.2 0.48h-2.1602l0.9602-0.48-0.4801-0.72-0.4801-0.96v-0.72l0.4801-0.96 0.4801-0.72 0.7199-0.48 1.2-0.24h1.6801l0.9602 0.24 0.7199 0.48 0.7199 0.72 0.2398 0.96v0.72l-0.2398 0.96-0.7199 0.72-0.7199 0.48m-5.5204-2.88 0.4801-0.72 0.4801-0.72 0.7199-0.24 1.2-0.48h1.6801l0.9602 0.48 0.7199 0.24 0.7199 0.72 0.2398 0.72m-7.2 6.96h7.2m-7.2 0.24h7.2m-7.2-2.4l2.1602-0.24h-2.1602v5.04h2.1602l-2.1602-0.24m7.2-3.36v2.4"/><path d="m39.12 488.16 1.2-0.96l1.6801-1.2 2.4-1.2 2.8801-0.48h2.4l2.8801 0.48 2.1597 1.2 1.6801 1.2 1.2 0.96m-17.28-0.96 2.4-1.2 1.6801-0.72 2.8801-0.48h2.4l2.8801 0.48 1.6796 0.72 2.1602 1.2m-7.4398 5.04v6.96h-1.2l-0.9602-0.48-0.7199-0.72-0.4801-1.2v-1.68l0.4801-1.68 1.2-1.2 1.6801-0.48h1.2l1.6796 0.48 1.2 1.2 0.4801 1.68v1.2l-0.4801 1.68-1.2 1.2m-2.8796-0.48h-1.6801l-1.2-0.72m-0.4801-2.88 0.4801-1.2 1.2-0.96 1.6801-0.72h1.2l1.6796 0.72 1.2 0.96 0.4801 1.2m-7.9199 8.64h7.9199m-7.9199 0.72h7.9199m-6.2398 0-1.2 1.2-0.4801 1.68v1.2l0.4801 1.68 1.2 0.48h6.2398m-7.9199-2.16 0.4801 0.96 1.2 0.72h6.2398m-7.9199-8.16v2.4m7.9199-2.4v4.08m0 2.4v3.84m-7.9199 6 0.4801-1.2 0.7199-0.72 0.9602-0.48h1.2l1.2 0.48 0.4796 0.72 0.7204 1.2v0.96l-0.7204 1.2-0.4796 0.72-1.2 0.48h-1.2l-0.9602-0.48-0.7199-0.72-0.4801-1.2v-0.96m0.4801-1.2 1.2-0.72h2.4l0.9597 0.72m0 3.36-0.9597 0.72h-2.4l-1.2-0.72m0.7199 0.72-0.7199 0.48-0.4801 1.2h0.4801v-1.2m4.0801-5.28 0.4796-0.48 1.2-0.48h0.7204l0.9597 0.48 0.7199 1.68v2.88l0.4801 1.68 0.7199 0.72m-2.8796-7.44 0.4796 0.48 0.4801 1.68v2.88l0.7199 1.68 1.2 0.72h0.4801l1.2-0.72 0.4801-1.68v-3.36l-0.4801-1.68-1.2-0.72h-0.4801l-1.2 0.72-0.7199 1.68m-12 10.32l0.4801-0.48 0.7199 0.48-0.7199 0.48-0.4801-0.48m4.0801 0h7.9199m-7.9199 0.48h7.9199m-7.9199-2.16v2.16m7.9199-2.16v4.08m-7.9199 4.08h7.9199m-7.9199 0.48h7.9199m-6.2398 0-1.2 1.2-0.4801 1.68v1.2l0.4801 1.68 1.2 0.48h6.2398m-7.9199-2.16 0.4801 1.2 1.2 0.48h6.2398m-7.9199-8.16v2.4m7.9199-2.4v4.08m0 2.4v4.08m-4.5597 3.36v6.96h-1.2l-0.9602-0.48-0.7199-0.72-0.4801-1.2v-1.68l0.4801-1.68 1.2-1.2 1.6801-0.48h1.2l1.6796 0.48 1.2 1.2 0.4801 1.68v1.2l-0.4801 1.68-1.2 1.2m-2.8796-0.48h-1.6801l-1.2-0.72m-0.4801-2.88 0.4801-1.2 1.2-1.2 1.6801-0.48h1.2l1.6796 0.48 1.2 1.2 0.4801 1.2m-14.4 7.44 1.2 1.2 1.6801 1.2 2.4 1.2 2.8801 0.48h2.4l2.8801-0.48 2.1597-1.2 1.6801-1.2 1.2-1.2m-17.28 1.2 2.4 1.2 1.6801 0.48 2.8801 0.72h2.4l2.8801-0.72 1.6796-0.48 2.1602-1.2"/><path d="m241.2 192-2.64-12m3.12 12-2.4-12m1.44 10.32-0.96 1.2-0.96 0.48h-1.2l-1.92-0.48-1.2-1.2-0.96-1.68-0.24-1.2 0.24-1.68 0.96-1.2 1.44-0.72h1.2l1.2 0.72 1.44 1.2m-2.16 6.24-1.2-0.48-1.44-1.2-0.96-1.68-0.24-1.2 0.24-1.68"/><path d="m234 185.76 0.96-1.2 0.96-0.72m0.96-3.84h4.08"/><path d="m250.56 184.56 0.24 1.2v-2.16l-0.24 0.96-0.72 0.72-0.96 0.48h-1.2l-0.96-0.48-0.72-0.72v-0.72l0.48-0.48 0.24-0.48 0.72-0.24 2.16-0.72 0.72-0.48 0.48-0.72m-4.8 3.12 0.72-0.48 0.72-0.48 2.16-0.72 0.72-0.24 0.24-0.48 0.24-0.72v-1.2l-0.48-0.72-1.2-0.48h-0.96l-0.96 0.48-0.72 0.72-0.48 0.96v-2.16l0.48 1.2m7.2 6.24v-7.44m0.24 7.44v-7.44m-1.2 7.44h4.08l0.96-0.48 0.48-0.24 0.24-0.72v-0.96l-0.24-0.72-0.48-0.48-0.96-0.24h-2.88m2.88 3.84 0.72-0.48 0.24-0.24 0.48-0.72v-0.96l-0.48-0.72-0.24-0.48-0.72-0.24m-4.08-3.6h2.4m6.24 7.44v-7.44m0.24 7.44v-7.44m4.32 7.44v-7.44m0.24 7.44v-7.44m-6 7.44h2.64m1.92 0h2.4m-5.52-3.6h4.32m-5.76-3.84h2.64m1.92 0h2.4m2.4 7.44v-7.44m0.48 7.44v-7.44m2.16 5.28v-2.88m-3.6 5.04h5.52v-2.16l-0.24 2.16m-3.84-3.6h2.16m-3.6-3.84h5.52v2.16l-0.24-2.16m3.12 7.44v-7.44m0.24 7.44v-7.44m-1.44 7.44h4.32l0.96-0.48 0.24-0.24 0.48-0.72v-0.72l-0.48-0.72-0.24-0.24-0.96-0.48h-2.88m2.88 3.6 0.72-0.48 0.24-0.24 0.24-0.72v-0.72l-0.24-0.72-0.24-0.24-0.72-0.48m-4.32-3.84h2.4m0.72 3.84 0.72-0.24 0.48-0.48 0.96-2.4 0.24-0.24h0.48l0.24 0.24m-2.4 2.88 0.48-0.72 0.72-2.4 0.24-0.48h0.72l0.24 0.72v0.48m4.32 6.24-1.2-0.48-0.72-0.72-0.24-0.72-0.24-1.2v-1.2l0.24-1.2 0.24-0.72 0.72-0.72 1.2-0.48h0.48l1.2 0.48 0.72 0.72 0.24 0.72 0.48 1.2v1.2l-0.48 1.2-0.24 0.72-0.72 0.72-1.2 0.48h-0.48l-0.72-0.48-0.72-0.72-0.48-0.72-0.24-1.2v-1.2l0.24-1.2 0.48-0.72 0.72-0.72 0.72-0.48m0.48 0 0.72 0.48 0.72 0.72 0.48 0.72 0.24 1.2v1.2l-0.24 1.2-0.48 0.72-0.72 0.72-0.72 0.48m5.28 0v-7.44m0.48 7.44v-7.44m-1.44 7.44h2.4m-2.4-7.44h2.4m2.4 7.44v-7.44m0.24 7.44v-7.44m-1.2 7.44h3.36l0.96-0.48 0.72-0.72 0.48-0.72 0.24-0.96v-1.68l-0.24-0.96-0.48-0.72-0.72-0.72-0.96-0.48h-3.36m3.36 7.44 0.72-0.48 0.72-0.72 0.24-0.72 0.48-0.96v-1.68l-0.48-0.96-0.24-0.72-0.72-0.72-0.72-0.48m3.84 0h4.56m3.84 7.44-2.64-7.44m2.64 7.44 2.4-7.44m-2.4 6.24 1.92-6.24m-3.84 2.16h3.12m-4.32-2.16h1.92m2.16 0h2.16m5.76 6.24 0.48 1.2v-2.16l-0.48 0.96-0.72 0.72-0.96 0.48h-0.96l-1.2-0.48-0.72-0.72v-0.72l0.48-0.48 0.24-0.48 0.72-0.24 2.16-0.72 0.72-0.48 0.72-0.72m-5.04 3.12 0.72-0.48 0.72-0.48 2.16-0.72 0.72-0.24 0.24-0.48 0.48-0.72v-1.2l-0.72-0.72-1.2-0.48h-0.96l-0.96 0.48-0.72 0.72-0.48 0.96v-2.16l0.48 1.2m7.2 6.24v-7.44m0.48 7.44v-7.44m-1.44 7.44h4.08l0.96-0.48 0.48-0.24 0.24-0.72v-0.96l-0.24-0.72-0.48-0.48-0.96-0.24h-2.64m2.64 3.84 0.72-0.48 0.24-0.24 0.48-0.72v-0.96l-0.48-0.72-0.24-0.48-0.72-0.24m-4.08-3.6h2.4m6.24 7.44v-7.44m0.24 7.44v-7.44m2.16 5.28v-2.88m-3.6 5.04h5.76v-2.16l-0.48 2.16m-3.84-3.6h2.16m-3.6-3.84h5.76v2.16l-0.48-2.16m7.2 6.24 0.48-0.96v2.16l-0.48-1.2-0.48 0.72-1.2 0.48h-0.72l-0.96-0.48-0.72-0.72-0.24-0.72-0.48-0.96v-1.68l0.48-0.96 0.24-0.72 0.72-0.72 0.96-0.48h0.72l1.2 0.48 0.48 0.72 0.48 0.72m-2.88 5.52-0.72-0.48-0.48-0.72-0.48-0.72-0.24-0.96v-1.68l0.24-0.96 0.48-0.72 0.48-0.72 0.72-0.48m6.96 7.44v-7.44m0.48 7.44v-7.44m-2.64 7.44-0.24-2.16v2.16h5.28v-2.16l-0.48 2.16m-3.36-7.44h2.4"/><path d="m365.28 198.48-1.2-1.2-1.2-1.68-1.2-2.4-0.48-2.88v-2.4l0.48-2.88 1.2-2.16 1.2-1.92 1.2-0.96m-1.2 17.28-1.2-2.4-0.48-1.68-0.72-2.88v-2.4l0.72-2.88 0.48-1.68 1.2-2.4m5.76 11.04v-8.16m0.48 8.16v-8.16m0 6.48 1.2 1.2 1.68 0.48h1.2l1.68-0.48 0.72-1.2v-6.48m-2.4 8.16 1.2-0.48 0.48-1.2v-6.48m0.72 6.48 1.2 1.2 1.68 0.48h1.2l1.68-0.48 0.48-1.2"/><path d="m383.04 190.32v-6.48m-2.16 8.16 0.96-0.48 0.72-1.2v-6.48m-14.4 8.16h2.16m-2.16-8.16h3.84m2.4 0h4.08m2.4 0h3.84m6.48 8.16-1.68-0.48-1.2-1.2-0.72-1.68v-1.2l0.72-1.68 1.2-1.2 1.68-0.72h1.2l1.68 0.72 1.2 1.2 0.48 1.68v1.2l-0.48 1.68-1.2 1.2-1.68 0.48h-1.2l-1.2-0.48-1.2-1.2-0.48-1.68v-1.2l0.48-1.68 1.2-1.2 1.2-0.72m1.2 0 1.2 0.72 0.96 1.2 0.72 1.68v1.2l-0.72 1.68-0.96 1.2-1.2 0.48m13.68 4.08v-12.24m0.72 12.24v-12.24m-0.72 6.48-0.96 1.2-1.2 0.48h-1.2l-1.68-0.48-1.2-1.2-0.48-1.68v-1.2l0.48-1.68 1.2-1.2 1.68-0.72h1.2l1.2 0.72 0.96 1.2m-3.36 6.24-1.2-0.48-1.2-1.2-0.48-1.68v-1.2l0.48-1.68 1.2-1.2 1.2-0.72m1.68 12.24h2.4m-0.72-12.24h2.4m3.6 4.8h6.72v1.2l-0.48 0.96-0.48 0.72-1.2 0.48h-1.68l-1.92-0.48-0.96-1.2-0.72-1.68v-1.2l0.72-1.68 0.96-1.2 1.92-0.72h0.96l1.92 0.72 0.96 1.2m-0.48 2.88v1.68l-0.48 1.2m-2.88 0.48-1.2-0.48-1.2-1.2-0.48-1.68v-1.2l0.48-1.68 1.2-1.2 1.2-0.72m8.64 12.24v-12.24m0.48 12.24v-12.24m-2.4 12.24h2.4m-2.4-12.24h4.08m2.88 14.64 1.2-1.2 1.2-1.68 1.2-2.4 0.48-2.88v-2.4l-0.48-2.88-1.2-2.16-1.2-1.92-1.2-0.96m1.2 17.28 1.2-2.4 0.48-1.68 0.72-2.88v-2.4l-0.72-2.88-0.48-1.68-1.2-2.4"/></g></g></g></svg>
