<?xml version="1.0" encoding="UTF-8"?>
<svg width="698.1" height="679.09" version="1.1" viewBox="0 0 698.09821 679.09332" xml:space="preserve" xmlns="http://www.w3.org/2000/svg"><g transform="matrix(1.3333 0 0 -1.3333 -51.688 916.19)"><g fill="none" stroke="#000" stroke-linejoin="round" stroke-miterlimit="10"><g><path d="m138 231.6v2.4l0.24 0.48v5.28l0.24 0.48v4.08l0.24 0.48v3.6l0.24 0.48v3.84l0.24 0.24v3.36l0.24 0.48v2.4l0.24 0.48v2.88l0.24 0.48v2.4l0.24 0.48v1.92l0.24 0.48v2.16l0.24 0.24v2.16l0.24 0.48v1.68l0.24 0.24v1.68l0.24 0.48v1.68l0.24 0.48v1.68l0.24 0.24v1.2l0.24 0.48v1.68l0.24 0.48v1.2l0.24 0.48v1.2l0.24 0.48v1.2l0.24 0.24v0.96l0.24 0.48v1.2l0.24 0.24v0.96l0.24 0.48v1.2l0.24 0.48v0.72l0.24 0.48v0.72l0.24 0.48v0.72l0.24 0.48v0.96l0.24 0.24v0.96l0.24 0.24v0.48l0.24 0.48v0.72l0.24 0.48v0.96l0.24 0.24v0.48l0.24 0.48v0.72l0.24 0.48v0.48l0.24 0.24v0.96l0.24 0.24v0.48l0.24 0.48v0.72l0.24 0.48v0.48l0.24 0.48v0.24l0.24 0.48v0.48l0.24 0.24v0.48l0.24 0.48v0.48l0.24 0.24v0.48l0.24 0.48v0.24l0.24 0.48v0.48l0.24 0.48v0.24l0.24 0.48v0.48l0.24 0.48v0.24l0.24 0.48v0.48l0.24 0.24v0.48l0.24 0.48 0.24 0.48v0.24l0.24 0.48v0.48l0.24 0.48v0.24l0.24 0.48 0.24 0.48v0.24l0.24 0.48 0.24 0.48v0.48l0.24 0.24v0.48l0.24 0.48 0.24 0.48v0.24l0.24 0.48 0.24 0.48v0.24l0.24 0.48 0.24 0.48v0.48l0.24 0.24 0.24 0.48 0.24 0.48v0.24l0.24 0.48 0.24 0.48 0.24 0.48v0.24l0.24 0.48 0.24 0.48 0.24 0.48v0.24l0.24 0.48 0.24 0.48 0.24 0.24 0.24 0.48v0.48l0.24 0.48 0.24 0.24 0.24 0.48 0.24 0.48v0.24l0.24 0.48 0.24 0.48 0.24 0.48 0.24 0.24 0.24 0.48 0.24 0.48 0.24 0.48 0.24 0.24v0.48l0.24 0.48 0.24 0.24 0.24 0.48 0.24 0.48 0.24 0.48 0.24 0.24 0.24 0.48 0.24 0.48 0.24 0.48 0.24 0.24 0.24 0.48 0.24 0.48 0.24 0.24 0.24 0.48 0.24 0.48 0.24 0.48 0.24 0.24 0.48 0.48 0.24 0.48 0.24 0.48 0.24 0.24 0.24 0.48 0.24 0.48 0.24 0.24 0.24 0.48 0.24 0.48"/><path d="m166.32 355.68 0.48 0.48 0.24 0.24 0.24 0.48 0.24 0.48 0.24 0.24 0.48 0.48 0.24 0.48 0.24 0.48 0.24 0.24 0.48 0.48 0.24 0.48 0.24 0.48 0.24 0.24 0.48 0.48 0.24 0.48 0.24 0.24 0.48 0.48 0.24 0.48 0.24 0.48 0.48 0.24 0.24 0.48 0.24 0.48 0.48 0.24 0.24 0.48 0.48 0.48 0.24 0.48 0.24 0.24 0.48 0.48 0.24 0.48 0.48 0.48 0.24 0.24 0.48 0.48 0.24 0.48 0.48 0.24 0.24 0.48 0.48 0.48 0.48 0.48 0.24 0.24 0.48 0.48 0.24 0.48 0.48 0.24 0.24 0.48 0.48 0.48 0.48 0.48 0.24 0.24 0.48 0.48 0.48 0.48 0.24 0.48 0.48 0.24 0.48 0.48 0.48 0.48 0.24 0.24 0.48 0.48 0.48 0.48 0.48 0.48 0.48 0.24 0.24 0.48 0.48 0.48 0.48 0.48 0.48 0.24 0.48 0.48 0.48 0.48 0.48 0.24 0.24 0.48 0.48 0.48 0.48 0.48 0.48 0.24 0.48 0.48 0.48 0.48 0.48 0.48 0.48 0.24 0.48 0.48 0.48 0.48 0.48 0.24 0.48 0.48 0.72 0.48 0.48 0.48 0.48 0.24 0.48 0.48 0.48 0.48 0.48 0.24 0.48 0.48 0.72 0.48 0.48 0.48 0.48 0.24 0.48 0.48 0.48 0.48 0.72 0.48 0.48 0.24 0.48 0.48 0.72 0.48 0.48 0.24 0.48 0.48 0.72 0.48 0.48 0.48 0.48 0.24 0.72 0.48 0.48 0.48 0.72 0.24 0.48 0.48 0.72 0.48 0.48 0.48 0.72 0.24 0.48 0.48 0.72 0.48 0.48 0.48 0.72 0.24 0.48 0.48 0.72 0.48 0.72 0.24 0.48 0.48 0.72 0.48 0.48 0.48 0.72 0.24 0.72 0.48 0.72 0.48 0.48 0.48 0.72 0.24 0.72 0.48 0.48 0.48 0.72 0.24 0.72 0.48 0.72 0.48 0.72 0.48 0.72 0.24 0.48 0.48 0.72 0.48 0.72 0.48 0.72 0.24 0.72 0.48 0.72 0.48 0.72 0.24 0.72 0.48 0.72 0.48 0.72 0.48 0.72 0.24 0.72 0.48 0.72 0.48 0.72 0.24 0.72 0.48 0.72 0.48 0.72 0.48 0.72 0.24 0.96 0.48 0.72 0.48 0.72 0.48 0.72 0.24 0.72 0.48 0.96 0.48 0.72 0.24 0.72 0.48 0.72 0.48 0.96 0.48 0.72 0.24 0.72 0.48 0.96 0.48 0.72 0.24 0.72 0.48 0.96 0.48 0.72 0.48 0.72 0.24 0.96 0.48 0.72 0.48 0.96 0.48 0.72 0.24 0.96 0.48 0.72 0.48 0.96 0.24 0.72 0.48 0.96 0.48 0.72 0.48 0.96 0.24 0.72 0.48 0.96 0.48 0.72 0.48 0.96 0.24 0.96 0.48 0.72 0.48 0.96 0.24 0.72 0.48 0.96 0.48 0.96 0.48 0.96 0.24 0.72 0.48 0.96 0.48 0.96 0.48 0.72 0.24 0.96 0.48 0.96 0.48 0.96 0.24 0.72 0.48 0.96 0.48 0.96 0.48 0.96 0.24 0.96 0.48 0.72 0.48 0.96 0.24 0.96 0.48 0.96 0.48 0.96 0.48 0.96 0.24 0.96 0.48 0.96 0.48 0.72 0.48 0.96 0.24 0.96 0.48 0.96 0.48 0.96 0.24 0.96 0.48 0.96 0.48 0.96 0.48 0.96 0.24 0.96 0.48 0.96 0.48 0.96 0.24 0.96 0.48 0.96 0.48 0.96 0.48 0.96 0.24 0.96 0.48 0.96 0.48 0.96 0.48 0.96 0.24 0.96 0.48 0.96 0.48 0.96 0.24 0.96 0.48 0.96 0.48 1.2 0.48 0.96 0.24 0.96 0.48 0.96 0.48 0.96 0.48 0.96 0.24 0.96 0.48 0.96 0.48 0.96 0.24 0.96 0.48 0.96 0.48 1.2 0.48 0.96 0.24 0.96 0.48 0.96 0.48 0.96 0.48 0.96 0.24 0.96 0.48 0.96 0.48 1.2 0.24 0.96 0.48 0.96 0.48 0.96 0.48 0.96 0.24 0.96 0.48 0.96 0.48 0.96 0.24 1.2 0.48 0.96 0.48 0.96 0.48 0.96 0.24 0.96 0.48 0.96 0.48 0.96 0.48 0.96 0.24 0.96 0.48 1.2 0.48 0.96 0.24 0.96 0.48 0.96 0.48 0.96 0.48 0.96 0.24 0.96 0.48 0.96 0.48 0.96 0.24 0.96 0.48 0.96 0.48 0.96 0.48 0.96 0.24 1.2 0.48 0.96 0.48 0.96 0.48 0.96 0.24 0.96 0.48 0.96 0.48 0.96 0.24 0.96 0.48 0.96 0.48 0.96 0.48 0.96 0.24 0.96 0.48 0.96 0.48 0.96 0.48 0.72 0.24 0.96 0.48 0.96 0.48 0.96 0.24 0.96 0.48 0.96 0.48 0.96 0.48 0.96 0.24 0.96 0.48"/><path d="m382.8 479.76 0.96 0.48 0.72 0.48 0.96 0.24 0.96 0.48 0.96 0.48 0.96 0.24 0.96 0.48 0.72 0.48 0.96 0.48 0.96 0.24 0.96 0.48 0.96 0.48 0.72 0.24 0.96 0.48 0.96 0.48 0.72 0.48 0.96 0.24 0.96 0.48 0.96 0.48 0.72 0.48 0.96 0.24 0.72 0.48 0.96 0.48 0.96 0.24 0.72 0.48 0.96 0.48 0.72 0.48 0.96 0.24 0.96 0.48 0.72 0.48 0.96 0.24 0.72 0.48 0.96 0.48 0.72 0.48 0.96 0.24 0.72 0.48 0.72 0.48 0.96 0.48 0.72 0.24 0.96 0.48 0.72 0.48 0.72 0.24 0.96 0.48 0.72 0.48 0.72 0.48 0.96 0.24 0.72 0.48 0.72 0.48 0.96 0.48 0.72 0.24 0.72 0.48 0.72 0.48 0.96 0.24 0.72 0.48 0.72 0.48 0.72 0.48 0.72 0.24 0.72 0.48 0.72 0.48 0.96 0.48 0.72 0.24 0.72 0.48 0.72 0.48 0.72 0.24 0.72 0.48 0.72 0.48 0.72 0.48 0.72 0.24 0.72 0.48 0.72 0.48 0.72 0.24 0.72 0.48 0.48 0.48 0.72 0.48 0.72 0.24 0.72 0.48 0.72 0.48 0.72 0.48 0.48 0.24 0.72 0.48 0.72 0.48 0.72 0.24 0.48 0.48 0.72 0.48 0.72 0.48 0.72 0.24 0.48 0.48 0.72 0.48 0.48 0.24 0.72 0.48 0.72 0.48 0.48 0.48 0.72 0.24 0.48 0.48 0.72 0.48 0.72 0.24 0.48 0.48 0.72 0.48 0.48 0.48 0.48 0.24 0.72 0.48 0.48 0.48 0.72 0.48 0.48 0.24 0.72 0.48 0.48 0.48 0.48 0.24 0.72 0.48 0.48 0.48 0.48 0.48 0.72 0.24 0.48 0.48 0.48 0.48 0.48 0.48 0.72 0.24 0.48 0.48 0.48 0.48 0.48 0.24 0.48 0.48 0.72 0.48 0.48 0.48 0.48 0.24 0.48 0.48 0.48 0.48 0.48 0.48 0.48 0.24 0.48 0.48 0.48 0.48 0.48 0.24 0.48 0.48 0.48 0.48 0.48 0.48 0.48 0.24 0.48 0.48 0.48 0.48 0.48 0.24 0.48 0.48 0.48 0.48 0.48 0.48 0.48 0.24 0.48 0.48 0.24 0.48 0.48 0.48 0.48 0.24 0.48 0.48 0.48 0.48 0.48 0.24 0.24 0.48 0.48 0.48 0.48 0.48 0.24 0.24 0.48 0.48 0.48 0.48 0.48 0.24 0.24 0.48 0.48 0.48 0.48 0.48 0.24 0.24 0.48 0.48 0.24 0.48 0.48 0.48 0.48 0.24 0.24 0.48 0.48 0.48 0.24 0.24 0.48 0.48 0.24 0.48 0.48 0.48 0.24 0.24 0.48 0.48 0.24 0.48 0.48 0.48 0.24 0.24 0.48 0.48 0.24 0.48 0.48 0.24 0.24 0.48 0.24 0.48 0.48 0.48 0.24 0.24 0.24 0.48 0.48 0.48 0.24 0.48 0.24 0.24 0.48 0.48 0.24 0.48 0.24 0.24 0.48 0.48 0.24 0.48 0.24 0.48 0.24 0.24 0.48 0.48 0.24 0.48 0.24 0.24 0.24 0.48 0.48 0.48 0.24 0.48 0.24 0.24 0.24 0.48 0.24 0.48 0.24 0.48 0.48 0.24 0.24 0.48 0.24 0.48 0.24 0.24 0.24 0.48 0.24 0.48 0.24 0.48 0.24 0.24 0.24 0.48 0.24 0.48 0.24 0.24 0.24 0.48 0.48 0.48 0.24 0.48 0.24 0.24 0.24 0.48 0.24 0.48 0.24 0.48v0.24l0.24 0.48 0.24 0.48 0.24 0.24 0.24 0.48 0.24 0.48 0.24 0.48 0.24 0.24 0.24 0.48 0.24 0.48 0.24 0.48 0.24 0.24 0.24 0.48v0.48l0.24 0.24 0.24 0.48 0.24 0.48 0.24 0.48 0.24 0.24v0.48l0.24 0.48 0.24 0.48 0.24 0.24 0.24 0.48 0.24 0.48v0.24l0.24 0.48 0.24 0.48 0.24 0.48v0.24l0.24 0.48 0.24 0.48 0.24 0.24v0.48l0.24 0.48 0.24 0.48v0.24l0.24 0.48 0.24 0.48 0.24 0.48v0.24l0.24 0.48 0.24 0.48v0.24l0.24 0.48 0.24 0.48v0.48l0.24 0.24v0.48l0.24 0.48 0.24 0.24v0.48l0.24 0.48 0.24 0.48v0.24l0.24 0.48v0.48l0.24 0.48 0.24 0.24v0.48l0.24 0.48v0.24l0.24 0.48v0.48l0.24 0.48v0.24l0.24 0.48v0.48l0.24 0.48 0.24 0.24v0.48l0.24 0.48v0.24l0.24 0.48v0.48l0.24 0.48v0.24l0.24 0.48v0.48l0.24 0.48v0.24"/><path d="m520.56 603.84v0.48l0.24 0.48v0.24l0.24 0.48v0.48l0.24 0.48v0.24l0.24 0.48v0.48l0.24 0.24v0.96l0.24 0.48v0.24l0.24 0.48v0.96l0.24 0.24v0.48l0.24 0.48v0.72l0.24 0.48v0.72l0.24 0.48v0.48l0.24 0.24v0.96l0.24 0.48v0.72l0.24 0.48v0.72l0.24 0.48v0.72l0.24 0.48v0.96l0.24 0.24v1.44l0.24 0.24v0.96l0.24 0.24v0.96l0.24 0.48v1.2l0.24 0.48v1.2l0.24 0.24v1.44l0.24 0.24v1.2l0.24 0.48v1.2l0.24 0.48v1.2l0.24 0.48v1.68l0.24 0.48v1.2l0.24 0.24v1.68l0.24 0.48v2.16l0.24 0.24v1.68l0.24 0.48v2.16l0.24 0.24v2.16l0.24 0.48v2.4l0.24 0.48v2.4l0.24 0.48v2.4l0.24 0.48v2.88l0.24 0.48v3.36l0.24 0.24v3.84l0.24 0.24v4.32l0.24 0.24v4.56l0.24 0.48v5.52l0.24 0.24v0.48"/></g><path d="m106.8 459.12h455.04" stroke-dasharray="1.44, 2.88"/><g><path d="m106.8 231.6h455.04v455.04h-455.04v-455.04h455.04m-455.04 0h455.04m-447.36 0v6m6.48-6v6m5.76-6v6m5.04-6v6m4.56-6v12.24"/><path d="m121.44 221.04-1.68-0.48-1.2-1.92-0.72-2.88v-1.68l0.72-2.88 1.2-1.68 1.68-0.72h1.2l1.68 0.72 1.2 1.68 0.48 2.88v1.68l-0.48 2.88-1.2 1.92-1.68 0.48h-1.2l-1.2-0.48-0.48-0.72-0.72-1.2-0.48-2.88v-1.68l0.48-2.88 0.72-1.2 0.48-0.48 1.2-0.72m1.2 0 0.96 0.72 0.72 0.48 0.48 1.2 0.72 2.88v1.68l-0.72 2.88-0.48 1.2-0.72 0.72-0.96 0.48m7.92-11.04-0.48-0.48 0.48-0.72 0.72 0.72-0.72 0.48m8.16 11.04-1.68-0.48-1.2-1.92-0.48-2.88v-1.68l0.48-2.88 1.2-1.68 1.68-0.72h1.2l1.68 0.72 1.2 1.68 0.48 2.88v1.68l-0.48 2.88-1.2 1.92-1.68 0.48h-1.2l-1.2-0.48-0.48-0.72-0.72-1.2-0.48-2.88v-1.68l0.48-2.88 0.72-1.2 0.48-0.48 1.2-0.72m1.2 0 1.2 0.72 0.48 0.48 0.48 1.2 0.72 2.88v1.68l-0.72 2.88-0.48 1.2-0.48 0.72-1.2 0.48m8.64-2.4 1.2 0.72 1.68 1.68v-12.24m-0.48 11.76v-11.76m-2.4 0h5.28"/><path d="m166.08 231.6v6m17.52-6v6m12.48-6v6m9.36-6v6m7.92-6v6m6.72-6v6m5.76-6v6m5.04-6v6m4.56-6v12.24"/><path d="m226.08 221.04-1.68-0.48-1.2-1.92"/><path d="m223.2 218.64-0.48-2.88v-1.68l0.48-2.88 1.2-1.68 1.68-0.72h1.2l1.68 0.72 1.2 1.68 0.48 2.88v1.68l-0.48 2.88-1.2 1.92-1.68 0.48h-1.2l-1.2-0.48-0.48-0.72-0.72-1.2-0.48-2.88v-1.68l0.48-2.88 0.72-1.2 0.48-0.48 1.2-0.72m1.2 0 1.2 0.72 0.48 0.48 0.72 1.2 0.48 2.88v1.68l-0.48 2.88-0.72 1.2-0.48 0.72-1.2 0.48m8.16-11.04-0.72-0.48 0.72-0.72 0.48 0.72-0.48 0.48m6.24 8.64 1.2 0.72 1.68 1.68v-12.24m-0.48 11.76v-11.76m-2.4 0h5.28"/><path d="m265.2 231.6v6m17.28-6v6m12.48-6v6m9.6-6v6m7.68-6v6m6.72-6v6m5.76-6v6m5.04-6v6m4.56-6v12.24"/><path d="m331.92 218.64 1.2 0.72 1.68 1.68v-12.24m-0.48 11.76v-11.76m-2.4 0h5.28"/><path d="m364.08 231.6v6m17.52-6v6m12.24-6v6m9.6-6v6m7.92-6v6m6.48-6v6m5.76-6v6m5.04-6v6m4.56-6v12.24"/><path d="m425.04 218.64 1.2 0.72 1.68 1.68v-12.24m-0.48 11.76v-11.76m-2.4 0h5.28m8.16 12.24-1.68-0.48-1.2-1.92-0.72-2.88v-1.68l0.72-2.88 1.2-1.68 1.68-0.72h1.2l1.68 0.72 1.2 1.68 0.48 2.88v1.68l-0.48 2.88-1.2 1.92-1.68 0.48h-1.2l-1.2-0.48-0.48-0.72-0.72-1.2-0.48-2.88v-1.68l0.48-2.88 0.72-1.2 0.48-0.48 1.2-0.72m1.2 0 0.96 0.72 0.72 0.48 0.48 1.2 0.72 2.88v1.68l-0.72 2.88-0.48 1.2-0.72 0.72-0.96 0.48"/><path d="m462.96 231.6v6m17.52-6v6m12.24-6v6m9.6-6v6m7.92-6v6m6.72-6v6m5.52-6v6m5.28-6v6m4.32-6v12.24"/><path d="m518.4 218.64 0.96 0.72 1.92 1.68v-12.24m-0.72 11.76v-11.76m-2.16 0h5.04m8.16 12.24-1.68-0.48-1.2-1.92-0.72-2.88v-1.68l0.72-2.88 1.2-1.68 1.68-0.72h1.2l1.68 0.72 1.2 1.68 0.48 2.88v1.68l-0.48 2.88-1.2 1.92-1.68 0.48h-1.2l-1.2-0.48-0.48-0.72-0.72-1.2-0.48-2.88v-1.68l0.48-2.88 0.72-1.2 0.48-0.48 1.2-0.72m1.2 0 1.2 0.72 0.48 0.48 0.48 1.2 0.72 2.88v1.68l-0.72 2.88-0.48 1.2-0.48 0.72-1.2 0.48m10.32 0-1.68-0.48-1.2-1.92-0.48-2.88v-1.68l0.48-2.88 1.2-1.68 1.68-0.72h1.2l1.68 0.72 1.2 1.68 0.48 2.88v1.68l-0.48 2.88-1.2 1.92-1.68 0.48h-1.2l-1.2-0.48-0.48-0.72-0.72-1.2-0.48-2.88v-1.68l0.48-2.88 0.72-1.2 0.48-0.48 1.2-0.72m1.2 0 1.2 0.72 0.48 0.48 0.72 1.2 0.48 2.88v1.68l-0.48 2.88-0.72 1.2-0.48 0.72-1.2 0.48"/><path d="m106.8 686.64h455.04m-447.36 0v-6.24m6.48 6.24v-6.24m5.76 6.24v-6.24m5.04 6.24v-6.24m4.56 6.24v-12.24m29.76 12.24v-6.24m17.52 6.24v-6.24m12.48 6.24v-6.24m9.36 6.24v-6.24m7.92 6.24v-6.24m6.72 6.24v-6.24m5.76 6.24v-6.24m5.04 6.24v-6.24m4.56 6.24v-12.24m29.76 12.24v-6.24m17.28 6.24v-6.24m12.48 6.24v-6.24m9.6 6.24v-6.24m7.68 6.24v-6.24m6.72 6.24v-6.24m5.76 6.24v-6.24m5.04 6.24v-6.24m4.56 6.24v-12.24m29.76 12.24v-6.24m17.52 6.24v-6.24m12.24 6.24v-6.24m9.6 6.24v-6.24m7.92 6.24v-6.24m6.48 6.24v-6.24m5.76 6.24v-6.24m5.04 6.24v-6.24m4.56 6.24v-12.24m29.76 12.24v-6.24m17.52 6.24v-6.24m12.24 6.24v-6.24m9.6 6.24v-6.24m7.92 6.24v-6.24m6.72 6.24v-6.24m5.52 6.24v-6.24m5.28 6.24v-6.24m4.32 6.24v-12.24m-425.28-442.8v455.04"/><path d="m106.8 231.6h6m-6 20.64h6m-6 20.64h6m-6 20.64h12.24"/><path d="m72 292.8h10.32m9.3602 5.76v-11.04m0.4801 12.24v-12.24m0 12.24-6.2403-8.88h9.1199m-5.2796-3.36h4.0796"/><path d="m106.8 314.16h6m-6 20.88h6m-6 20.64h6m-6 20.64h12.24"/><path d="m72 375.36h10.32m4.5602 4.8 0.7199-0.72-0.7199-0.48-0.4801 0.48v0.72l0.4801 1.2 0.7199 0.48 1.6801 0.48h2.4l1.6801-0.48 0.4796-0.48 0.7204-1.2v-1.2l-0.7204-1.2-1.6796-1.2-2.8801-1.2-1.2-0.48-1.2-1.2-0.4801-1.68v-1.68m5.2801 12 0.9597-0.48 0.7204-0.48 0.4796-1.2v-1.2l-0.4796-1.2-1.6801-1.2-2.4-1.2m-2.8801-3.84 0.4801 0.48h1.2l2.8801-1.2h1.6796l1.2 0.72 0.7204 0.48m-6.4801 0 2.8801-1.68h2.4l0.4796 0.48 0.7204 1.2v1.2"/><path d="m106.8 396.96h6m-6 20.64h6m-6 20.88h6m-6 20.64h12.24"/><path d="m89.76 465.12-1.6801-0.48-1.2-1.68-0.4801-2.88v-1.92l0.4801-2.88 1.2-1.68 1.6801-0.48h1.2l1.6796 0.48 1.2 1.68 0.7204 2.88v1.92l-0.7204 2.88-1.2 1.68-1.6796 0.48h-1.2"/><path d="m89.76 465.12-0.9602-0.48-0.7199-0.72-0.4801-0.96-0.7199-2.88v-1.92l0.7199-2.88 0.4801-1.2 0.7199-0.48 0.9602-0.48m1.2 0 1.2 0.48 0.4796 0.48 0.7204 1.2 0.4796 2.88v1.92l-0.4796 2.88-0.7204 0.96-0.4796 0.72-1.2 0.48"/><path d="m106.8 479.76h6m-6 20.64h6m-6 20.64h6m-6 20.88h12.24"/><path d="m86.88 545.52 0.7199-0.48-0.7199-0.48-0.4801 0.48v0.48l0.4801 1.2 0.7199 0.72 1.6801 0.48h2.4l1.6801-0.48 0.4796-0.72 0.7204-1.2v-0.96l-0.7204-1.2-1.6796-1.2-2.8801-1.2-1.2-0.48-1.2-1.2-0.4801-1.68v-1.92m5.2801 12.24 0.9597-0.48 0.7204-0.72 0.4796-1.2v-0.96l-0.4796-1.2-1.6801-1.2-2.4-1.2m-2.8801-4.08 0.4801 0.72h1.2l2.8801-1.2h1.6796l1.2 0.48 0.7204 0.72m-6.4801 0 2.8801-1.92h2.4l0.4796 0.72 0.7204 1.2v0.96"/><path d="m106.8 562.56h6m-6 20.64h6m-6 20.64h6m-6 20.64h12.24"/><path d="m91.68 629.52v-11.04m0.4801 12.24v-12.24m0 12.24-6.2403-8.64h9.1199m-5.2796-3.6h4.0796"/><path d="m106.8 645.36h6m-6 20.64h6m-6 20.64h6m449.04-455.04v455.04"/><path d="m561.84 231.6h-6.24m6.24 20.64h-6.24m6.24 20.64h-6.24m6.24 20.64h-12.24m12.24 20.64h-6.24m6.24 20.88h-6.24m6.24 20.64h-6.24m6.24 20.64h-12.24m12.24 20.64h-6.24m6.24 20.64h-6.24m6.24 20.88h-6.24m6.24 20.64h-12.24m12.24 20.64h-6.24m6.24 20.64h-6.24m6.24 20.64h-6.24m6.24 20.88h-12.24m12.24 20.64h-6.24m6.24 20.64h-6.24m6.24 20.64h-6.24m6.24 20.64h-12.24m12.24 20.88h-6.24m6.24 20.64h-6.24m6.24 20.64h-6.24"/><path d="m41.52 406.32 12 5.04m-12-4.56 12 5.04m-12 2.64 12-10.56m-12 1.2v3.36m0 3.6v3.36m12-12.72v3.36m0 3.6v3.36m1.4403 4.32 0.4796-0.24v-0.24h-0.4796l-0.2403 0.48-0.4801 0.72v1.44l0.4801 0.72 0.2403 0.24 0.7199 0.24 2.4-0.48h0.7199l0.2398 0.48m-4.0796-0.24 3.1199-0.72 0.7199 0.24 0.2398 0.72v0.24m-3.3597-0.72 0.2398-0.48 0.4801-1.92 0.2398-1.2 0.7204-0.48 0.7199-0.24 0.7199 0.24 0.2398 0.96v0.96l-0.2398 0.96-0.7199 0.72m-1.6801-1.92 0.2398-0.96 0.7204-0.48h0.7199l0.7199 0.24 0.2398 0.48"/><path d="m39.12 438.96 1.2-1.2 1.6801-1.2 2.4-1.2 2.8801-0.48h2.4l2.8801 0.48 2.1597 1.2 1.6801 1.2 1.2 1.2m-17.28-1.2 2.4-1.2 1.6801-0.48 2.8801-0.72h2.4l2.8801 0.72 1.6796 0.48 2.1602 1.2m-7.4398 5.04v6.96h-1.2l-0.9602-0.48-0.7199-0.48-0.4801-1.2v-1.68l0.4801-1.92 1.2-1.2 1.6801-0.48h1.2l1.6796 0.48 1.2 1.2 0.4801 1.92v0.96l-0.4801 1.92-1.2 0.96m-2.8796-0.48h-1.6801l-1.2-0.48m-0.4801-2.88 0.4801-1.2 1.2-1.2 1.6801-0.72h1.2l1.6796 0.72 1.2 1.2 0.4801 1.2m-7.9199 8.64h7.9199m-7.9199 0.48h7.9199m-6.2398 0-1.2 1.2-0.4801 1.68v1.2l0.4801 1.68 1.2 0.48h6.2398m-7.9199-2.16 0.4801 1.2 1.2 0.48h6.2398m-7.9199-8.16v2.4m7.9199-2.4v4.08m0 2.4v4.08m-7.9199 5.76 0.4801-1.2 0.7199-0.48 0.9602-0.72h1.2l1.2 0.72 0.4796 0.48 0.7204 1.2v1.2l-0.7204 0.96-0.4796 0.72-1.2 0.48h-1.2l-0.9602-0.48-0.7199-0.72-0.4801-0.96v-1.2m0.4801-1.2 1.2-0.48h2.4l0.9597 0.48m0 3.36-0.9597 0.72h-2.4l-1.2-0.72m0.7199 0.72-0.7199 0.48-0.4801 1.2h0.4801v-1.2m4.0801-5.04 0.4796-0.72 1.2-0.48h0.7204l0.9597 0.48 0.7199 1.68v2.88l0.4801 1.92 0.7199 0.48m-2.8796-7.44 0.4796 0.48 0.4801 1.68v2.88l0.7199 1.92 1.2 0.48h0.4801l1.2-0.48 0.4801-1.92v-3.36l-0.4801-1.68-1.2-0.72h-0.4801l-1.2 0.72-0.7199 1.68m-12 10.32l0.4801-0.48 0.7199 0.48-0.7199 0.72-0.4801-0.72m4.0801 0h7.9199m-7.9199 0.72h7.9199m-7.9199-2.4v2.4m7.9199-2.4v4.08m-7.9199 4.08h7.9199m-7.9199 0.48h7.9199m-6.2398 0-1.2 1.2-0.4801 1.68v1.2l0.4801 1.68 1.2 0.72h6.2398m-7.9199-2.4 0.4801 1.2 1.2 0.48h6.2398m-7.9199-7.92v2.16m7.9199-2.16v3.84m0 2.4v4.08m-4.5597 3.36v6.96h-1.2l-0.9602-0.48-0.7199-0.72-0.4801-0.96v-1.92l0.4801-1.68 1.2-1.2 1.6801-0.48h1.2l1.6796 0.48 1.2 1.2 0.4801 1.68v1.2l-0.4801 1.68-1.2 1.2m-2.8796-0.48h-1.6801l-1.2-0.72m-0.4801-2.88 0.4801-0.96 1.2-1.2 1.6801-0.72h1.2l1.6796 0.72 1.2 1.2 0.4801 0.96m-14.4 7.68 1.2 0.96 1.6801 1.2 2.4 1.2 2.8801 0.48h2.4l2.8801-0.48 2.1597-1.2 1.6801-1.2 1.2-0.96m-17.28 0.96 2.4 1.2 1.6801 0.72 2.8801 0.48h2.4l2.8801-0.48 1.6796-0.72 2.1602-1.2"/><path d="m283.44 192 4.8-8.16"/><path d="m284.16 192 4.8-8.16m1.44 8.16-8.4-8.16m0.48 8.16h3.36m2.4 0h3.36m-10.8-8.16h3.36m2.4 0h3.36m4.8-1.2v-0.48h-0.24v0.48l0.48 0.24 0.72 0.48h1.44l0.48-0.48 0.24-0.24 0.24-0.72-0.48-2.4 0.24-0.72 0.24-0.48m-0.24 4.32-0.48-3.12 0.24-0.72 0.48-0.48h0.48m-0.72 3.6-0.48-0.48-2.16-0.24-1.2-0.48-0.24-0.48-0.24-0.72 0.24-0.72 0.96-0.48h0.96l0.72 0.48 0.96 0.72m-2.16 1.68-0.72-0.48-0.48-0.48-0.24-0.72 0.24-0.72 0.72-0.48"/><path d="m316.32 198.48-1.2-1.2-0.96-1.68-1.2-2.4-0.72-2.88v-2.4l0.72-2.88 1.2-2.16 0.96-1.92 1.2-0.96m-1.2 17.28-0.96-2.4-0.72-1.68-0.48-2.88v-2.4l0.48-2.88 0.72-1.68 0.96-2.4m6 11.04v-8.16m0.48 8.16v-8.16m0 6.48 1.2 1.2 1.68 0.48h1.2l1.68-0.48 0.48-1.2v-6.48m-2.16 8.16 1.2-0.48 0.48-1.2v-6.48m0.48 6.48 1.2 1.2 1.68 0.48h1.2l1.68-0.48 0.72-1.2v-6.48m-2.4 8.16 1.2-0.48 0.48-1.2v-6.48m-14.4 8.16h2.4m-2.4-8.16h4.08m2.4 0h4.08m2.16 0h4.08m6.48 8.16-1.92-0.48-0.96-1.2-0.72-1.68v-1.2l0.72-1.68 0.96-1.2 1.92-0.72h0.96l1.92 0.72 0.96 1.2 0.72 1.68v1.2l-0.72 1.68-0.96 1.2-1.92 0.48h-0.96l-1.2-0.48-1.2-1.2-0.48-1.68v-1.2l0.48-1.68 1.2-1.2 1.2-0.72m0.96 0 1.2 0.72 1.2 1.2 0.48 1.68v1.2l-0.48 1.68-1.2 1.2-1.2 0.48m13.92 4.08v-12.24m0.72 12.24v-12.24m-0.72 6.48-1.2 1.2-0.96 0.48h-1.2l-1.92-0.48-0.96-1.2-0.72-1.68v-1.2l0.72-1.68 0.96-1.2 1.92-0.72h1.2l0.96 0.72 1.2 1.2m-3.36 6.24l-1.2-0.48-1.2-1.2-0.48-1.68v-1.2l0.48-1.68 1.2-1.2 1.2-0.72m1.68 12.24h2.4m-0.72-12.24h2.4m3.36 4.8h6.96v1.2l-0.48 0.96-0.72 0.72-1.2 0.48h-1.68l-1.68-0.48-1.2-1.2-0.48-1.68v-1.2l0.48-1.68 1.2-1.2 1.68-0.72h1.2l1.68 0.72 1.2 1.2m-0.48 2.88v1.68l-0.72 1.2m-2.88 0.48l-1.2-0.48-0.96-1.2-0.72-1.68v-1.2l0.72-1.68 0.96-1.2 1.2-0.72m8.64 12.24v-12.24m0.72 12.24v-12.24m-2.4 12.24h2.4m-2.4-12.24h4.08m2.88 14.64 1.2-1.2 1.2-1.68 0.96-2.4 0.72-2.88v-2.4l-0.72-2.88-0.96-2.16-1.2-1.92-1.2-0.96m1.2 17.28 1.2-2.4 0.48-1.68 0.48-2.88v-2.4l-0.48-2.88-0.48-1.68-1.2-2.4"/></g></g></g></svg>
